<svg width="19" height="33" viewBox="0 0 19 33" fill="none" xmlns="http://www.w3.org/2000/svg">
<path d="M18.1699 21.872C18.1699 23.072 17.8699 24.2 17.2699 25.256C16.6939 26.312 15.8299 27.2 14.6779 27.92C13.5499 28.64 12.2059 29.072 10.6459 29.216V32.132H8.30594V29.216C6.04994 29 4.22594 28.292 2.83394 27.092C1.44194 25.892 0.745938 24.308 0.745938 22.34H5.13794C5.20994 23.276 5.50994 24.056 6.03794 24.68C6.56594 25.28 7.32194 25.664 8.30594 25.832V17.912C6.69794 17.504 5.38994 17.096 4.38194 16.688C3.37394 16.256 2.50994 15.584 1.78994 14.672C1.09394 13.76 0.745938 12.512 0.745938 10.928C0.745938 8.936 1.44194 7.292 2.83394 5.996C4.22594 4.676 6.04994 3.908 8.30594 3.692V0.775999H10.6459V3.692C12.7579 3.884 14.4499 4.556 15.7219 5.708C17.0179 6.836 17.7499 8.396 17.9179 10.388H13.5259C13.4539 9.644 13.1659 8.984 12.6619 8.408C12.1579 7.808 11.4859 7.4 10.6459 7.184V14.96C12.2539 15.344 13.5619 15.752 14.5699 16.184C15.5779 16.592 16.4299 17.252 17.1259 18.164C17.8219 19.052 18.1699 20.288 18.1699 21.872ZM4.92194 10.712C4.92194 11.696 5.20994 12.464 5.78594 13.016C6.38594 13.568 7.22594 14.012 8.30594 14.348V7.076C7.27394 7.196 6.44594 7.568 5.82194 8.192C5.22194 8.816 4.92194 9.656 4.92194 10.712ZM10.6459 25.832C11.7019 25.664 12.5299 25.244 13.1299 24.572C13.7299 23.876 14.0299 23.048 14.0299 22.088C14.0299 21.128 13.7299 20.384 13.1299 19.856C12.5539 19.304 11.7259 18.86 10.6459 18.524V25.832Z" fill="#77449A"/>
</svg>
