<svg width="451" height="377" viewBox="0 0 451 377" fill="none" xmlns="http://www.w3.org/2000/svg">
<path d="M368.639 364.362L287.256 343.578H364.082L447.321 364.362H368.639Z" fill="#BA68C8"/>
<path d="M78.6819 364.362L160.065 343.578H83.2496L0 364.362H78.6819Z" fill="#BA68C8"/>
<path d="M227.415 277.902C227.415 277.902 227.339 277.52 227.218 276.809" stroke="#2E353A" stroke-miterlimit="10"/>
<path d="M226.856 274.664C225.681 267.084 223.693 248.171 231.149 239.726C240.602 229.039 251.934 238.195 283.512 239.726C315.09 241.258 331.34 236.674 331.67 209.699C331.999 182.725 313.476 180.942 313.476 180.942H301.771" stroke="#2E353A" stroke-miterlimit="10" stroke-dasharray="2.01 2.01"/>
<path d="M300.662 180.985H299.564" stroke="#2E353A" stroke-miterlimit="10"/>
<path d="M299.564 98.125H300.662" stroke="#2E353A" stroke-miterlimit="10"/>
<path d="M302.858 98.125H342.386C342.386 98.125 354.299 99.1532 353.805 112.848C353.311 126.544 333.492 139.375 334.755 166.721C336.018 194.068 382.858 189.988 389.237 217.368C395.617 244.747 348.754 243.38 344.395 257.513C343.025 260.681 342.351 264.105 342.419 267.554C342.419 272.148 342.419 283.065 342.419 287.736" stroke="#2E353A" stroke-miterlimit="10" stroke-dasharray="2 2"/>
<path d="M342.418 288.839V289.933" stroke="#2E353A" stroke-miterlimit="10"/>
<path d="M154.058 20.6138H152.96" stroke="#2E353A" stroke-miterlimit="10"/>
<path d="M150.776 20.6122H131.418C131.418 20.6122 78.7148 20.0106 78.7148 64.367C78.7148 84.8989 85.8737 100.246 107.087 125.47C128.3 150.695 127.949 229.541 121.053 243.685C114.158 257.828 99.5327 255.717 94.3941 263.374C94.3941 263.374 90.6939 267.236 90.3755 271.95C90.123 275.659 90.2657 287.811 90.3755 292.799" stroke="#2E353A" stroke-miterlimit="10" stroke-dasharray="1.99 1.99"/>
<path d="M90.3203 293.951C90.3203 294.64 90.3203 295.045 90.3203 295.045" stroke="#2E353A" stroke-miterlimit="10"/>
<path d="M165.906 77.7246C163.534 77.7281 161.205 78.3544 159.153 79.5404C159.343 78.4899 159.438 77.4246 159.439 76.3573C159.443 71.7214 157.708 67.2514 154.575 63.8234C151.443 60.3955 147.138 58.257 142.504 57.827C137.871 57.3971 133.244 58.7067 129.529 61.4992C125.815 64.2918 123.282 68.3657 122.426 72.9225C120.173 72.1033 117.767 71.7842 115.378 71.9875C112.988 72.1908 110.672 72.9115 108.591 74.0994C106.51 75.2872 104.715 76.9135 103.33 78.8646C101.946 80.8156 101.006 83.0444 100.576 85.395C100.146 87.7456 100.237 90.1614 100.841 92.4736C101.446 94.7857 102.55 96.9383 104.077 98.781C105.604 100.624 107.516 102.112 109.68 103.142C111.844 104.172 114.208 104.718 116.606 104.743H165.917C169.513 104.743 172.963 103.32 175.506 100.786C178.049 98.2529 179.477 94.8168 179.477 91.2339C179.477 87.651 178.049 84.2149 175.506 81.6814C172.963 79.1479 169.513 77.7246 165.917 77.7246H165.906Z" fill="white" stroke="#2E353A" stroke-miterlimit="10"/>
<path d="M374.359 132.615C371.831 132.616 369.347 133.28 367.157 134.54C367.35 133.424 367.449 132.293 367.453 131.16C367.454 126.226 365.606 121.469 362.271 117.821C358.935 114.174 354.353 111.899 349.421 111.441C344.489 110.984 339.564 112.378 335.61 115.35C331.657 118.321 328.959 122.657 328.046 127.507C325.64 126.617 323.068 126.263 320.51 126.47C317.953 126.678 315.472 127.44 313.242 128.705C311.012 129.97 309.087 131.706 307.602 133.792C306.118 135.877 305.111 138.262 304.65 140.777C304.19 143.292 304.289 145.877 304.939 148.35C305.589 150.823 306.776 153.124 308.414 155.091C310.053 157.059 312.105 158.645 314.424 159.737C316.744 160.83 319.277 161.403 321.843 161.417H374.359C378.189 161.417 381.861 159.901 384.569 157.203C387.277 154.506 388.798 150.847 388.798 147.032C388.798 143.217 387.277 139.558 384.569 136.861C381.861 134.163 378.189 132.648 374.359 132.648V132.615Z" fill="white" stroke="#2E353A" stroke-miterlimit="10"/>
<path d="M365.026 165.08H369.418" stroke="#2E353A" stroke-linecap="round" stroke-linejoin="round"/>
<path d="M343.616 165.08H358.988" stroke="#2E353A" stroke-linecap="round" stroke-linejoin="round"/>
<path d="M329.078 112.235C331.326 110.352 334.102 109.207 337.028 108.953" stroke="#2E353A" stroke-linecap="round" stroke-linejoin="round"/>
<path d="M323.852 120.232C324.247 118.502 324.995 116.871 326.048 115.44" stroke="#2E353A" stroke-linecap="round" stroke-linejoin="round"/>
<path d="M157.122 199.21C153.321 199.212 149.587 200.212 146.296 202.108C146.597 200.429 146.747 198.727 146.746 197.022C146.752 189.605 143.975 182.454 138.962 176.972C133.949 171.489 127.061 168.07 119.648 167.385C112.236 166.7 104.834 168.799 98.8942 173.27C92.9547 177.741 88.9061 184.261 87.5425 191.552C83.9366 190.234 80.0849 189.717 76.2573 190.038C72.4297 190.358 68.7188 191.508 65.3843 193.408C62.0498 195.307 59.1724 197.91 56.9537 201.034C54.735 204.157 53.2285 207.727 52.5398 211.491C51.8511 215.256 51.9969 219.125 52.9668 222.828C53.9368 226.53 55.7075 229.977 58.155 232.926C60.6025 235.876 63.6676 238.256 67.1356 239.901C70.6036 241.546 74.3906 242.416 78.2316 242.45H157.122C162.79 242.323 168.184 239.991 172.147 235.952C176.111 231.913 178.33 226.489 178.33 220.841C178.33 215.192 176.111 209.768 172.147 205.73C168.184 201.691 162.79 199.358 157.122 199.231V199.21Z" fill="white" stroke="#2E353A" stroke-miterlimit="10"/>
<path d="M57.9736 240.25C59.0783 240.981 60.2341 241.632 61.4323 242.198" stroke="#2E353A" stroke-linecap="round" stroke-linejoin="round"/>
<path d="M49.3545 230.166C50.4061 232.657 51.9352 234.92 53.8562 236.828" stroke="#2E353A" stroke-linecap="round" stroke-linejoin="round"/>
<path d="M98.0283 165.628C102.589 162.501 108.058 160.963 113.587 161.252" stroke="#2E353A" stroke-linecap="round" stroke-linejoin="round"/>
<path d="M93.2739 170.004C94.0392 169.008 94.9078 168.095 95.8652 167.281" stroke="#2E353A" stroke-linecap="round" stroke-linejoin="round"/>
<path d="M299.565 92.075H294.349V105.814H299.565V92.075Z" fill="#2E353A" stroke="#2E353A" stroke-miterlimit="10"/>
<path d="M299.565 173.119H294.349V186.858H299.565V173.119Z" fill="#2E353A" stroke="#2E353A" stroke-miterlimit="10"/>
<path d="M159.275 12.5854H154.059V26.3244H159.275V12.5854Z" fill="#2E353A" stroke="#2E353A" stroke-miterlimit="10"/>
<path d="M159.275 133.115H154.059V146.854H159.275V133.115Z" fill="#2E353A" stroke="#2E353A" stroke-miterlimit="10"/>
<path d="M296.062 4.98169H158.78V34.6036H296.062V4.98169Z" fill="white" stroke="#2E353A" stroke-miterlimit="10"/>
<path d="M259.993 12.5417H165.379V27.0464H259.993V12.5417Z" fill="#BA68C8" stroke="#2E353A" stroke-miterlimit="10"/>
<path d="M272.807 22.8109C274.832 22.8109 276.474 21.1752 276.474 19.1574C276.474 17.1396 274.832 15.5039 272.807 15.5039C270.782 15.5039 269.14 17.1396 269.14 19.1574C269.14 21.1752 270.782 22.8109 272.807 22.8109Z" fill="white" stroke="#2E353A" stroke-miterlimit="10"/>
<path d="M290.847 19.1574C290.847 18.4348 290.632 17.7285 290.229 17.1276C289.826 16.5268 289.253 16.0585 288.583 15.782C287.913 15.5055 287.175 15.4331 286.464 15.5741C285.753 15.7151 285.099 16.063 284.586 16.574C284.073 17.085 283.724 17.7359 283.583 18.4447C283.441 19.1534 283.514 19.888 283.791 20.5556C284.069 21.2232 284.539 21.7938 285.142 22.1952C285.745 22.5967 286.454 22.8109 287.179 22.8109C288.152 22.8109 289.085 22.426 289.773 21.7409C290.46 21.0557 290.847 20.1264 290.847 19.1574Z" fill="#BA68C8" stroke="#2E353A" stroke-miterlimit="10"/>
<path d="M251.407 22.8109C253.432 22.8109 255.074 21.1752 255.074 19.1574C255.074 17.1396 253.432 15.5039 251.407 15.5039C249.381 15.5039 247.739 17.1396 247.739 19.1574C247.739 21.1752 249.381 22.8109 251.407 22.8109Z" fill="white" stroke="#2E353A" stroke-miterlimit="10"/>
<path d="M290.858 34.6038H163.996V44.7439H290.858V34.6038Z" fill="#2E353A" stroke="#2E353A" stroke-miterlimit="10"/>
<path d="M296.062 44.7454H158.78V74.3673H296.062V44.7454Z" fill="white" stroke="#2E353A" stroke-miterlimit="10"/>
<path d="M259.993 52.2998H165.379V66.8045H259.993V52.2998Z" fill="#BA68C8" stroke="#2E353A" stroke-miterlimit="10"/>
<path d="M272.807 62.5841C274.832 62.5841 276.474 60.9484 276.474 58.9306C276.474 56.9128 274.832 55.2771 272.807 55.2771C270.782 55.2771 269.14 56.9128 269.14 58.9306C269.14 60.9484 270.782 62.5841 272.807 62.5841Z" fill="#BA68C8" stroke="#2E353A" stroke-miterlimit="10"/>
<path d="M290.847 58.9306C290.847 58.208 290.632 57.5017 290.229 56.9008C289.826 56.3 289.253 55.8317 288.583 55.5552C287.913 55.2787 287.175 55.2063 286.464 55.3473C285.753 55.4883 285.099 55.8362 284.586 56.3472C284.073 56.8582 283.724 57.5091 283.583 58.2179C283.441 58.9266 283.514 59.6612 283.791 60.3288C284.069 60.9964 284.539 61.567 285.142 61.9684C285.745 62.3699 286.454 62.5841 287.179 62.5841C287.661 62.5856 288.139 62.4921 288.585 62.309C289.03 62.1259 289.435 61.8568 289.776 61.5173C290.117 61.1777 290.387 60.7744 290.571 60.3305C290.754 59.8865 290.848 59.4108 290.847 58.9306Z" fill="white" stroke="#2E353A" stroke-miterlimit="10"/>
<path d="M251.407 62.5841C253.432 62.5841 255.074 60.9484 255.074 58.9306C255.074 56.9128 253.432 55.2771 251.407 55.2771C249.381 55.2771 247.739 56.9128 247.739 58.9306C247.739 60.9484 249.381 62.5841 251.407 62.5841Z" fill="white" stroke="#2E353A" stroke-miterlimit="10"/>
<path d="M290.858 74.375H163.996V84.5152H290.858V74.375Z" fill="#2E353A" stroke="#2E353A" stroke-miterlimit="10"/>
<path d="M296.062 84.5186H158.78V114.14H296.062V84.5186Z" fill="white" stroke="#2E353A" stroke-miterlimit="10"/>
<path d="M259.993 92.075H165.379V106.58H259.993V92.075Z" fill="#BA68C8" stroke="#2E353A" stroke-miterlimit="10"/>
<path d="M272.807 102.348C274.832 102.348 276.474 100.712 276.474 98.6943C276.474 96.6765 274.832 95.0408 272.807 95.0408C270.782 95.0408 269.14 96.6765 269.14 98.6943C269.14 100.712 270.782 102.348 272.807 102.348Z" fill="white" stroke="#2E353A" stroke-miterlimit="10"/>
<path d="M290.847 98.6943C290.847 97.9717 290.632 97.2653 290.229 96.6645C289.826 96.0637 289.253 95.5954 288.583 95.3189C287.913 95.0424 287.175 94.97 286.464 95.111C285.753 95.2519 285.099 95.5999 284.586 96.1109C284.073 96.6218 283.724 97.2728 283.583 97.9815C283.441 98.6902 283.514 99.4248 283.791 100.092C284.069 100.76 284.539 101.331 285.142 101.732C285.745 102.134 286.454 102.348 287.179 102.348C288.152 102.348 289.085 101.963 289.773 101.278C290.46 100.593 290.847 99.6633 290.847 98.6943Z" fill="#BA68C8" stroke="#2E353A" stroke-miterlimit="10"/>
<path d="M251.407 102.348C253.432 102.348 255.074 100.712 255.074 98.6943C255.074 96.6765 253.432 95.0408 251.407 95.0408C249.381 95.0408 247.739 96.6765 247.739 98.6943C247.739 100.712 249.381 102.348 251.407 102.348Z" fill="white" stroke="#2E353A" stroke-miterlimit="10"/>
<path d="M290.858 114.139H163.996V124.279H290.858V114.139Z" fill="#2E353A" stroke="#2E353A" stroke-miterlimit="10"/>
<path d="M296.062 124.279H158.78V153.901H296.062V124.279Z" fill="white" stroke="#2E353A" stroke-miterlimit="10"/>
<path d="M259.993 131.839H165.379V146.343H259.993V131.839Z" fill="#BA68C8" stroke="#2E353A" stroke-miterlimit="10"/>
<path d="M272.807 142.121C274.832 142.121 276.474 140.485 276.474 138.467C276.474 136.45 274.832 134.814 272.807 134.814C270.782 134.814 269.14 136.45 269.14 138.467C269.14 140.485 270.782 142.121 272.807 142.121Z" fill="#BA68C8" stroke="#2E353A" stroke-miterlimit="10"/>
<path d="M290.847 138.467C290.847 137.745 290.632 137.039 290.229 136.438C289.826 135.837 289.253 135.369 288.583 135.092C287.913 134.816 287.175 134.743 286.464 134.884C285.753 135.025 285.099 135.373 284.586 135.884C284.073 136.395 283.724 137.046 283.583 137.755C283.441 138.463 283.514 139.198 283.791 139.866C284.069 140.533 284.539 141.104 285.142 141.505C285.745 141.907 286.454 142.121 287.179 142.121C287.661 142.122 288.139 142.029 288.585 141.846C289.03 141.663 289.435 141.394 289.776 141.054C290.117 140.715 290.387 140.311 290.571 139.867C290.754 139.423 290.848 138.948 290.847 138.467Z" fill="white" stroke="#2E353A" stroke-miterlimit="10"/>
<path d="M251.407 142.121C253.432 142.121 255.074 140.485 255.074 138.467C255.074 136.45 253.432 134.814 251.407 134.814C249.381 134.814 247.739 136.45 247.739 138.467C247.739 140.485 249.381 142.121 251.407 142.121Z" fill="white" stroke="#2E353A" stroke-miterlimit="10"/>
<path d="M290.858 153.914H163.996V164.054H290.858V153.914Z" fill="#2E353A" stroke="#2E353A" stroke-miterlimit="10"/>
<path d="M296.062 164.052H158.78V193.674H296.062V164.052Z" fill="white" stroke="#2E353A" stroke-miterlimit="10"/>
<path d="M259.993 171.61H165.379V186.115H259.993V171.61Z" fill="#BA68C8" stroke="#2E353A" stroke-miterlimit="10"/>
<path d="M272.807 181.881C274.832 181.881 276.474 180.245 276.474 178.228C276.474 176.21 274.832 174.574 272.807 174.574C270.782 174.574 269.14 176.21 269.14 178.228C269.14 180.245 270.782 181.881 272.807 181.881Z" fill="white" stroke="#2E353A" stroke-miterlimit="10"/>
<path d="M290.847 178.228C290.847 177.505 290.632 176.799 290.229 176.198C289.826 175.597 289.253 175.129 288.583 174.852C287.913 174.576 287.175 174.503 286.464 174.644C285.753 174.785 285.099 175.133 284.586 175.644C284.073 176.155 283.724 176.806 283.583 177.515C283.441 178.223 283.514 178.958 283.791 179.626C284.069 180.293 284.539 180.864 285.142 181.265C285.745 181.667 286.454 181.881 287.179 181.881C288.152 181.881 289.085 181.496 289.773 180.811C290.46 180.126 290.847 179.196 290.847 178.228Z" fill="#BA68C8" stroke="#2E353A" stroke-miterlimit="10"/>
<path d="M251.407 181.881C253.432 181.881 255.074 180.245 255.074 178.228C255.074 176.21 253.432 174.574 251.407 174.574C249.381 174.574 247.739 176.21 247.739 178.228C247.739 180.245 249.381 181.881 251.407 181.881Z" fill="white" stroke="#2E353A" stroke-miterlimit="10"/>
<path d="M236.562 1H244.248" stroke="#2E353A" stroke-linecap="round" stroke-linejoin="round"/>
<path d="M183.31 1H227.778" stroke="#2E353A" stroke-linecap="round" stroke-linejoin="round"/>
<path d="M153.115 180.941V186.411" stroke="#2E353A" stroke-linecap="round" stroke-linejoin="round"/>
<path d="M153.115 163.985V175.471" stroke="#2E353A" stroke-linecap="round" stroke-linejoin="round"/>
<path d="M355.595 62.8994L347.909 47.7494C347.866 47.6436 347.802 47.5478 347.72 47.4679C347.638 47.3881 347.54 47.3259 347.433 47.2853C347.326 47.2447 347.211 47.2265 347.097 47.2319C346.982 47.2373 346.87 47.2661 346.767 47.3165C346.665 47.367 346.573 47.438 346.499 47.5252C346.425 47.6124 346.37 47.7138 346.337 47.8232C346.304 47.9326 346.294 48.0475 346.308 48.1609C346.321 48.2743 346.358 48.3837 346.416 48.4823L353.762 63.7964C353.611 63.9511 353.506 64.1446 353.46 64.3552C353.413 64.5659 353.426 64.7852 353.498 64.9887L361.272 79.5044C361.48 79.92 362.139 80.0075 362.765 79.7013C363.391 79.395 363.72 78.8152 363.512 78.4105L356.704 63.4136C356.591 63.228 356.426 63.08 356.228 62.9884C356.031 62.8969 355.81 62.8659 355.595 62.8994Z" fill="#2E353A"/>
<path d="M398.153 62.9016L405.894 47.7515C405.989 47.5559 406.157 47.4057 406.363 47.3339C406.569 47.2621 406.795 47.2746 406.992 47.3687C407.184 47.4674 407.331 47.6358 407.403 47.8393C407.474 48.0428 407.465 48.2658 407.376 48.4625L400.019 63.7767C400.174 63.9293 400.279 64.1241 400.322 64.3363C400.365 64.5486 400.344 64.7688 400.261 64.969L392.487 79.4846C392.279 79.9003 391.609 79.9878 390.994 79.6815C390.379 79.3752 390.039 78.7955 390.236 78.3908L397.055 63.3938C397.17 63.2142 397.335 63.0719 397.53 62.9844C397.725 62.897 397.942 62.8682 398.153 62.9016Z" fill="#2E353A"/>
<path d="M401.095 80.1611H352.817L356.44 74.0354H397.472L401.095 80.1611Z" fill="white" stroke="#2E353A" stroke-linecap="round" stroke-linejoin="round"/>
<path d="M401.084 80.1611H352.817V86.2868H401.084V80.1611Z" fill="white" stroke="#2E353A" stroke-linecap="round" stroke-linejoin="round"/>
<path d="M376.117 84.5827H357.56C357.201 84.5798 356.858 84.4356 356.605 84.1816C356.352 83.9275 356.21 83.5842 356.21 83.2263C356.21 82.8695 356.352 82.5273 356.606 82.2749C356.859 82.0226 357.202 81.8809 357.56 81.8809H376.117C376.475 81.8809 376.818 82.0226 377.071 82.2749C377.325 82.5273 377.467 82.8695 377.467 83.2263C377.467 83.5842 377.325 83.9275 377.072 84.1816C376.819 84.4356 376.476 84.5798 376.117 84.5827Z" fill="white" stroke="#2E353A" stroke-miterlimit="10"/>
<path d="M387.349 84.2436C388.004 84.2436 388.535 83.7147 388.535 83.0622C388.535 82.4098 388.004 81.8809 387.349 81.8809C386.694 81.8809 386.163 82.4098 386.163 83.0622C386.163 83.7147 386.694 84.2436 387.349 84.2436Z" fill="white" stroke="#2E353A" stroke-miterlimit="10"/>
<path d="M393.454 83.06C393.454 82.8242 393.383 82.5937 393.252 82.3976C393.12 82.2015 392.934 82.0487 392.715 81.9584C392.496 81.8682 392.256 81.8446 392.023 81.8906C391.791 81.9366 391.578 82.0501 391.411 82.2169C391.243 82.3836 391.129 82.5961 391.083 82.8274C391.037 83.0587 391.061 83.2984 391.151 83.5163C391.242 83.7341 391.395 83.9204 391.592 84.0514C391.789 84.1824 392.02 84.2523 392.257 84.2523C392.414 84.2538 392.571 84.2239 392.717 84.1645C392.862 84.1051 392.995 84.0173 393.106 83.9063C393.218 83.7953 393.306 83.6633 393.366 83.518C393.425 83.3727 393.455 83.217 393.454 83.06Z" fill="white" stroke="#2E353A" stroke-miterlimit="10"/>
<path d="M397.176 84.2436C397.83 84.2436 398.361 83.7147 398.361 83.0622C398.361 82.4098 397.83 81.8809 397.176 81.8809C396.521 81.8809 395.99 82.4098 395.99 83.0622C395.99 83.7147 396.521 84.2436 397.176 84.2436Z" fill="white" stroke="#2E353A" stroke-miterlimit="10"/>
<path d="M417.961 45.7146C418.116 46.4667 418.194 47.2329 418.192 48.0008C418.192 48.0992 418.192 48.1867 418.192 48.2852" stroke="#2E353A" stroke-width="0.5" stroke-linecap="round" stroke-linejoin="round"/>
<path d="M400.524 38.496C401.942 37.5667 403.549 36.9643 405.23 36.7329C406.911 36.5015 408.622 36.6468 410.239 37.1583C411.857 37.6699 413.339 38.5347 414.578 39.6896C415.817 40.8445 416.781 42.2605 417.401 43.8341" stroke="#2E353A" stroke-width="0.5" stroke-linecap="round" stroke-linejoin="round"/>
<path d="M403.709 40.1482C403.097 40.3864 402.515 40.6947 401.974 41.067" stroke="#2E353A" stroke-width="0.5" stroke-linecap="round" stroke-linejoin="round"/>
<path d="M415.227 48.2098C415.233 48.1406 415.233 48.0711 415.227 48.002C415.227 45.7652 414.335 43.62 412.747 42.0384C411.16 40.4568 409.007 39.5682 406.761 39.5682C406.32 39.5657 405.879 39.6023 405.444 39.6776" stroke="#2E353A" stroke-width="0.5" stroke-linecap="round" stroke-linejoin="round"/>
<path d="M412.481 48.1455V48.0033C412.481 46.4947 411.88 45.0479 410.809 43.9812C409.738 42.9145 408.286 42.3152 406.772 42.3152C405.524 42.3142 404.312 42.7259 403.324 43.4856" stroke="#2E353A" stroke-width="0.5" stroke-linecap="round" stroke-linejoin="round"/>
<path d="M405.575 45.104C405.211 45.2552 404.88 45.4742 404.598 45.7494" stroke="#2E353A" stroke-width="0.5" stroke-linecap="round" stroke-linejoin="round"/>
<path d="M409.924 48.0802V48.0037C409.924 47.171 409.592 46.3725 409.001 45.7838C408.41 45.195 407.608 44.8643 406.772 44.8643" stroke="#2E353A" stroke-width="0.5" stroke-linecap="round" stroke-linejoin="round"/>
<path d="M335.842 46.3938C335.764 46.9336 335.723 47.4782 335.722 48.0237C335.722 48.1221 335.722 48.2096 335.722 48.3081" stroke="#2E353A" stroke-width="0.5" stroke-linecap="round" stroke-linejoin="round"/>
<path d="M349.413 36.8557C348.666 36.7013 347.904 36.6243 347.141 36.626C344.749 36.6251 342.418 37.372 340.476 38.7615C338.533 40.151 337.078 42.1129 336.314 44.3706" stroke="#2E353A" stroke-width="0.5" stroke-linecap="round" stroke-linejoin="round"/>
<path d="M353.388 38.4973C352.663 38.0212 351.885 37.6285 351.071 37.3269" stroke="#2E353A" stroke-width="0.5" stroke-linecap="round" stroke-linejoin="round"/>
<path d="M346.46 39.6023C346.68 39.6023 346.91 39.6023 347.141 39.6023C348.859 39.6039 350.537 40.1266 351.95 41.1009" stroke="#2E353A" stroke-width="0.5" stroke-linecap="round" stroke-linejoin="round"/>
<path d="M338.686 48.2101C338.686 48.1445 338.686 48.0789 338.686 48.0023C338.687 46.3447 339.177 44.724 340.097 43.3427C341.017 41.9615 342.325 40.8808 343.858 40.2358" stroke="#2E353A" stroke-width="0.5" stroke-linecap="round" stroke-linejoin="round"/>
<path d="M341.42 48.1455V48.0033C341.42 46.4947 342.021 45.0479 343.092 43.9812C344.163 42.9145 345.615 42.3152 347.129 42.3152C348.377 42.3142 349.59 42.7259 350.577 43.4856" stroke="#2E353A" stroke-width="0.5" stroke-linecap="round" stroke-linejoin="round"/>
<path d="M344 48.0788C343.994 48.0537 343.994 48.0274 344 48.0023C343.997 47.385 344.177 46.7805 344.517 46.2649C344.858 45.7493 345.344 45.3457 345.915 45.1048C346.485 44.8639 347.115 44.7965 347.723 44.9111C348.332 45.0257 348.893 45.3172 349.336 45.7489" stroke="#2E353A" stroke-width="0.5" stroke-linecap="round" stroke-linejoin="round"/>
<path d="M203.765 248.126L196.079 232.976C195.984 232.78 195.815 232.63 195.609 232.558C195.404 232.486 195.178 232.499 194.981 232.593C194.789 232.691 194.641 232.86 194.57 233.063C194.498 233.267 194.508 233.49 194.597 233.687L201.953 249.001C201.801 249.152 201.697 249.345 201.654 249.555C201.611 249.765 201.631 249.983 201.712 250.182L209.485 264.709C209.694 265.113 210.364 265.201 210.979 264.906C211.594 264.61 211.934 264.02 211.736 263.604L204.918 248.607C204.791 248.426 204.616 248.284 204.412 248.199C204.207 248.114 203.983 248.088 203.765 248.126Z" fill="#2E353A"/>
<path d="M246.334 248.125L254.02 232.975C254.063 232.869 254.128 232.774 254.21 232.694C254.292 232.614 254.389 232.552 254.496 232.511C254.603 232.471 254.718 232.452 254.832 232.458C254.947 232.463 255.059 232.492 255.162 232.542C255.265 232.593 255.356 232.664 255.43 232.751C255.504 232.838 255.559 232.94 255.592 233.049C255.625 233.158 255.635 233.273 255.622 233.387C255.608 233.5 255.571 233.61 255.513 233.708L248.168 249.022C248.318 249.175 248.42 249.369 248.461 249.579C248.502 249.788 248.48 250.006 248.398 250.204L240.625 264.73C240.416 265.135 239.757 265.222 239.131 264.927C238.505 264.632 238.176 264.041 238.374 263.625L245.192 248.628C245.315 248.445 245.487 248.3 245.69 248.211C245.892 248.122 246.115 248.092 246.334 248.125Z" fill="#2E353A"/>
<path d="M249.266 265.388H200.998L204.61 259.273H245.642L249.266 265.388Z" fill="white" stroke="#2E353A" stroke-linecap="round" stroke-linejoin="round"/>
<path d="M249.266 265.387H200.998V271.513H249.266V265.387Z" fill="white" stroke="#2E353A" stroke-linecap="round" stroke-linejoin="round"/>
<path d="M224.297 267.105H205.73C204.985 267.105 204.38 267.707 204.38 268.45V268.461C204.38 269.204 204.985 269.807 205.73 269.807H224.297C225.043 269.807 225.648 269.204 225.648 268.461V268.45C225.648 267.707 225.043 267.105 224.297 267.105Z" fill="white" stroke="#2E353A" stroke-miterlimit="10"/>
<path d="M235.519 269.477C236.174 269.477 236.705 268.948 236.705 268.296C236.705 267.643 236.174 267.115 235.519 267.115C234.864 267.115 234.333 267.643 234.333 268.296C234.333 268.948 234.864 269.477 235.519 269.477Z" fill="white" stroke="#2E353A" stroke-miterlimit="10"/>
<path d="M241.624 268.297C241.626 268.06 241.557 267.828 241.426 267.63C241.296 267.433 241.109 267.278 240.89 267.187C240.671 267.095 240.429 267.07 240.196 267.116C239.963 267.162 239.749 267.276 239.581 267.443C239.412 267.61 239.298 267.824 239.252 268.056C239.207 268.288 239.231 268.529 239.323 268.747C239.415 268.966 239.57 269.152 239.769 269.282C239.967 269.412 240.2 269.48 240.438 269.478C240.752 269.478 241.054 269.354 241.276 269.132C241.499 268.911 241.624 268.61 241.624 268.297Z" fill="white" stroke="#2E353A" stroke-miterlimit="10"/>
<path d="M245.346 269.477C246.001 269.477 246.532 268.948 246.532 268.296C246.532 267.643 246.001 267.115 245.346 267.115C244.691 267.115 244.16 267.643 244.16 268.296C244.16 268.948 244.691 269.477 245.346 269.477Z" fill="white" stroke="#2E353A" stroke-miterlimit="10"/>
<path d="M260.652 223.371C262.388 224.368 263.83 225.803 264.834 227.531C265.838 229.259 266.369 231.219 266.372 233.216C266.372 233.314 266.372 233.402 266.372 233.5" stroke="#2E353A" stroke-width="0.5" stroke-linecap="round" stroke-linejoin="round"/>
<path d="M248.695 223.72C250.554 222.505 252.73 221.859 254.953 221.861C256.213 221.856 257.464 222.063 258.654 222.473" stroke="#2E353A" stroke-width="0.5" stroke-linecap="round" stroke-linejoin="round"/>
<path d="M253.471 224.923C252.289 225.144 251.167 225.61 250.177 226.291" stroke="#2E353A" stroke-width="0.5" stroke-linecap="round" stroke-linejoin="round"/>
<path d="M263.463 233.445C263.463 233.38 263.463 233.314 263.463 233.237C263.459 231.146 262.677 229.13 261.267 227.58C259.858 226.03 257.921 225.056 255.832 224.847" stroke="#2E353A" stroke-width="0.5" stroke-linecap="round" stroke-linejoin="round"/>
<path d="M259.071 229.279C258.541 228.73 257.905 228.294 257.201 227.997C256.497 227.7 255.74 227.548 254.975 227.551C253.726 227.551 252.512 227.959 251.517 228.71" stroke="#2E353A" stroke-width="0.5" stroke-linecap="round" stroke-linejoin="round"/>
<path d="M260.652 233.368C260.652 233.368 260.652 233.28 260.652 233.225C260.647 232.474 260.494 231.73 260.202 231.038" stroke="#2E353A" stroke-width="0.5" stroke-linecap="round" stroke-linejoin="round"/>
<path d="M254.185 230.165C253.652 230.3 253.164 230.571 252.769 230.952" stroke="#2E353A" stroke-width="0.5" stroke-linecap="round" stroke-linejoin="round"/>
<path d="M258.094 233.304C258.094 233.304 258.094 233.304 258.094 233.227C258.103 232.533 257.881 231.855 257.462 231.301C257.042 230.746 256.449 230.347 255.777 230.165" stroke="#2E353A" stroke-width="0.5" stroke-linecap="round" stroke-linejoin="round"/>
<path d="M184.056 231.323C183.946 231.951 183.891 232.588 183.892 233.226C183.892 233.325 183.892 233.412 183.892 233.511" stroke="#2E353A" stroke-width="0.5" stroke-linecap="round" stroke-linejoin="round"/>
<path d="M190.809 222.768C189.405 223.375 188.136 224.254 187.076 225.355C186.017 226.455 185.188 227.755 184.638 229.178" stroke="#2E353A" stroke-width="0.5" stroke-linecap="round" stroke-linejoin="round"/>
<path d="M201.558 223.72C199.703 222.506 197.531 221.859 195.31 221.861C194.54 221.858 193.771 221.935 193.016 222.09" stroke="#2E353A" stroke-width="0.5" stroke-linecap="round" stroke-linejoin="round"/>
<path d="M188.92 227.703C190.287 226.139 192.185 225.13 194.25 224.87C196.316 224.61 198.405 225.116 200.12 226.292" stroke="#2E353A" stroke-width="0.5" stroke-linecap="round" stroke-linejoin="round"/>
<path d="M186.856 233.444C186.856 233.378 186.856 233.313 186.856 233.236C186.857 231.988 187.134 230.755 187.668 229.626" stroke="#2E353A" stroke-width="0.5" stroke-linecap="round" stroke-linejoin="round"/>
<path d="M191.226 229.257C192.199 228.268 193.502 227.666 194.888 227.566C196.275 227.465 197.651 227.872 198.758 228.71" stroke="#2E353A" stroke-width="0.5" stroke-linecap="round" stroke-linejoin="round"/>
<path d="M189.612 233.368C189.612 233.368 189.612 233.28 189.612 233.225C189.609 232.377 189.801 231.539 190.172 230.775" stroke="#2E353A" stroke-width="0.5" stroke-linecap="round" stroke-linejoin="round"/>
<path d="M193.246 230.853C193.844 230.345 194.609 230.077 195.394 230.099C196.179 230.121 196.927 230.433 197.495 230.973" stroke="#2E353A" stroke-width="0.5" stroke-linecap="round" stroke-linejoin="round"/>
<path d="M192.17 233.304C192.17 233.304 192.17 233.304 192.17 233.228C192.17 232.712 192.299 232.205 192.544 231.751" stroke="#2E353A" stroke-width="0.5" stroke-linecap="round" stroke-linejoin="round"/>
<path d="M25.5503 155.878L17.8644 140.728C17.8213 140.623 17.7567 140.527 17.6747 140.447C17.5928 140.367 17.4952 140.305 17.3881 140.264C17.2809 140.224 17.1665 140.206 17.052 140.211C16.9375 140.216 16.8254 140.245 16.7225 140.296C16.6197 140.346 16.5284 140.417 16.4544 140.504C16.3803 140.591 16.3251 140.693 16.2921 140.802C16.2591 140.912 16.2491 141.027 16.2627 141.14C16.2763 141.253 16.3132 141.363 16.3711 141.461L23.7167 156.775C23.5639 156.929 23.4573 157.122 23.4088 157.333C23.3603 157.543 23.3718 157.763 23.4422 157.968L31.216 172.494C31.4246 172.899 32.0834 172.987 32.7092 172.68C33.3351 172.374 33.6645 171.805 33.4559 171.39L26.6483 156.393C26.5305 156.215 26.3656 156.072 26.1719 155.982C25.9782 155.891 25.7631 155.855 25.5503 155.878Z" fill="#2E353A"/>
<path d="M68.1085 155.881L75.7944 140.731C75.8892 140.535 76.0581 140.385 76.2639 140.313C76.4698 140.241 76.6958 140.254 76.8924 140.348C77.0848 140.447 77.2319 140.615 77.3034 140.819C77.3749 141.022 77.3653 141.245 77.2767 141.442L69.9201 156.756C70.0881 156.904 70.2065 157.1 70.2595 157.317C70.3125 157.534 70.2975 157.762 70.2166 157.97L62.4428 172.497C62.2342 172.901 61.5644 172.989 60.9496 172.683C60.3347 172.376 59.9943 171.808 60.1919 171.392L67.0105 156.395C67.1274 156.216 67.2921 156.073 67.4861 155.982C67.68 155.892 67.8956 155.856 68.1085 155.881Z" fill="#2E353A"/>
<path d="M71.0508 173.14H22.7832L26.3956 167.015H67.4274L71.0508 173.14Z" fill="white" stroke="#2E353A" stroke-linecap="round" stroke-linejoin="round"/>
<path d="M71.0401 173.14H22.7725V179.266H71.0401V173.14Z" fill="white" stroke="#2E353A" stroke-linecap="round" stroke-linejoin="round"/>
<path d="M46.0606 177.562H27.5156C27.1564 177.559 26.8129 177.415 26.5599 177.161C26.307 176.907 26.165 176.563 26.165 176.206C26.165 175.849 26.3073 175.507 26.5606 175.254C26.8139 175.002 27.1574 174.86 27.5156 174.86H46.0606C46.4188 174.86 46.7623 175.002 47.0156 175.254C47.2689 175.507 47.4111 175.849 47.4111 176.206C47.4112 176.563 47.2692 176.907 47.0163 177.161C46.7633 177.415 46.4198 177.559 46.0606 177.562Z" fill="white" stroke="#2E353A" stroke-miterlimit="10"/>
<path d="M57.304 177.223C57.9589 177.223 58.4898 176.694 58.4898 176.041C58.4898 175.389 57.9589 174.86 57.304 174.86C56.6491 174.86 56.1182 175.389 56.1182 176.041C56.1182 176.694 56.6491 177.223 57.304 177.223Z" fill="white" stroke="#2E353A" stroke-miterlimit="10"/>
<path d="M62.2122 177.223C62.8671 177.223 63.398 176.694 63.398 176.041C63.398 175.389 62.8671 174.86 62.2122 174.86C61.5573 174.86 61.0264 175.389 61.0264 176.041C61.0264 176.694 61.5573 177.223 62.2122 177.223Z" fill="white" stroke="#2E353A" stroke-miterlimit="10"/>
<path d="M68.317 176.039C68.3169 175.803 68.2465 175.572 68.1145 175.376C67.9825 175.179 67.7949 175.027 67.5756 174.937C67.3562 174.847 67.115 174.824 66.8826 174.871C66.6501 174.918 66.4369 175.032 66.27 175.2C66.1031 175.368 65.9899 175.581 65.945 175.813C65.9001 176.045 65.9254 176.285 66.0176 176.503C66.1099 176.721 66.265 176.906 66.4632 177.036C66.6615 177.166 66.894 177.234 67.1311 177.232C67.2878 177.232 67.4429 177.201 67.5875 177.141C67.7321 177.08 67.8633 176.992 67.9735 176.882C68.0838 176.771 68.1709 176.639 68.2299 176.495C68.2888 176.35 68.3184 176.195 68.317 176.039Z" fill="white" stroke="#2E353A" stroke-miterlimit="10"/>
<path d="M87.5205 137.252C87.936 138.452 88.1475 139.713 88.1464 140.982C88.1464 141.08 88.1464 141.168 88.1464 141.266" stroke="#2E353A" stroke-width="0.5" stroke-linecap="round" stroke-linejoin="round"/>
<path d="M79.0005 129.825C80.7479 130.177 82.3891 130.929 83.7937 132.023C85.1984 133.117 86.3279 134.521 87.0927 136.126" stroke="#2E353A" stroke-width="0.5" stroke-linecap="round" stroke-linejoin="round"/>
<path d="M70.48 131.476C72.0037 130.475 73.7478 129.855 75.5637 129.671" stroke="#2E353A" stroke-width="0.5" stroke-linecap="round" stroke-linejoin="round"/>
<path d="M83.0962 135.425C81.7304 133.868 79.8367 132.867 77.777 132.613C75.7172 132.359 73.6356 132.869 71.9297 134.047" stroke="#2E353A" stroke-width="0.5" stroke-linecap="round" stroke-linejoin="round"/>
<path d="M85.1821 141.189C85.1878 141.12 85.1878 141.05 85.1821 140.981C85.1836 139.63 84.8598 138.298 84.2378 137.098" stroke="#2E353A" stroke-width="0.5" stroke-linecap="round" stroke-linejoin="round"/>
<path d="M75.5531 135.422C74.7226 135.612 73.9457 135.985 73.2803 136.516" stroke="#2E353A" stroke-width="0.5" stroke-linecap="round" stroke-linejoin="round"/>
<path d="M82.4371 141.123V140.981C82.4377 139.688 81.995 138.433 81.1824 137.425C80.3697 136.416 79.2358 135.714 77.9683 135.435" stroke="#2E353A" stroke-width="0.5" stroke-linecap="round" stroke-linejoin="round"/>
<path d="M79.2092 139.047C78.9388 138.701 78.598 138.415 78.2091 138.209C77.8203 138.003 77.3921 137.881 76.9527 137.851C76.5132 137.821 76.0724 137.884 75.659 138.035C75.2456 138.187 74.869 138.423 74.5537 138.73" stroke="#2E353A" stroke-width="0.5" stroke-linecap="round" stroke-linejoin="round"/>
<path d="M79.8788 141.057V140.981C79.8806 140.673 79.8362 140.367 79.7471 140.073" stroke="#2E353A" stroke-width="0.5" stroke-linecap="round" stroke-linejoin="round"/>
<path d="M15.0975 129.781C12.4568 130.249 10.0656 131.628 8.34311 133.676C6.62058 135.724 5.67663 138.31 5.67676 140.982C5.67676 141.081 5.67676 141.168 5.67676 141.267" stroke="#2E353A" stroke-width="0.5" stroke-linecap="round" stroke-linejoin="round"/>
<path d="M23.3435 131.474C21.7022 130.402 19.8115 129.77 17.8535 129.637" stroke="#2E353A" stroke-width="0.5" stroke-linecap="round" stroke-linejoin="round"/>
<path d="M18.9624 132.812C20.0117 133.039 21.0095 133.458 21.905 134.048" stroke="#2E353A" stroke-width="0.5" stroke-linecap="round" stroke-linejoin="round"/>
<path d="M8.6416 141.189C8.6416 141.123 8.6416 141.058 8.6416 140.981C8.6416 138.744 9.5335 136.599 11.1211 135.018C12.7087 133.436 14.8619 132.547 17.1071 132.547" stroke="#2E353A" stroke-width="0.5" stroke-linecap="round" stroke-linejoin="round"/>
<path d="M12.6929 137.372C13.6265 136.235 14.9681 135.503 16.4335 135.334C17.899 135.164 19.373 135.57 20.5435 136.465" stroke="#2E353A" stroke-width="0.5" stroke-linecap="round" stroke-linejoin="round"/>
<path d="M11.3862 141.125V140.982C11.3858 140.23 11.539 139.486 11.8364 138.795" stroke="#2E353A" stroke-width="0.5" stroke-linecap="round" stroke-linejoin="round"/>
<path d="M17.6558 137.897C18.2677 138.009 18.833 138.298 19.2808 138.728" stroke="#2E353A" stroke-width="0.5" stroke-linecap="round" stroke-linejoin="round"/>
<path d="M13.9556 141.059C13.9556 141.059 13.9556 141.059 13.9556 140.983C13.9581 140.24 14.2239 139.522 14.706 138.956C15.1882 138.389 15.8557 138.011 16.5907 137.887" stroke="#2E353A" stroke-width="0.5" stroke-linecap="round" stroke-linejoin="round"/>
<path d="M276.705 277.903H178.863V344.683H276.705V277.903Z" fill="#2E353A" stroke="#2E353A" stroke-miterlimit="10"/>
<path d="M291.385 374.207H164.194L178.863 344.683H276.705L291.385 374.207Z" fill="white" stroke="#2E353A" stroke-linecap="round" stroke-linejoin="round"/>
<path d="M270.776 283.187H184.792V339.401H270.776V283.187Z" fill="white" stroke="#2E353A" stroke-miterlimit="10"/>
<path d="M240.669 305.895L227.811 290.745L214.954 305.895H220.334V329.621H235.288V305.895H240.669Z" fill="#BA68C8"/>
<path d="M223.705 354.037L223.869 350.438H218.709L218.357 354.037H223.705Z" fill="white" stroke="#2E353A" stroke-miterlimit="10"/>
<path d="M234.388 354.037L234.213 350.438H229.041L229.052 354.037H234.388Z" fill="white" stroke="#2E353A" stroke-miterlimit="10"/>
<path d="M262.211 357.875H267.745L266.438 354.035H261.102L262.211 357.875Z" fill="white" stroke="#2E353A" stroke-miterlimit="10"/>
<path d="M218.358 354.037L218.709 350.438H213.538L213.021 354.037H218.358Z" fill="white" stroke="#2E353A" stroke-miterlimit="10"/>
<path d="M207.674 354.037L208.366 350.438H203.194L202.338 354.037H207.674Z" fill="white" stroke="#2E353A" stroke-miterlimit="10"/>
<path d="M255.755 354.037L254.887 350.438H249.716L250.419 354.037H255.755Z" fill="white" stroke="#2E353A" stroke-miterlimit="10"/>
<path d="M261.102 354.037L260.059 350.438H254.888L255.755 354.037H261.102Z" fill="white" stroke="#2E353A" stroke-miterlimit="10"/>
<path d="M202.338 354.037L203.194 350.438H198.023L196.991 354.037H202.338Z" fill="white" stroke="#2E353A" stroke-miterlimit="10"/>
<path d="M239.735 354.037L239.384 350.438H234.212L234.388 354.037H239.735Z" fill="white" stroke="#2E353A" stroke-miterlimit="10"/>
<path d="M266.438 354.037L265.231 350.438H260.059L261.102 354.037H266.438Z" fill="white" stroke="#2E353A" stroke-miterlimit="10"/>
<path d="M250.419 354.037L249.716 350.438H244.556L245.072 354.037H250.419Z" fill="white" stroke="#2E353A" stroke-miterlimit="10"/>
<path d="M245.071 354.037L244.555 350.438H239.384L239.735 354.037H245.071Z" fill="white" stroke="#2E353A" stroke-miterlimit="10"/>
<path d="M229.052 354.037L229.041 350.438H223.869L223.705 354.037H229.052Z" fill="white" stroke="#2E353A" stroke-miterlimit="10"/>
<path d="M191.654 354.035H186.307L184.836 357.875H190.359L191.654 354.035Z" fill="white" stroke="#2E353A" stroke-miterlimit="10"/>
<path d="M192.851 350.438H187.691L186.307 354.037H191.654L192.851 350.438Z" fill="white" stroke="#2E353A" stroke-miterlimit="10"/>
<path d="M196.991 354.037L198.023 350.438H192.851L191.654 354.037H196.991Z" fill="white" stroke="#2E353A" stroke-miterlimit="10"/>
<path d="M183.255 362.001L181.553 366.431H187.493L188.975 362.001H183.255Z" fill="white" stroke="#2E353A" stroke-miterlimit="10"/>
<path d="M190.359 357.876H184.836L183.255 362H188.975L190.359 357.876Z" fill="white" stroke="#2E353A" stroke-miterlimit="10"/>
<path d="M188.975 362.001L187.493 366.431H193.433L194.707 362.001H188.975Z" fill="white" stroke="#2E353A" stroke-miterlimit="10"/>
<path d="M213.021 354.037L213.537 350.438H208.366L207.674 354.037H213.021Z" fill="white" stroke="#2E353A" stroke-miterlimit="10"/>
<path d="M212.472 357.875L213.021 354.035H207.674L206.938 357.875H212.472Z" fill="white" stroke="#2E353A" stroke-miterlimit="10"/>
<path d="M206.938 357.875L207.674 354.035H202.338L201.416 357.875H206.938Z" fill="white" stroke="#2E353A" stroke-miterlimit="10"/>
<path d="M217.995 357.875L218.357 354.035H213.021L212.472 357.875H217.995Z" fill="white" stroke="#2E353A" stroke-miterlimit="10"/>
<path d="M196.991 354.035H191.655L190.359 357.875H195.893L196.991 354.035Z" fill="white" stroke="#2E353A" stroke-miterlimit="10"/>
<path d="M263.408 362H269.128L267.745 357.876H262.211L263.408 362Z" fill="white" stroke="#2E353A" stroke-miterlimit="10"/>
<path d="M201.415 357.875L202.338 354.035H196.991L195.893 357.875H201.415Z" fill="white" stroke="#2E353A" stroke-miterlimit="10"/>
<path d="M190.359 357.876L188.976 362H194.707L195.893 357.876H190.359Z" fill="white" stroke="#2E353A" stroke-miterlimit="10"/>
<path d="M251.154 357.875L250.418 354.035H245.071L245.631 357.875H251.154Z" fill="white" stroke="#2E353A" stroke-miterlimit="10"/>
<path d="M245.632 357.875L245.072 354.035H239.735L240.109 357.875H245.632Z" fill="white" stroke="#2E353A" stroke-miterlimit="10"/>
<path d="M262.211 357.875L261.102 354.035H255.755L256.688 357.875H262.211Z" fill="white" stroke="#2E353A" stroke-miterlimit="10"/>
<path d="M229.052 357.875V354.035H223.705L223.518 357.875H229.052Z" fill="white" stroke="#2E353A" stroke-miterlimit="10"/>
<path d="M240.109 357.875L239.735 354.035H234.388L234.575 357.875H240.109Z" fill="white" stroke="#2E353A" stroke-miterlimit="10"/>
<path d="M234.575 357.875L234.388 354.035H229.052V357.875H234.575Z" fill="white" stroke="#2E353A" stroke-miterlimit="10"/>
<path d="M223.518 357.875L223.705 354.035H218.357L217.995 357.875H223.518Z" fill="white" stroke="#2E353A" stroke-miterlimit="10"/>
<path d="M240.109 357.876L240.504 362H246.236L245.632 357.876H240.109Z" fill="white" stroke="#2E353A" stroke-miterlimit="10"/>
<path d="M245.631 357.876L246.235 362H251.956L251.154 357.876H245.631Z" fill="white" stroke="#2E353A" stroke-miterlimit="10"/>
<path d="M195.893 357.876L194.707 362H200.428L201.416 357.876H195.893Z" fill="white" stroke="#2E353A" stroke-miterlimit="10"/>
<path d="M251.154 357.876L251.956 362H257.676L256.688 357.876H251.154Z" fill="white" stroke="#2E353A" stroke-miterlimit="10"/>
<path d="M229.052 357.876V362H234.783L234.575 357.876H229.052Z" fill="white" stroke="#2E353A" stroke-miterlimit="10"/>
<path d="M256.688 357.876L257.676 362H263.408L262.211 357.876H256.688Z" fill="white" stroke="#2E353A" stroke-miterlimit="10"/>
<path d="M234.575 357.876L234.783 362H240.504L240.109 357.876H234.575Z" fill="white" stroke="#2E353A" stroke-miterlimit="10"/>
<path d="M206.939 357.876L206.148 362H211.879L212.472 357.876H206.939Z" fill="white" stroke="#2E353A" stroke-miterlimit="10"/>
<path d="M201.415 357.876L200.427 362H206.148L206.938 357.876H201.415Z" fill="white" stroke="#2E353A" stroke-miterlimit="10"/>
<path d="M223.518 357.876L223.332 362H229.052V357.876H223.518Z" fill="white" stroke="#2E353A" stroke-miterlimit="10"/>
<path d="M217.995 357.876L217.6 362H223.332L223.518 357.876H217.995Z" fill="white" stroke="#2E353A" stroke-miterlimit="10"/>
<path d="M212.472 357.876L211.879 362H217.6L217.995 357.876H212.472Z" fill="white" stroke="#2E353A" stroke-miterlimit="10"/>
<path d="M256.688 357.875L255.755 354.035H250.419L251.155 357.875H256.688Z" fill="white" stroke="#2E353A" stroke-miterlimit="10"/>
<path d="M192.851 350.438L194.092 346.751H189.096L187.691 350.438H192.851Z" fill="white" stroke="#2E353A" stroke-miterlimit="10"/>
<path d="M187.69 350.438H182.914L181.377 354.037H186.307L187.69 350.438Z" fill="white" stroke="#2E353A" stroke-miterlimit="10"/>
<path d="M189.096 346.751H184.496L182.915 350.438H187.691L189.096 346.751Z" fill="white" stroke="#2E353A" stroke-miterlimit="10"/>
<path d="M186.307 354.035H181.377L179.73 357.875H184.836L186.307 354.035Z" fill="white" stroke="#2E353A" stroke-miterlimit="10"/>
<path d="M184.836 357.876H179.73L177.962 362H183.255L184.836 357.876Z" fill="white" stroke="#2E353A" stroke-miterlimit="10"/>
<path d="M183.255 362.001H177.962L176.074 366.431H181.553L183.255 362.001Z" fill="white" stroke="#2E353A" stroke-miterlimit="10"/>
<path d="M271.786 354.035L273.268 357.875H278.154L276.507 354.035H271.786Z" fill="white" stroke="#2E353A" stroke-miterlimit="10"/>
<path d="M274.86 362H279.922L278.154 357.876H273.268L274.86 362Z" fill="white" stroke="#2E353A" stroke-miterlimit="10"/>
<path d="M276.562 366.431H281.811L279.922 362.001H274.86L276.562 366.431Z" fill="white" stroke="#2E353A" stroke-miterlimit="10"/>
<path d="M234.213 350.438L234.037 346.751H229.041V350.438H234.213Z" fill="white" stroke="#2E353A" stroke-miterlimit="10"/>
<path d="M271.786 354.037H276.507L274.97 350.438H270.402L271.786 354.037Z" fill="white" stroke="#2E353A" stroke-miterlimit="10"/>
<path d="M269.129 362H274.86L273.268 357.876H267.745L269.129 362Z" fill="white" stroke="#2E353A" stroke-miterlimit="10"/>
<path d="M198.023 350.438L199.088 346.751H194.092L192.852 350.438H198.023Z" fill="white" stroke="#2E353A" stroke-miterlimit="10"/>
<path d="M265.23 350.438L266.438 354.037H271.785L270.402 350.438H265.23Z" fill="white" stroke="#2E353A" stroke-miterlimit="10"/>
<path d="M274.97 350.438L273.4 346.751H268.975L270.402 350.438H274.97Z" fill="white" stroke="#2E353A" stroke-miterlimit="10"/>
<path d="M270.402 350.438L268.975 346.751H263.99L265.231 350.438H270.402Z" fill="white" stroke="#2E353A" stroke-miterlimit="10"/>
<path d="M251.956 362.001L252.812 366.431H258.753L257.677 362.001H251.956Z" fill="white" stroke="#2E353A" stroke-miterlimit="10"/>
<path d="M270.622 366.431H276.562L274.86 362.001H269.128L270.622 366.431Z" fill="white" stroke="#2E353A" stroke-miterlimit="10"/>
<path d="M265.231 350.438L263.99 346.751H258.994L260.059 350.438H265.231Z" fill="white" stroke="#2E353A" stroke-miterlimit="10"/>
<path d="M263.408 362.001L264.682 366.431H270.622L269.129 362.001H263.408Z" fill="white" stroke="#2E353A" stroke-miterlimit="10"/>
<path d="M257.676 362.001L258.752 366.431H264.681L263.408 362.001H257.676Z" fill="white" stroke="#2E353A" stroke-miterlimit="10"/>
<path d="M267.745 357.875H273.268L271.786 354.035H266.438L267.745 357.875Z" fill="white" stroke="#2E353A" stroke-miterlimit="10"/>
<path d="M218.709 350.438L219.06 346.751H214.064L213.537 350.438H218.709Z" fill="white" stroke="#2E353A" stroke-miterlimit="10"/>
<path d="M260.059 350.438L258.994 346.751H253.998L254.887 350.438H260.059Z" fill="white" stroke="#2E353A" stroke-miterlimit="10"/>
<path d="M213.537 350.438L214.064 346.751H209.068L208.366 350.438H213.537Z" fill="white" stroke="#2E353A" stroke-miterlimit="10"/>
<path d="M229.041 350.438V346.751H224.045L223.869 350.438H229.041Z" fill="white" stroke="#2E353A" stroke-miterlimit="10"/>
<path d="M208.366 350.438L209.069 346.751H204.073L203.194 350.438H208.366Z" fill="white" stroke="#2E353A" stroke-miterlimit="10"/>
<path d="M203.194 350.438L204.072 346.751H199.088L198.022 350.438H203.194Z" fill="white" stroke="#2E353A" stroke-miterlimit="10"/>
<path d="M223.87 350.438L224.045 346.751H219.06L218.709 350.438H223.87Z" fill="white" stroke="#2E353A" stroke-miterlimit="10"/>
<path d="M254.888 350.438L253.999 346.751H249.014L249.716 350.438H254.888Z" fill="white" stroke="#2E353A" stroke-miterlimit="10"/>
<path d="M249.716 350.438L249.013 346.751H244.018L244.556 350.438H249.716Z" fill="white" stroke="#2E353A" stroke-miterlimit="10"/>
<path d="M239.384 350.438L239.022 346.751H234.037L234.213 350.438H239.384Z" fill="white" stroke="#2E353A" stroke-miterlimit="10"/>
<path d="M251.956 362.001H246.235H240.504H234.783H229.052H223.331H217.6H211.879H206.148H200.427H194.707L193.433 366.431H199.373H205.302H211.242H217.183H223.123H229.052H234.992H240.932H246.872H252.812L251.956 362.001Z" fill="white" stroke="#2E353A" stroke-miterlimit="10"/>
<path d="M244.555 350.438L244.017 346.751H239.021L239.384 350.438H244.555Z" fill="white" stroke="#2E353A" stroke-miterlimit="10"/>
<path d="M291.44 374.207H164.194V376.001H291.44V374.207Z" fill="#2E353A" stroke="#2E353A" stroke-miterlimit="10"/>
<path d="M312.707 277.903H387.371V344.683H312.707C312.236 344.683 311.783 344.497 311.45 344.164C311.116 343.832 310.929 343.381 310.929 342.911V279.686C310.927 279.452 310.972 279.22 311.061 279.004C311.15 278.788 311.28 278.591 311.446 278.425C311.611 278.26 311.808 278.128 312.024 278.038C312.241 277.949 312.473 277.903 312.707 277.903Z" fill="white" stroke="#2E353A" stroke-linecap="round" stroke-linejoin="round"/>
<path d="M389.94 277.903H312.938V344.683H389.94V277.903Z" fill="#2E353A" stroke="#2E353A" stroke-miterlimit="10"/>
<path d="M385.735 283.187H318.868V339.401H385.735V283.187Z" fill="white" stroke="#2E353A" stroke-linecap="round" stroke-linejoin="round"/>
<path d="M341.706 305.895L351.675 290.745L361.645 305.895H357.473V329.621H345.878V305.895H341.706Z" fill="#BA68C8"/>
<path d="M312.938 344.683L371.307 361.496H450L389.94 344.683H312.938Z" fill="white" stroke="#2E353A" stroke-linecap="round" stroke-linejoin="round"/>
<path d="M375.271 351.334L367.97 349.267L364.774 349.234L372.054 351.312L375.271 351.334Z" fill="white" stroke="#2E353A" stroke-width="0.25" stroke-miterlimit="10"/>
<path d="M381.629 351.39L374.305 349.333L371.154 349.301L378.455 351.368L381.629 351.39Z" fill="white" stroke="#2E353A" stroke-width="0.25" stroke-miterlimit="10"/>
<path d="M404.708 353.567L407.761 353.589L400.174 351.521L397.132 351.5L404.708 353.567Z" fill="white" stroke="#2E353A" stroke-width="0.25" stroke-miterlimit="10"/>
<path d="M372.054 351.313L364.775 349.234L361.558 349.201L368.815 351.291L372.054 351.313Z" fill="white" stroke="#2E353A" stroke-width="0.25" stroke-miterlimit="10"/>
<path d="M365.565 351.269L358.307 349.179L355.046 349.146L362.282 351.247L365.565 351.269Z" fill="white" stroke="#2E353A" stroke-width="0.25" stroke-miterlimit="10"/>
<path d="M394.08 351.477L386.702 349.442L383.638 349.42L390.995 351.455L394.08 351.477Z" fill="white" stroke="#2E353A" stroke-width="0.25" stroke-miterlimit="10"/>
<path d="M397.132 351.498L389.743 349.474L386.701 349.441L394.08 351.476L397.132 351.498Z" fill="white" stroke="#2E353A" stroke-width="0.25" stroke-miterlimit="10"/>
<path d="M362.282 351.247L355.046 349.147L351.752 349.114L358.966 351.225L362.282 351.247Z" fill="white" stroke="#2E353A" stroke-width="0.25" stroke-miterlimit="10"/>
<path d="M384.769 351.411L377.434 349.355L374.305 349.333L381.629 351.389L384.769 351.411Z" fill="white" stroke="#2E353A" stroke-width="0.25" stroke-miterlimit="10"/>
<path d="M400.174 351.521L392.773 349.508L389.743 349.476L397.132 351.499L400.174 351.521Z" fill="white" stroke="#2E353A" stroke-width="0.25" stroke-miterlimit="10"/>
<path d="M390.994 351.455L383.638 349.421L380.542 349.388L387.898 351.433L390.994 351.455Z" fill="white" stroke="#2E353A" stroke-width="0.25" stroke-miterlimit="10"/>
<path d="M387.898 351.434L380.541 349.389L377.434 349.356L384.769 351.412L387.898 351.434Z" fill="white" stroke="#2E353A" stroke-width="0.25" stroke-miterlimit="10"/>
<path d="M378.456 351.368L371.154 349.301L367.97 349.268L375.271 351.335L378.456 351.368Z" fill="white" stroke="#2E353A" stroke-width="0.25" stroke-miterlimit="10"/>
<path d="M355.639 351.192L352.279 351.17L359.658 353.347L363.029 353.369L355.639 351.192Z" fill="white" stroke="#2E353A" stroke-width="0.25" stroke-miterlimit="10"/>
<path d="M348.437 349.08L345.099 349.047L352.279 351.169L355.639 351.191L348.437 349.08Z" fill="white" stroke="#2E353A" stroke-width="0.25" stroke-miterlimit="10"/>
<path d="M358.966 351.226L351.752 349.115L348.437 349.082L355.639 351.193L358.966 351.226Z" fill="white" stroke="#2E353A" stroke-width="0.25" stroke-miterlimit="10"/>
<path d="M367.223 355.578L375.007 357.875H378.411L370.615 355.589L367.223 355.578Z" fill="white" stroke="#2E353A" stroke-width="0.25" stroke-miterlimit="10"/>
<path d="M363.029 353.369L359.658 353.347L367.223 355.578L370.616 355.589L363.029 353.369Z" fill="white" stroke="#2E353A" stroke-width="0.25" stroke-miterlimit="10"/>
<path d="M370.616 355.588L378.411 357.874H381.793L373.976 355.599L370.616 355.588Z" fill="white" stroke="#2E353A" stroke-width="0.25" stroke-miterlimit="10"/>
<path d="M368.815 351.29L361.557 349.201L358.307 349.179L365.565 351.268L368.815 351.29Z" fill="white" stroke="#2E353A" stroke-width="0.25" stroke-miterlimit="10"/>
<path d="M376.27 353.437L368.815 351.293L365.565 351.271L372.998 353.415L376.27 353.437Z" fill="white" stroke="#2E353A" stroke-width="0.25" stroke-miterlimit="10"/>
<path d="M372.998 353.414L365.565 351.27L362.282 351.249L369.704 353.403L372.998 353.414Z" fill="white" stroke="#2E353A" stroke-width="0.25" stroke-miterlimit="10"/>
<path d="M379.52 353.447L372.054 351.314L368.815 351.292L376.27 353.436L379.52 353.447Z" fill="white" stroke="#2E353A" stroke-width="0.25" stroke-miterlimit="10"/>
<path d="M358.966 351.224L355.639 351.191L363.029 353.368L366.377 353.379L358.966 351.224Z" fill="white" stroke="#2E353A" stroke-width="0.25" stroke-miterlimit="10"/>
<path d="M412.482 355.701L415.534 355.712L407.76 353.589L404.708 353.568L412.482 355.701Z" fill="white" stroke="#2E353A" stroke-width="0.25" stroke-miterlimit="10"/>
<path d="M369.704 353.404L362.282 351.249L358.966 351.228L366.377 353.382L369.704 353.404Z" fill="white" stroke="#2E353A" stroke-width="0.25" stroke-miterlimit="10"/>
<path d="M363.029 353.37L370.616 355.59L373.976 355.601L366.378 353.381L363.029 353.37Z" fill="white" stroke="#2E353A" stroke-width="0.25" stroke-miterlimit="10"/>
<path d="M398.548 353.544L390.994 351.455L387.898 351.433L395.43 353.522L398.548 353.544Z" fill="white" stroke="#2E353A" stroke-width="0.25" stroke-miterlimit="10"/>
<path d="M395.43 353.523L387.898 351.434L384.769 351.412L392.301 353.512L395.43 353.523Z" fill="white" stroke="#2E353A" stroke-width="0.25" stroke-miterlimit="10"/>
<path d="M404.708 353.566L397.132 351.499L394.08 351.477L401.645 353.555L404.708 353.566Z" fill="white" stroke="#2E353A" stroke-width="0.25" stroke-miterlimit="10"/>
<path d="M385.955 353.48L378.456 351.369L375.271 351.336L382.749 353.458L385.955 353.48Z" fill="white" stroke="#2E353A" stroke-width="0.25" stroke-miterlimit="10"/>
<path d="M392.301 353.511L384.769 351.411L381.628 351.389L389.139 353.489L392.301 353.511Z" fill="white" stroke="#2E353A" stroke-width="0.25" stroke-miterlimit="10"/>
<path d="M389.139 353.491L381.629 351.39L378.456 351.368L385.955 353.48L389.139 353.491Z" fill="white" stroke="#2E353A" stroke-width="0.25" stroke-miterlimit="10"/>
<path d="M382.749 353.459L375.271 351.337L372.054 351.315L379.521 353.448L382.749 353.459Z" fill="white" stroke="#2E353A" stroke-width="0.25" stroke-miterlimit="10"/>
<path d="M392.301 353.512L400.02 355.667L403.171 355.678L395.43 353.523L392.301 353.512Z" fill="white" stroke="#2E353A" stroke-width="0.25" stroke-miterlimit="10"/>
<path d="M395.43 353.524L403.171 355.679L406.289 355.69L398.548 353.546L395.43 353.524Z" fill="white" stroke="#2E353A" stroke-width="0.25" stroke-miterlimit="10"/>
<path d="M366.377 353.379L373.976 355.6L377.324 355.611L369.704 353.401L366.377 353.379Z" fill="white" stroke="#2E353A" stroke-width="0.25" stroke-miterlimit="10"/>
<path d="M398.549 353.545L406.29 355.689H409.397L401.645 353.556L398.549 353.545Z" fill="white" stroke="#2E353A" stroke-width="0.25" stroke-miterlimit="10"/>
<path d="M385.955 353.478L393.652 355.644L396.847 355.655L389.139 353.489L385.955 353.478Z" fill="white" stroke="#2E353A" stroke-width="0.25" stroke-miterlimit="10"/>
<path d="M401.645 353.556L409.397 355.689L412.482 355.7L404.708 353.567L401.645 353.556Z" fill="white" stroke="#2E353A" stroke-width="0.25" stroke-miterlimit="10"/>
<path d="M389.139 353.49L396.847 355.655L400.02 355.666L392.301 353.511L389.139 353.49Z" fill="white" stroke="#2E353A" stroke-width="0.25" stroke-miterlimit="10"/>
<path d="M372.998 353.413L380.629 355.623H383.923L376.27 353.435L372.998 353.413Z" fill="white" stroke="#2E353A" stroke-width="0.25" stroke-miterlimit="10"/>
<path d="M369.704 353.402L377.324 355.612L380.629 355.623L372.998 353.413L369.704 353.402Z" fill="white" stroke="#2E353A" stroke-width="0.25" stroke-miterlimit="10"/>
<path d="M382.749 353.457L390.434 355.645H393.652L385.955 353.479L382.749 353.457Z" fill="white" stroke="#2E353A" stroke-width="0.25" stroke-miterlimit="10"/>
<path d="M379.521 353.446L387.195 355.634L390.435 355.644L382.749 353.457L379.521 353.446Z" fill="white" stroke="#2E353A" stroke-width="0.25" stroke-miterlimit="10"/>
<path d="M376.271 353.434L383.923 355.622L387.196 355.633L379.521 353.445L376.271 353.434Z" fill="white" stroke="#2E353A" stroke-width="0.25" stroke-miterlimit="10"/>
<path d="M401.645 353.556L394.08 351.478L390.995 351.456L398.549 353.545L401.645 353.556Z" fill="white" stroke="#2E353A" stroke-width="0.25" stroke-miterlimit="10"/>
<path d="M348.436 349.081L340.761 346.828L337.445 346.795L345.098 349.048L348.436 349.081Z" fill="white" stroke="#2E353A" stroke-width="0.25" stroke-miterlimit="10"/>
<path d="M345.099 349.05L341.991 349.017L349.161 351.15L352.279 351.172L345.099 349.05Z" fill="white" stroke="#2E353A" stroke-width="0.25" stroke-miterlimit="10"/>
<path d="M337.446 346.795L334.36 346.751L341.991 349.016L345.099 349.048L337.446 346.795Z" fill="white" stroke="#2E353A" stroke-width="0.25" stroke-miterlimit="10"/>
<path d="M352.279 351.17L349.161 351.148L356.518 353.335L359.658 353.346L352.279 351.17Z" fill="white" stroke="#2E353A" stroke-width="0.25" stroke-miterlimit="10"/>
<path d="M359.658 353.346L356.518 353.335L364.072 355.578H367.223L359.658 353.346Z" fill="white" stroke="#2E353A" stroke-width="0.25" stroke-miterlimit="10"/>
<path d="M367.223 355.578H364.072L371.835 357.875H375.008L367.223 355.578Z" fill="white" stroke="#2E353A" stroke-width="0.25" stroke-miterlimit="10"/>
<path d="M403.193 351.543L410.791 353.6L413.448 353.622L405.839 351.565L403.193 351.543Z" fill="white" stroke="#2E353A" stroke-width="0.25" stroke-miterlimit="10"/>
<path d="M418.576 355.711L421.244 355.722L413.448 353.622L410.791 353.6L418.576 355.711Z" fill="white" stroke="#2E353A" stroke-width="0.25" stroke-miterlimit="10"/>
<path d="M426.569 357.877H429.237L421.244 355.722L418.576 355.711L426.569 357.877Z" fill="white" stroke="#2E353A" stroke-width="0.25" stroke-miterlimit="10"/>
<path d="M374.305 349.335L366.487 347.136L363.347 347.103L371.154 349.302L374.305 349.335Z" fill="white" stroke="#2E353A" stroke-width="0.25" stroke-miterlimit="10"/>
<path d="M403.193 351.542L405.839 351.563L398.417 349.562L395.771 349.529L403.193 351.542Z" fill="white" stroke="#2E353A" stroke-width="0.25" stroke-miterlimit="10"/>
<path d="M415.534 355.71H418.576L410.791 353.599L407.761 353.588L415.534 355.71Z" fill="white" stroke="#2E353A" stroke-width="0.25" stroke-miterlimit="10"/>
<path d="M351.752 349.116L344.055 346.873L340.761 346.829L348.436 349.083L351.752 349.116Z" fill="white" stroke="#2E353A" stroke-width="0.25" stroke-miterlimit="10"/>
<path d="M392.773 349.508L400.173 351.521L403.193 351.542L395.77 349.53L392.773 349.508Z" fill="white" stroke="#2E353A" stroke-width="0.25" stroke-miterlimit="10"/>
<path d="M398.416 349.562L390.489 347.418L387.865 347.385L395.77 349.529L398.416 349.562Z" fill="white" stroke="#2E353A" stroke-width="0.25" stroke-miterlimit="10"/>
<path d="M395.771 349.531L387.865 347.387L384.868 347.354L392.773 349.509L395.771 349.531Z" fill="white" stroke="#2E353A" stroke-width="0.25" stroke-miterlimit="10"/>
<path d="M406.289 355.689L414.239 357.876H417.357L409.396 355.689H406.289Z" fill="white" stroke="#2E353A" stroke-width="0.25" stroke-miterlimit="10"/>
<path d="M423.517 357.877H426.569L418.576 355.711H415.535L423.517 357.877Z" fill="white" stroke="#2E353A" stroke-width="0.25" stroke-miterlimit="10"/>
<path d="M392.773 349.508L384.867 347.353L381.859 347.32L389.742 349.475L392.773 349.508Z" fill="white" stroke="#2E353A" stroke-width="0.25" stroke-miterlimit="10"/>
<path d="M412.482 355.698L420.442 357.875H423.517L415.534 355.709L412.482 355.698Z" fill="white" stroke="#2E353A" stroke-width="0.25" stroke-miterlimit="10"/>
<path d="M409.396 355.689L417.357 357.876H420.442L412.482 355.7L409.396 355.689Z" fill="white" stroke="#2E353A" stroke-width="0.25" stroke-miterlimit="10"/>
<path d="M407.76 353.59L410.791 353.601L403.193 351.544L400.173 351.522L407.76 353.59Z" fill="white" stroke="#2E353A" stroke-width="0.25" stroke-miterlimit="10"/>
<path d="M364.775 349.235L357.012 347.025L353.806 346.981L361.557 349.202L364.775 349.235Z" fill="white" stroke="#2E353A" stroke-width="0.25" stroke-miterlimit="10"/>
<path d="M389.743 349.473L381.859 347.318L378.829 347.274L386.701 349.44L389.743 349.473Z" fill="white" stroke="#2E353A" stroke-width="0.25" stroke-miterlimit="10"/>
<path d="M361.557 349.203L353.805 346.982L350.577 346.949L358.307 349.181L361.557 349.203Z" fill="white" stroke="#2E353A" stroke-width="0.25" stroke-miterlimit="10"/>
<path d="M371.154 349.302L363.347 347.103L360.196 347.059L367.97 349.269L371.154 349.302Z" fill="white" stroke="#2E353A" stroke-width="0.25" stroke-miterlimit="10"/>
<path d="M358.307 349.181L350.577 346.949L347.327 346.905L355.046 349.148L358.307 349.181Z" fill="white" stroke="#2E353A" stroke-width="0.25" stroke-miterlimit="10"/>
<path d="M355.046 349.146L347.327 346.904L344.055 346.871L351.752 349.114L355.046 349.146Z" fill="white" stroke="#2E353A" stroke-width="0.25" stroke-miterlimit="10"/>
<path d="M367.97 349.268L360.196 347.058L357.012 347.025L364.774 349.235L367.97 349.268Z" fill="white" stroke="#2E353A" stroke-width="0.25" stroke-miterlimit="10"/>
<path d="M386.701 349.443L378.829 347.277L375.776 347.244L383.638 349.421L386.701 349.443Z" fill="white" stroke="#2E353A" stroke-width="0.25" stroke-miterlimit="10"/>
<path d="M383.638 349.419L375.777 347.243L372.702 347.21L380.542 349.387L383.638 349.419Z" fill="white" stroke="#2E353A" stroke-width="0.25" stroke-miterlimit="10"/>
<path d="M377.434 349.354L369.606 347.166L366.487 347.134L374.305 349.332L377.434 349.354Z" fill="white" stroke="#2E353A" stroke-width="0.25" stroke-miterlimit="10"/>
<path d="M406.289 355.689L403.171 355.678L400.02 355.667L396.847 355.656L393.652 355.645H390.434L387.195 355.634L383.923 355.623H380.629L377.324 355.612L373.976 355.601L381.793 357.876H385.142H388.48H391.785H395.057H398.318H401.546H404.752H407.936H411.099H414.239L406.289 355.689Z" fill="white" stroke="#2E353A" stroke-width="0.25" stroke-miterlimit="10"/>
<path d="M380.541 349.387L372.702 347.21L369.605 347.166L377.434 349.354L380.541 349.387Z" fill="white" stroke="#2E353A" stroke-width="0.25" stroke-miterlimit="10"/>
<path d="M312.938 344.683V346.915L371.285 364.362L371.307 361.496L312.938 344.683Z" fill="white" stroke="#2E353A" stroke-linecap="round" stroke-linejoin="round"/>
<path d="M450.001 361.497H371.308V364.352H450.001V361.497Z" fill="#2E353A" stroke="#2E353A" stroke-linecap="round" stroke-linejoin="round"/>
<path d="M139.972 344.683H65.3089L65.3089 277.903H139.972C140.444 277.903 140.896 278.089 141.23 278.422C141.564 278.754 141.751 279.205 141.751 279.675V342.9C141.752 343.134 141.707 343.366 141.619 343.582C141.53 343.798 141.399 343.995 141.234 344.16C141.069 344.326 140.872 344.458 140.655 344.547C140.439 344.637 140.207 344.683 139.972 344.683Z" fill="white" stroke="#2E353A" stroke-linecap="round" stroke-linejoin="round"/>
<path d="M62.7397 344.683H139.742V277.903H62.7397L62.7397 344.683Z" fill="#2E353A" stroke="#2E353A" stroke-miterlimit="10"/>
<path d="M66.9445 339.4H133.812V283.187H66.9445V339.4Z" fill="white" stroke="#2E353A" stroke-linecap="round" stroke-linejoin="round"/>
<path d="M106.791 305.895L96.8208 290.745L86.8511 305.895H91.0234V329.621H102.618V305.895H106.791Z" fill="#BA68C8"/>
<path d="M139.741 344.687L81.3721 361.5H2.6792L62.7392 344.687H139.741Z" fill="white" stroke="#2E353A" stroke-linecap="round" stroke-linejoin="round"/>
<path d="M77.4087 351.334L84.7103 349.267L87.9055 349.234L80.6258 351.312L77.4087 351.334Z" fill="white" stroke="#2E353A" stroke-width="0.25" stroke-miterlimit="10"/>
<path d="M71.0508 351.39L78.3744 349.333L81.5256 349.301L74.224 351.368L71.0508 351.39Z" fill="white" stroke="#2E353A" stroke-width="0.25" stroke-miterlimit="10"/>
<path d="M47.9714 353.567L44.9189 353.589L52.5061 351.521L55.5475 351.5L47.9714 353.567Z" fill="white" stroke="#2E353A" stroke-width="0.25" stroke-miterlimit="10"/>
<path d="M80.6255 351.313L87.9052 349.234L91.1223 349.201L83.8646 351.291L80.6255 351.313Z" fill="white" stroke="#2E353A" stroke-width="0.25" stroke-miterlimit="10"/>
<path d="M87.1147 351.269L94.3725 349.179L97.6335 349.146L90.3977 351.247L87.1147 351.269Z" fill="white" stroke="#2E353A" stroke-width="0.25" stroke-miterlimit="10"/>
<path d="M58.6001 351.477L65.9786 349.442L69.042 349.42L61.6855 351.455L58.6001 351.477Z" fill="white" stroke="#2E353A" stroke-width="0.25" stroke-miterlimit="10"/>
<path d="M55.5479 351.498L62.9373 349.474L65.9788 349.441L58.6003 351.476L55.5479 351.498Z" fill="white" stroke="#2E353A" stroke-width="0.25" stroke-miterlimit="10"/>
<path d="M90.3975 351.247L97.6332 349.147L100.927 349.114L93.7134 351.225L90.3975 351.247Z" fill="white" stroke="#2E353A" stroke-width="0.25" stroke-miterlimit="10"/>
<path d="M67.9106 351.411L75.2452 349.355L78.3745 349.333L71.0509 351.389L67.9106 351.411Z" fill="white" stroke="#2E353A" stroke-width="0.25" stroke-miterlimit="10"/>
<path d="M52.5059 351.521L59.9063 349.508L62.9368 349.476L55.5473 351.499L52.5059 351.521Z" fill="white" stroke="#2E353A" stroke-width="0.25" stroke-miterlimit="10"/>
<path d="M61.6851 351.455L69.0416 349.421L72.1379 349.388L64.7814 351.433L61.6851 351.455Z" fill="white" stroke="#2E353A" stroke-width="0.25" stroke-miterlimit="10"/>
<path d="M64.7817 351.434L72.1383 349.389L75.2456 349.356L67.911 351.412L64.7817 351.434Z" fill="white" stroke="#2E353A" stroke-width="0.25" stroke-miterlimit="10"/>
<path d="M74.2241 351.368L81.5258 349.301L84.7099 349.268L77.4083 351.335L74.2241 351.368Z" fill="white" stroke="#2E353A" stroke-width="0.25" stroke-miterlimit="10"/>
<path d="M97.0408 351.192L100.401 351.17L93.0222 353.347L89.6514 353.369L97.0408 351.192Z" fill="white" stroke="#2E353A" stroke-width="0.25" stroke-miterlimit="10"/>
<path d="M104.243 349.08L107.581 349.047L100.4 351.169L97.0405 351.191L104.243 349.08Z" fill="white" stroke="#2E353A" stroke-width="0.25" stroke-miterlimit="10"/>
<path d="M93.7134 351.226L100.927 349.115L104.243 349.082L97.0403 351.193L93.7134 351.226Z" fill="white" stroke="#2E353A" stroke-width="0.25" stroke-miterlimit="10"/>
<path d="M85.4571 355.578L77.6723 357.875H74.2686L82.0643 355.589L85.4571 355.578Z" fill="white" stroke="#2E353A" stroke-width="0.25" stroke-miterlimit="10"/>
<path d="M89.6511 353.369L93.0219 353.347L85.4567 355.578L82.064 355.589L89.6511 353.369Z" fill="white" stroke="#2E353A" stroke-width="0.25" stroke-miterlimit="10"/>
<path d="M82.0642 355.588L74.2685 357.874H70.8867L78.6934 355.599L82.0642 355.588Z" fill="white" stroke="#2E353A" stroke-width="0.25" stroke-miterlimit="10"/>
<path d="M83.8647 351.29L91.1224 349.201L94.3725 349.179L87.1148 351.268L83.8647 351.29Z" fill="white" stroke="#2E353A" stroke-width="0.25" stroke-miterlimit="10"/>
<path d="M76.4092 353.437L83.8645 351.293L87.1146 351.271L79.6812 353.415L76.4092 353.437Z" fill="white" stroke="#2E353A" stroke-width="0.25" stroke-miterlimit="10"/>
<path d="M79.6812 353.414L87.1145 351.27L90.3975 351.249L82.9751 353.403L79.6812 353.414Z" fill="white" stroke="#2E353A" stroke-width="0.25" stroke-miterlimit="10"/>
<path d="M73.1592 353.447L80.6255 351.314L83.8646 351.292L76.4092 353.436L73.1592 353.447Z" fill="white" stroke="#2E353A" stroke-width="0.25" stroke-miterlimit="10"/>
<path d="M93.7137 351.224L97.0406 351.191L89.6511 353.368L86.3022 353.379L93.7137 351.224Z" fill="white" stroke="#2E353A" stroke-width="0.25" stroke-miterlimit="10"/>
<path d="M40.1979 355.701L37.1455 355.712L44.9193 353.589L47.9717 353.568L40.1979 355.701Z" fill="white" stroke="#2E353A" stroke-width="0.25" stroke-miterlimit="10"/>
<path d="M82.9751 353.404L90.3975 351.249L93.7134 351.228L86.302 353.382L82.9751 353.404Z" fill="white" stroke="#2E353A" stroke-width="0.25" stroke-miterlimit="10"/>
<path d="M89.6508 353.37L82.0637 355.59L78.6929 355.601L86.3019 353.381L89.6508 353.37Z" fill="white" stroke="#2E353A" stroke-width="0.25" stroke-miterlimit="10"/>
<path d="M54.1309 353.544L61.685 351.455L64.7814 351.433L57.2492 353.522L54.1309 353.544Z" fill="white" stroke="#2E353A" stroke-width="0.25" stroke-miterlimit="10"/>
<path d="M57.2495 353.523L64.7817 351.434L67.911 351.412L60.3788 353.512L57.2495 353.523Z" fill="white" stroke="#2E353A" stroke-width="0.25" stroke-miterlimit="10"/>
<path d="M47.9717 353.566L55.5478 351.499L58.6002 351.477L51.0351 353.555L47.9717 353.566Z" fill="white" stroke="#2E353A" stroke-width="0.25" stroke-miterlimit="10"/>
<path d="M66.7251 353.48L74.2244 351.369L77.4085 351.336L69.9312 353.458L66.7251 353.48Z" fill="white" stroke="#2E353A" stroke-width="0.25" stroke-miterlimit="10"/>
<path d="M60.3784 353.511L67.9106 351.411L71.0509 351.389L63.5406 353.489L60.3784 353.511Z" fill="white" stroke="#2E353A" stroke-width="0.25" stroke-miterlimit="10"/>
<path d="M63.5405 353.491L71.0508 351.39L74.224 351.368L66.7247 353.48L63.5405 353.491Z" fill="white" stroke="#2E353A" stroke-width="0.25" stroke-miterlimit="10"/>
<path d="M69.9312 353.459L77.4085 351.337L80.6256 351.315L73.1592 353.448L69.9312 353.459Z" fill="white" stroke="#2E353A" stroke-width="0.25" stroke-miterlimit="10"/>
<path d="M60.3784 353.512L52.6595 355.667L49.5083 355.678L57.2491 353.523L60.3784 353.512Z" fill="white" stroke="#2E353A" stroke-width="0.25" stroke-miterlimit="10"/>
<path d="M57.2493 353.524L49.5084 355.679L46.3901 355.69L54.131 353.546L57.2493 353.524Z" fill="white" stroke="#2E353A" stroke-width="0.25" stroke-miterlimit="10"/>
<path d="M86.3019 353.379L78.6929 355.6L75.355 355.611L82.975 353.401L86.3019 353.379Z" fill="white" stroke="#2E353A" stroke-width="0.25" stroke-miterlimit="10"/>
<path d="M54.1313 353.545L46.3905 355.689H43.2832L51.035 353.556L54.1313 353.545Z" fill="white" stroke="#2E353A" stroke-width="0.25" stroke-miterlimit="10"/>
<path d="M66.7251 353.478L59.0282 355.644L55.833 355.655L63.5409 353.489L66.7251 353.478Z" fill="white" stroke="#2E353A" stroke-width="0.25" stroke-miterlimit="10"/>
<path d="M51.0349 353.556L43.2831 355.689L40.1978 355.7L47.9715 353.567L51.0349 353.556Z" fill="white" stroke="#2E353A" stroke-width="0.25" stroke-miterlimit="10"/>
<path d="M63.5407 353.49L55.8329 355.655L52.6597 355.666L60.3785 353.511L63.5407 353.49Z" fill="white" stroke="#2E353A" stroke-width="0.25" stroke-miterlimit="10"/>
<path d="M79.6813 353.413L72.0503 355.623H68.7563L76.4093 353.435L79.6813 353.413Z" fill="white" stroke="#2E353A" stroke-width="0.25" stroke-miterlimit="10"/>
<path d="M82.9753 353.402L75.3552 355.612L72.0503 355.623L79.6813 353.413L82.9753 353.402Z" fill="white" stroke="#2E353A" stroke-width="0.25" stroke-miterlimit="10"/>
<path d="M69.9314 353.457L62.2454 355.645H59.0283L66.7252 353.479L69.9314 353.457Z" fill="white" stroke="#2E353A" stroke-width="0.25" stroke-miterlimit="10"/>
<path d="M73.1591 353.446L65.4842 355.634L62.2451 355.644L69.931 353.457L73.1591 353.446Z" fill="white" stroke="#2E353A" stroke-width="0.25" stroke-miterlimit="10"/>
<path d="M76.4094 353.434L68.7564 355.622L65.4844 355.633L73.1593 353.445L76.4094 353.434Z" fill="white" stroke="#2E353A" stroke-width="0.25" stroke-miterlimit="10"/>
<path d="M51.0347 353.556L58.5998 351.478L61.6852 351.456L54.131 353.545L51.0347 353.556Z" fill="white" stroke="#2E353A" stroke-width="0.25" stroke-miterlimit="10"/>
<path d="M104.244 349.081L111.919 346.828L115.235 346.795L107.582 349.048L104.244 349.081Z" fill="white" stroke="#2E353A" stroke-width="0.25" stroke-miterlimit="10"/>
<path d="M107.581 349.05L110.689 349.017L103.519 351.15L100.4 351.172L107.581 349.05Z" fill="white" stroke="#2E353A" stroke-width="0.25" stroke-miterlimit="10"/>
<path d="M115.234 346.795L118.319 346.751L110.688 349.016L107.581 349.048L115.234 346.795Z" fill="white" stroke="#2E353A" stroke-width="0.25" stroke-miterlimit="10"/>
<path d="M100.4 351.17L103.519 351.148L96.1622 353.335L93.022 353.346L100.4 351.17Z" fill="white" stroke="#2E353A" stroke-width="0.25" stroke-miterlimit="10"/>
<path d="M93.0222 353.346L96.1624 353.335L88.6083 355.578H85.457L93.0222 353.346Z" fill="white" stroke="#2E353A" stroke-width="0.25" stroke-miterlimit="10"/>
<path d="M85.4566 355.578H88.6078L80.8451 357.875H77.6719L85.4566 355.578Z" fill="white" stroke="#2E353A" stroke-width="0.25" stroke-miterlimit="10"/>
<path d="M49.4867 351.543L41.8886 353.6L39.2314 353.622L46.8405 351.565L49.4867 351.543Z" fill="white" stroke="#2E353A" stroke-width="0.25" stroke-miterlimit="10"/>
<path d="M34.1037 355.711L31.4355 355.722L39.2313 353.622L41.8884 353.6L34.1037 355.711Z" fill="white" stroke="#2E353A" stroke-width="0.25" stroke-miterlimit="10"/>
<path d="M26.1105 357.877H23.4424L31.4357 355.722L34.1039 355.711L26.1105 357.877Z" fill="white" stroke="#2E353A" stroke-width="0.25" stroke-miterlimit="10"/>
<path d="M78.375 349.335L86.1927 347.136L89.3329 347.103L81.5262 349.302L78.375 349.335Z" fill="white" stroke="#2E353A" stroke-width="0.25" stroke-miterlimit="10"/>
<path d="M49.4865 351.542L46.8403 351.563L54.2627 349.562L56.8979 349.529L49.4865 351.542Z" fill="white" stroke="#2E353A" stroke-width="0.25" stroke-miterlimit="10"/>
<path d="M37.1449 355.71H34.1035L41.8883 353.599L44.9187 353.588L37.1449 355.71Z" fill="white" stroke="#2E353A" stroke-width="0.25" stroke-miterlimit="10"/>
<path d="M100.928 349.116L108.625 346.873L111.919 346.829L104.244 349.083L100.928 349.116Z" fill="white" stroke="#2E353A" stroke-width="0.25" stroke-miterlimit="10"/>
<path d="M59.9062 349.508L52.5058 351.521L49.4863 351.542L56.8978 349.53L59.9062 349.508Z" fill="white" stroke="#2E353A" stroke-width="0.25" stroke-miterlimit="10"/>
<path d="M54.2627 349.562L62.1902 347.418L64.8144 347.385L56.8979 349.529L54.2627 349.562Z" fill="white" stroke="#2E353A" stroke-width="0.25" stroke-miterlimit="10"/>
<path d="M56.8979 349.531L64.8145 347.387L67.812 347.354L59.9064 349.509L56.8979 349.531Z" fill="white" stroke="#2E353A" stroke-width="0.25" stroke-miterlimit="10"/>
<path d="M46.3905 355.689L38.441 357.876H35.3228L43.2832 355.689H46.3905Z" fill="white" stroke="#2E353A" stroke-width="0.25" stroke-miterlimit="10"/>
<path d="M29.1628 357.877H26.1104L34.1037 355.711H37.1451L29.1628 357.877Z" fill="white" stroke="#2E353A" stroke-width="0.25" stroke-miterlimit="10"/>
<path d="M59.9062 349.508L67.8118 347.353L70.8203 347.32L62.9367 349.475L59.9062 349.508Z" fill="white" stroke="#2E353A" stroke-width="0.25" stroke-miterlimit="10"/>
<path d="M40.1979 355.698L32.2375 357.875H29.1631L37.1455 355.709L40.1979 355.698Z" fill="white" stroke="#2E353A" stroke-width="0.25" stroke-miterlimit="10"/>
<path d="M43.2831 355.689L35.3227 357.876H32.2373L40.1977 355.7L43.2831 355.689Z" fill="white" stroke="#2E353A" stroke-width="0.25" stroke-miterlimit="10"/>
<path d="M44.9191 353.59L41.8887 353.601L49.4868 351.544L52.5062 351.522L44.9191 353.59Z" fill="white" stroke="#2E353A" stroke-width="0.25" stroke-miterlimit="10"/>
<path d="M87.9053 349.235L95.668 347.025L98.8742 346.981L91.1224 349.202L87.9053 349.235Z" fill="white" stroke="#2E353A" stroke-width="0.25" stroke-miterlimit="10"/>
<path d="M62.937 349.473L70.8206 347.318L73.851 347.274L65.9784 349.44L62.937 349.473Z" fill="white" stroke="#2E353A" stroke-width="0.25" stroke-miterlimit="10"/>
<path d="M91.1221 349.203L98.8739 346.982L102.102 346.949L94.3721 349.181L91.1221 349.203Z" fill="white" stroke="#2E353A" stroke-width="0.25" stroke-miterlimit="10"/>
<path d="M81.5259 349.302L89.3326 347.103L92.4838 347.059L84.71 349.269L81.5259 349.302Z" fill="white" stroke="#2E353A" stroke-width="0.25" stroke-miterlimit="10"/>
<path d="M94.3726 349.181L102.102 346.949L105.352 346.905L97.6336 349.148L94.3726 349.181Z" fill="white" stroke="#2E353A" stroke-width="0.25" stroke-miterlimit="10"/>
<path d="M97.6333 349.146L105.352 346.904L108.624 346.871L100.927 349.114L97.6333 349.146Z" fill="white" stroke="#2E353A" stroke-width="0.25" stroke-miterlimit="10"/>
<path d="M84.71 349.268L92.4837 347.058L95.6679 347.025L87.9051 349.235L84.71 349.268Z" fill="white" stroke="#2E353A" stroke-width="0.25" stroke-miterlimit="10"/>
<path d="M65.9785 349.443L73.8511 347.277L76.9035 347.244L69.0419 349.421L65.9785 349.443Z" fill="white" stroke="#2E353A" stroke-width="0.25" stroke-miterlimit="10"/>
<path d="M69.042 349.419L76.9036 347.243L79.978 347.21L72.1383 349.387L69.042 349.419Z" fill="white" stroke="#2E353A" stroke-width="0.25" stroke-miterlimit="10"/>
<path d="M75.2456 349.354L83.0743 347.166L86.1926 347.134L78.3749 349.332L75.2456 349.354Z" fill="white" stroke="#2E353A" stroke-width="0.25" stroke-miterlimit="10"/>
<path d="M46.3904 355.689L49.5087 355.678L52.6599 355.667L55.8331 355.656L59.0282 355.645H62.2453L65.4844 355.634L68.7564 355.623H72.0504L75.3553 355.612L78.6932 355.601L70.8865 357.876H67.5376H64.1997H60.9058H57.6228H54.3618H51.1337H47.9275H44.7434H41.5812H38.4409L46.3904 355.689Z" fill="white" stroke="#2E353A" stroke-width="0.25" stroke-miterlimit="10"/>
<path d="M72.1382 349.387L79.9778 347.21L83.0742 347.166L75.2455 349.354L72.1382 349.387Z" fill="white" stroke="#2E353A" stroke-width="0.25" stroke-miterlimit="10"/>
<path d="M139.741 344.683V346.915L81.383 364.362L81.3721 361.496L139.741 344.683Z" fill="white" stroke="#2E353A" stroke-linecap="round" stroke-linejoin="round"/>
<path d="M2.67918 364.364H81.3721V361.509H2.67918V364.364Z" fill="#2E353A" stroke="#2E353A" stroke-linecap="round" stroke-linejoin="round"/>
</svg>
