<svg width="36" height="36" viewBox="0 0 36 36" fill="none" xmlns="http://www.w3.org/2000/svg">
<path d="M27.2824 24.0413L29.7506 25.686C29.9899 25.8456 30.2813 25.9075 30.5648 25.859C30.8483 25.8104 31.1024 25.6551 31.275 25.425L34.65 20.925L32.85 19.575L30.1129 23.2245L27.6244 21.564C27.3814 21.4017 27.0848 21.3403 26.7974 21.3928C26.5099 21.4453 26.2542 21.6075 26.0843 21.8452L22.5 26.8639V18H20.25V29.25C20.2506 29.8466 20.4878 30.4185 20.9097 30.8403C21.3315 31.2622 21.9034 31.4994 22.5 31.5H33.75V29.25H23.5609L27.2824 24.0413Z" fill="#77449A"/>
<path d="M2.25 23.625H18V25.875H2.25V23.625Z" fill="#77449A"/>
<path d="M2.25 29.25H18V31.5H2.25V29.25Z" fill="#77449A"/>
<path d="M12.375 18V12.375H13.5C14.693 12.3735 15.8367 11.8989 16.6803 11.0553C17.5239 10.2117 17.9985 9.06802 18 7.875V4.5H14.625C13.473 4.50189 12.3661 4.94796 11.5346 5.74537C10.9521 4.68761 10.0965 3.80541 9.05715 3.19065C8.01778 2.57588 6.83257 2.25106 5.625 2.25H2.25V5.625C2.25208 7.41457 2.96391 9.13025 4.22933 10.3957C5.49475 11.6611 7.21043 12.3729 9 12.375H10.125V18H2.25V20.25H18V18H12.375ZM14.625 6.75H15.75V7.875C15.7494 8.47155 15.5122 9.0435 15.0903 9.46533C14.6685 9.88716 14.0966 10.1244 13.5 10.125H12.375V9C12.3756 8.40345 12.6128 7.8315 13.0347 7.40967C13.4565 6.98784 14.0284 6.7506 14.625 6.75ZM9 10.125C7.80698 10.1235 6.66325 9.64893 5.81966 8.80534C4.97607 7.96175 4.50149 6.81802 4.5 5.625V4.5H5.625C6.81802 4.50149 7.96175 4.97607 8.80534 5.81966C9.64893 6.66325 10.1235 7.80698 10.125 9V10.125H9Z" fill="#77449A"/>
</svg>
