<svg width="72" height="72" viewBox="0 0 72 72" fill="none" xmlns="http://www.w3.org/2000/svg">
<path d="M58.5 49.5C56.9109 49.5078 55.3544 49.9514 54 50.7825L47.0475 43.8075C48.6653 41.5255 49.5342 38.7973 49.5342 36C49.5342 33.2027 48.6653 30.4745 47.0475 28.1925L54 21.2175C55.3544 22.0486 56.9109 22.4922 58.5 22.5C60.28 22.5 62.0201 21.9722 63.5001 20.9832C64.9802 19.9943 66.1337 18.5887 66.8149 16.9442C67.4961 15.2996 67.6743 13.49 67.3271 11.7442C66.9798 9.99836 66.1226 8.39472 64.864 7.13604C63.6053 5.87737 62.0016 5.0202 60.2558 4.67294C58.51 4.32567 56.7004 4.5039 55.0559 5.18509C53.4113 5.86628 52.0057 7.01983 51.0168 8.49987C50.0278 9.97991 49.5 11.72 49.5 13.5C49.5078 15.0891 49.9514 16.6456 50.7825 18L43.8075 24.9525C41.5255 23.3347 38.7973 22.4658 36 22.4658C33.2027 22.4658 30.4745 23.3347 28.1925 24.9525L21.2175 18C22.0486 16.6456 22.4922 15.0891 22.5 13.5C22.5 11.72 21.9722 9.97991 20.9832 8.49987C19.9943 7.01983 18.5887 5.86628 16.9442 5.18509C15.2996 4.5039 13.49 4.32567 11.7442 4.67294C9.99836 5.0202 8.39472 5.87737 7.13604 7.13604C5.87737 8.39472 5.0202 9.99836 4.67294 11.7442C4.32567 13.49 4.5039 15.2996 5.18509 16.9442C5.86628 18.5887 7.01983 19.9943 8.49987 20.9832C9.97991 21.9722 11.72 22.5 13.5 22.5C15.0891 22.4922 16.6456 22.0486 18 21.2175L24.9525 28.1925C23.3347 30.4745 22.4658 33.2027 22.4658 36C22.4658 38.7973 23.3347 41.5255 24.9525 43.8075L18 50.7825C16.6456 49.9514 15.0891 49.5078 13.5 49.5C11.72 49.5 9.97991 50.0278 8.49987 51.0168C7.01983 52.0057 5.86628 53.4113 5.18509 55.0559C4.5039 56.7004 4.32567 58.51 4.67294 60.2558C5.0202 62.0016 5.87737 63.6053 7.13604 64.864C8.39472 66.1226 9.99836 66.9798 11.7442 67.3271C13.49 67.6743 15.2996 67.4961 16.9442 66.8149C18.5887 66.1337 19.9943 64.9802 20.9832 63.5001C21.9722 62.0201 22.5 60.28 22.5 58.5C22.4922 56.9109 22.0486 55.3544 21.2175 54L28.1925 47.0475C30.4745 48.6653 33.2027 49.5342 36 49.5342C38.7973 49.5342 41.5255 48.6653 43.8075 47.0475L50.7825 54C49.9514 55.3544 49.5078 56.9109 49.5 58.5C49.5 60.28 50.0278 62.0201 51.0168 63.5001C52.0057 64.9802 53.4113 66.1337 55.0559 66.8149C56.7004 67.4961 58.51 67.6743 60.2558 67.3271C62.0016 66.9798 63.6053 66.1226 64.864 64.864C66.1226 63.6053 66.9798 62.0016 67.3271 60.2558C67.6743 58.51 67.4961 56.7004 66.8149 55.0559C66.1337 53.4113 64.9802 52.0057 63.5001 51.0168C62.0201 50.0278 60.28 49.5 58.5 49.5ZM36 45C34.22 45 32.4799 44.4722 30.9999 43.4832C29.5198 42.4943 28.3663 41.0887 27.6851 39.4442C27.0039 37.7996 26.8257 35.99 27.1729 34.2442C27.5202 32.4984 28.3774 30.8947 29.636 29.636C30.8947 28.3774 32.4984 27.5202 34.2442 27.1729C35.99 26.8257 37.7996 27.0039 39.4442 27.6851C41.0887 28.3663 42.4943 29.5198 43.4832 30.9999C44.4722 32.4799 45 34.22 45 36C45 38.387 44.0518 40.6761 42.364 42.364C40.6761 44.0518 38.387 45 36 45Z" fill="#313092"/>
</svg>
