<svg width="30" height="30" viewBox="0 0 30 30" fill="none" xmlns="http://www.w3.org/2000/svg">
<path d="M23.52 10.0802C22.86 10.3802 22.2 10.5602 21.42 10.6802C22.14 10.2002 22.74 9.5402 23.04 8.7002C22.32 9.1202 21.54 9.4202 20.76 9.6002C20.1 8.8802 19.14 8.46021 18.12 8.46021C16.14 8.46021 14.46 10.0802 14.46 12.1202C14.46 12.4202 14.52 12.6602 14.58 12.9602C11.58 12.8402 8.88 11.3402 7.08 9.1802C6.78 9.6002 6.6 10.2002 6.6 10.8602C6.6 12.1202 7.26 13.2602 8.22 13.8602C7.62 13.8602 7.08 13.6802 6.6 13.3802V13.4402C6.6 15.1802 7.86 16.6802 9.54 16.9802C9.24 17.0402 8.94 17.1002 8.58 17.1002C8.34 17.1002 8.1 17.1002 7.92 17.0402C8.4 18.4802 9.72 19.5602 11.34 19.5602C10.08 20.5202 8.52 21.1202 6.84 21.1202C6.54 21.1202 6.24 21.1202 6 21.0602C7.44 22.2002 9.36 22.8002 11.4 22.8002C18.06 22.8002 21.72 17.2802 21.72 12.4802V12.0002C22.44 11.4602 23.04 10.8602 23.52 10.0802Z" fill="white"/>
</svg>
