<svg width="30" height="30" viewBox="0 0 30 30" fill="none" xmlns="http://www.w3.org/2000/svg">
<path fill-rule="evenodd" clip-rule="evenodd" d="M15.0002 7.19995C12.8822 7.19995 12.6164 7.20895 11.7842 7.24675C10.9538 7.28455 10.3868 7.41655 9.89059 7.60915C9.37022 7.80514 8.89887 8.11228 8.5094 8.50915C8.11245 8.8988 7.80531 9.37037 7.6094 9.89095C7.4168 10.3866 7.2854 10.9536 7.247 11.784C7.2092 12.6162 7.2002 12.882 7.2002 15C7.2002 17.118 7.2092 17.3838 7.247 18.216C7.2848 19.0464 7.4168 19.6133 7.6094 20.1089C7.8092 20.622 8.0756 21.057 8.5094 21.4908C8.89887 21.8876 9.37022 22.1948 9.89059 22.3908C10.3868 22.5828 10.9538 22.7148 11.7842 22.7532C12.6164 22.791 12.8822 22.8 15.0002 22.8C17.1182 22.8 17.384 22.791 18.2162 22.7532C19.0466 22.7154 19.6136 22.5834 20.1092 22.3908C20.6298 22.1949 21.1014 21.8877 21.491 21.4908C21.8879 21.1011 22.1951 20.6295 22.391 20.1089C22.583 19.6133 22.715 19.0464 22.7534 18.216C22.7912 17.3838 22.8002 17.118 22.8002 15C22.8002 12.882 22.7912 12.6162 22.7534 11.784C22.7156 10.9536 22.5836 10.3866 22.3904 9.89095C22.1947 9.37042 21.8877 8.89886 21.491 8.50915C21.1014 8.11219 20.6298 7.80504 20.1092 7.60915C19.6136 7.41715 19.0466 7.28515 18.2162 7.24675C17.384 7.20895 17.1182 7.19995 15.0002 7.19995ZM15.0002 8.60515C17.0828 8.60515 17.3294 8.61355 18.152 8.65075C18.9122 8.68555 19.3256 8.81275 19.6004 8.91955C19.9646 9.06115 20.2244 9.22975 20.4974 9.50275C20.7704 9.77575 20.939 10.0356 21.0806 10.3998C21.1874 10.6746 21.3146 11.0874 21.3494 11.8482C21.3866 12.6702 21.395 12.9174 21.395 15C21.395 17.0826 21.3866 17.3292 21.3494 18.1518C21.3146 18.9126 21.1874 19.3254 21.0806 19.6002C20.9557 19.939 20.7564 20.2455 20.4974 20.4971C20.2457 20.7561 19.9392 20.9554 19.6004 21.0803C19.3256 21.1872 18.9122 21.3144 18.152 21.3492C17.33 21.3864 17.0828 21.3948 15.0002 21.3948C12.9176 21.3948 12.6704 21.3864 11.8484 21.3492C11.0876 21.3144 10.6748 21.1872 10.4 21.0803C10.0612 20.9554 9.75466 20.7561 9.503 20.4971C9.24405 20.2455 9.04478 19.9389 8.9198 19.6002C8.813 19.3254 8.6858 18.9126 8.651 18.1518C8.6138 17.3298 8.6054 17.0826 8.6054 15C8.6054 12.9174 8.6138 12.6708 8.651 11.8482C8.6858 11.0874 8.813 10.6746 8.9198 10.3998C9.0614 10.0356 9.23 9.77575 9.503 9.50275C9.75467 9.24378 10.0612 9.04449 10.4 8.91955C10.6748 8.81275 11.0876 8.68555 11.8484 8.65075C12.6704 8.61355 12.9176 8.60515 15.0002 8.60515Z" fill="white"/>
<path fill-rule="evenodd" clip-rule="evenodd" d="M15.0003 10.7999C13.8864 10.7999 12.8181 11.2424 12.0304 12.0301C11.2428 12.8177 10.8003 13.886 10.8003 14.9999C10.8003 16.1138 11.2428 17.1821 12.0304 17.9697C12.8181 18.7574 13.8864 19.1999 15.0003 19.1999C16.1142 19.1999 17.1825 18.7574 17.9701 17.9697C18.7578 17.1821 19.2003 16.1138 19.2003 14.9999C19.2003 13.886 18.7578 12.8177 17.9701 12.0301C17.1825 11.2424 16.1142 10.7999 15.0003 10.7999ZM15.0003 17.6999C14.2842 17.6999 13.5975 17.4154 13.0911 16.9091C12.5848 16.4027 12.3003 15.716 12.3003 14.9999C12.3003 14.2838 12.5848 13.5971 13.0911 13.0907C13.5975 12.5844 14.2842 12.2999 15.0003 12.2999C15.7164 12.2999 16.4031 12.5844 16.9095 13.0907C17.4158 13.5971 17.7003 14.2838 17.7003 14.9999C17.7003 15.716 17.4158 16.4027 16.9095 16.9091C16.4031 17.4154 15.7164 17.6999 15.0003 17.6999ZM20.2203 10.8599C20.2203 10.986 20.1955 11.1108 20.1472 11.2273C20.099 11.3438 20.0283 11.4496 19.9391 11.5387C19.85 11.6279 19.7441 11.6986 19.6277 11.7468C19.5112 11.7951 19.3864 11.8199 19.2603 11.8199C19.1342 11.8199 19.0094 11.7951 18.8929 11.7468C18.7764 11.6986 18.6706 11.6279 18.5815 11.5387C18.4923 11.4496 18.4216 11.3438 18.3734 11.2273C18.3251 11.1108 18.3003 10.986 18.3003 10.8599C18.3003 10.6053 18.4014 10.3611 18.5815 10.1811C18.7615 10.001 19.0057 9.8999 19.2603 9.8999C19.5149 9.8999 19.7591 10.001 19.9391 10.1811C20.1191 10.3611 20.2203 10.6053 20.2203 10.8599Z" fill="white"/>
</svg>
