<svg width="36" height="36" viewBox="0 0 36 36" fill="none" xmlns="http://www.w3.org/2000/svg">
<path d="M18.9135 3.375L3.88519 7.52119C3.88519 7.52119 1.125 7.44356 1.125 10.3753C1.125 11.5852 1.66163 12.4869 1.66163 12.4869L13.1108 31.6356C14.2054 33.3793 16.5302 32.2875 16.5302 32.2875L34.0864 23.7347L33.4294 23.0681C33.2747 22.2677 33.1847 20.7855 34.2714 19.6819C34.2956 19.6571 34.3001 19.6234 34.3131 19.5924L34.875 19.3669L18.9135 3.375ZM10.9828 14.5721L8.27381 10.3106L19.3798 7.02675L22.4528 10.3719L10.9828 14.5721ZM32.8567 21.4543C32.8202 21.7131 32.8016 21.9651 32.8056 22.2013L21.2805 27.6716L32.8466 22.7632C32.8579 22.8527 32.868 22.9427 32.8821 23.0237L18.108 30.1596L32.9985 23.5558L33.0075 23.5907L16.5302 31.473C16.5223 31.4781 15.7702 31.878 15.0165 31.878C14.2717 31.878 13.8077 31.4955 13.5962 30.7091C13.0522 28.6886 16.1426 27.5434 16.1893 27.5265L33.2798 20.1324C33.1571 20.3574 33.0722 20.5864 33.0013 20.8148L22.1524 25.9217L32.8567 21.4543Z" fill="#77449A"/>
</svg>
