<svg width="36" height="36" viewBox="0 0 36 36" fill="none" xmlns="http://www.w3.org/2000/svg">
<path d="M29.9998 4.1247C29.9997 3.94946 29.9586 3.77667 29.8799 3.6201C29.8011 3.46353 29.6869 3.32752 29.5463 3.22291C29.4057 3.1183 29.2426 3.04799 29.0701 3.01757C28.8975 2.98715 28.7202 2.99747 28.5523 3.0477L13.5523 7.5477C13.3205 7.61706 13.1172 7.7593 12.9727 7.95331C12.8281 8.14732 12.75 8.38276 12.7498 8.6247V23.4402C11.7767 22.7627 10.603 22.4346 9.41965 22.5092C8.23632 22.5838 7.11309 23.0568 6.23283 23.8511C5.35256 24.6454 4.7671 25.7143 4.57175 26.8838C4.37641 28.0533 4.58268 29.2545 5.157 30.2918C5.73132 31.3291 6.63985 32.1414 7.73469 32.5966C8.82953 33.0517 10.0462 33.1229 11.1866 32.7984C12.327 32.4739 13.3241 31.773 14.0154 30.8097C14.7066 29.8464 15.0515 28.6775 14.9938 27.4932C14.9979 27.4538 14.9999 27.4143 14.9998 27.3747V15.4617L27.7498 11.6367V20.4417C26.7767 19.7642 25.603 19.4361 24.4197 19.5107C23.2363 19.5853 22.1131 20.0583 21.2328 20.8526C20.3526 21.6469 19.7671 22.7158 19.5718 23.8853C19.3764 25.0548 19.5827 26.256 20.157 27.2933C20.7313 28.3306 21.6398 29.1429 22.7347 29.5981C23.8295 30.0532 25.0462 30.1243 26.1866 29.7999C27.327 29.4754 28.3241 28.7745 29.0154 27.8112C29.7066 26.8479 30.0515 25.679 29.9938 24.4947C29.9979 24.4548 29.9999 24.4148 29.9998 24.3747V4.1247Z" fill="#77449A"/>
</svg>
