<svg width="72" height="72" viewBox="0 0 72 72" fill="none" xmlns="http://www.w3.org/2000/svg">
<rect width="72" height="72" fill="white"/>
<path d="M9 52.381V61.501C9 62.341 9.66 63.001 10.5 63.001H19.62C20.01 63.001 20.4 62.851 20.67 62.551L53.43 29.821L42.18 18.571L9.45 51.301C9.15 51.601 9 51.961 9 52.381ZM62.13 21.121C62.4081 20.8434 62.6288 20.5138 62.7793 20.1509C62.9298 19.7879 63.0073 19.3989 63.0073 19.006C63.0073 18.6131 62.9298 18.224 62.7793 17.8611C62.6288 17.4982 62.4081 17.1685 62.13 16.891L55.11 9.87098C54.8325 9.59287 54.5028 9.37223 54.1399 9.22169C53.777 9.07114 53.3879 8.99365 52.995 8.99365C52.6021 8.99365 52.213 9.07114 51.8501 9.22169C51.4872 9.37223 51.1575 9.59287 50.88 9.87098L45.39 15.361L56.64 26.611L62.13 21.121Z" fill="#77449A"/>
</svg>
