<svg width="350" height="351" viewBox="0 0 350 351" fill="none" xmlns="http://www.w3.org/2000/svg">
<path d="M58.7654 108.951C59.5272 107.338 59.867 105.561 59.7532 103.783C59.6395 102.005 59.0759 100.285 58.1147 98.781C57.1535 97.2773 55.8258 96.0391 54.2548 95.1813C52.6837 94.3234 50.9202 93.8737 49.1276 93.8737C47.335 93.8737 45.5714 94.3234 44.0004 95.1813C42.4293 96.0391 41.1016 97.2773 40.1405 98.781C39.1793 100.285 38.6157 102.005 38.5019 103.783C38.3882 105.561 38.728 107.338 39.4898 108.951H58.7654Z" stroke="#263238" stroke-linecap="round" stroke-linejoin="round"/>
<path d="M84.1664 108.951C84.9329 107.337 85.2764 105.556 85.1651 103.775C85.0538 101.993 84.4912 100.269 83.5297 98.7612C82.5681 97.2537 81.2388 96.0121 79.6652 95.1518C78.0915 94.2915 76.3246 93.8405 74.5286 93.8405C72.7325 93.8405 70.9656 94.2915 69.392 95.1518C67.8183 96.0121 66.489 97.2537 65.5275 98.7612C64.5659 100.269 64.0034 101.993 63.8921 103.775C63.7808 105.556 64.1243 107.337 64.8908 108.951H84.1664Z" stroke="#263238" stroke-linecap="round" stroke-linejoin="round"/>
<path d="M109.557 108.951C110.319 107.338 110.658 105.561 110.545 103.783C110.431 102.005 109.867 100.285 108.906 98.781C107.945 97.2773 106.617 96.0391 105.046 95.1813C103.475 94.3234 101.712 93.8737 99.9191 93.8737C98.1265 93.8737 96.3629 94.3234 94.7919 95.1813C93.2208 96.0391 91.8932 97.2773 90.932 98.781C89.9708 100.285 89.4072 102.005 89.2934 103.783C89.1797 105.561 89.5195 107.338 90.2813 108.951H109.557Z" stroke="#263238" stroke-linecap="round" stroke-linejoin="round"/>
<path d="M134.947 108.951C135.709 107.338 136.049 105.561 135.935 103.783C135.822 102.005 135.258 100.285 134.297 98.781C133.336 97.2773 132.008 96.0391 130.437 95.1813C128.866 94.3234 127.102 93.8737 125.31 93.8737C123.517 93.8737 121.754 94.3234 120.182 95.1813C118.611 96.0391 117.284 97.2773 116.323 98.781C115.361 100.285 114.798 102.005 114.684 103.783C114.57 105.561 114.91 107.338 115.672 108.951H134.947Z" stroke="#263238" stroke-linecap="round" stroke-linejoin="round"/>
<path d="M160.349 108.951C161.113 107.337 161.455 105.557 161.342 103.776C161.229 101.996 160.666 100.273 159.704 98.7667C158.742 97.2605 157.413 96.0202 155.84 95.1608C154.267 94.3014 152.501 93.8508 150.706 93.8508C148.911 93.8508 147.145 94.3014 145.572 95.1608C143.999 96.0202 142.67 97.2605 141.708 98.7667C140.746 100.273 140.183 101.996 140.07 103.776C139.957 105.557 140.299 107.337 141.063 108.951H160.349Z" stroke="#263238" stroke-linecap="round" stroke-linejoin="round"/>
<path d="M185.739 108.951C186.501 107.338 186.841 105.561 186.727 103.783C186.613 102.005 186.049 100.285 185.088 98.781C184.127 97.2773 182.799 96.0391 181.228 95.1813C179.657 94.3234 177.894 93.8737 176.101 93.8737C174.309 93.8737 172.545 94.3234 170.974 95.1813C169.403 96.0391 168.075 97.2773 167.114 98.781C166.153 100.285 165.589 102.005 165.476 103.783C165.362 105.561 165.702 107.338 166.463 108.951H185.739Z" stroke="#263238" stroke-linecap="round" stroke-linejoin="round"/>
<path d="M211.13 108.951C211.891 107.338 212.231 105.561 212.117 103.783C212.004 102.005 211.44 100.285 210.479 98.781C209.518 97.2773 208.19 96.0391 206.619 95.1813C205.048 94.3234 203.284 93.8737 201.492 93.8737C199.699 93.8737 197.936 94.3234 196.365 95.1813C194.794 96.0391 193.466 97.2773 192.505 98.781C191.544 100.285 190.98 102.005 190.866 103.783C190.752 105.561 191.092 107.338 191.854 108.951H211.13Z" stroke="#263238" stroke-linecap="round" stroke-linejoin="round"/>
<path d="M236.521 108.951C237.283 107.338 237.622 105.561 237.509 103.783C237.395 102.005 236.831 100.285 235.87 98.781C234.909 97.2773 233.581 96.0391 232.01 95.1813C230.439 94.3234 228.676 93.8737 226.883 93.8737C225.09 93.8737 223.327 94.3234 221.756 95.1813C220.185 96.0391 218.857 97.2773 217.896 98.781C216.935 100.285 216.371 102.005 216.257 103.783C216.144 105.561 216.483 107.338 217.245 108.951H236.521Z" stroke="#263238" stroke-linecap="round" stroke-linejoin="round"/>
<path d="M261.921 108.951C262.603 107.515 262.951 105.945 262.94 104.357C262.928 102.77 262.557 101.205 261.854 99.7787C261.151 98.3527 260.134 97.1023 258.878 96.1201C257.623 95.138 256.161 94.4492 254.601 94.105C253.041 93.7608 251.423 93.7699 249.868 94.1316C248.312 94.4934 246.858 95.1985 245.613 96.1947C244.369 97.1909 243.366 98.4527 242.68 99.8865C241.993 101.32 241.64 102.889 241.646 104.477C241.641 106.023 241.979 107.55 242.636 108.951H261.921Z" stroke="#263238" stroke-linecap="round" stroke-linejoin="round"/>
<path d="M287.312 108.951C288.074 107.338 288.413 105.561 288.3 103.783C288.186 102.005 287.622 100.285 286.661 98.781C285.7 97.2773 284.372 96.0391 282.801 95.1813C281.23 94.3234 279.467 93.8737 277.674 93.8737C275.881 93.8737 274.118 94.3234 272.547 95.1813C270.976 96.0391 269.648 97.2773 268.687 98.781C267.726 100.285 267.162 102.005 267.048 103.783C266.935 105.561 267.274 107.338 268.036 108.951H287.312Z" stroke="#263238" stroke-linecap="round" stroke-linejoin="round"/>
<path d="M312.703 108.951C313.465 107.338 313.804 105.561 313.691 103.783C313.577 102.005 313.013 100.285 312.052 98.781C311.091 97.2773 309.763 96.0391 308.192 95.1813C306.621 94.3234 304.858 93.8737 303.065 93.8737C301.272 93.8737 299.509 94.3234 297.938 95.1813C296.367 96.0391 295.039 97.2773 294.078 98.781C293.117 100.285 292.553 102.005 292.439 103.783C292.326 105.561 292.665 107.338 293.427 108.951H312.703Z" stroke="#263238" stroke-linecap="round" stroke-linejoin="round"/>
<path d="M32.4644 109.275H316.75" stroke="#263238" stroke-linecap="round" stroke-linejoin="round"/>
<path d="M32.4644 128.204H316.75" stroke="#263238" stroke-linecap="round" stroke-linejoin="round"/>
<path d="M32.4644 184.088H316.75" stroke="#263238" stroke-linecap="round" stroke-linejoin="round"/>
<path d="M32.4644 203.008H316.75" stroke="#263238" stroke-linecap="round" stroke-linejoin="round"/>
<path d="M59.1514 149.976H38.6587V183.724H59.1514V149.976Z" stroke="#263238" stroke-linecap="round" stroke-linejoin="round"/>
<path d="M84.3247 149.976H63.832V183.724H84.3247V149.976Z" stroke="#263238" stroke-linecap="round" stroke-linejoin="round"/>
<path d="M109.507 149.976H89.0146V183.724H109.507V149.976Z" stroke="#263238" stroke-linecap="round" stroke-linejoin="round"/>
<path d="M134.681 149.976H114.188V183.724H134.681V149.976Z" stroke="#263238" stroke-linecap="round" stroke-linejoin="round"/>
<path d="M159.863 149.976H139.371V183.724H159.863V149.976Z" stroke="#263238" stroke-linecap="round" stroke-linejoin="round"/>
<path d="M185.037 149.976H164.544V183.724H185.037V149.976Z" stroke="#263238" stroke-linecap="round" stroke-linejoin="round"/>
<path d="M210.219 149.976H189.727V183.724H210.219V149.976Z" stroke="#263238" stroke-linecap="round" stroke-linejoin="round"/>
<path d="M235.393 149.976H214.9V183.724H235.393V149.976Z" stroke="#263238" stroke-linecap="round" stroke-linejoin="round"/>
<path d="M260.576 149.976H240.083V183.724H260.576V149.976Z" stroke="#263238" stroke-linecap="round" stroke-linejoin="round"/>
<path d="M285.749 149.976H265.256V183.724H285.749V149.976Z" stroke="#263238" stroke-linecap="round" stroke-linejoin="round"/>
<path d="M310.921 149.976H290.429V183.724H310.921V149.976Z" stroke="#263238" stroke-linecap="round" stroke-linejoin="round"/>
<path d="M294.605 225.851V208.455H288.46V225.851H285.382V258.783H297.682V225.851H294.605Z" stroke="#263238" stroke-linecap="round" stroke-linejoin="round"/>
<path d="M274.043 225.851V208.455H267.888V225.851H264.82V258.783H277.11V225.851H274.043Z" stroke="#263238" stroke-linecap="round" stroke-linejoin="round"/>
<path d="M253.471 225.851V208.455H247.326V225.851H244.249V258.783H256.548V225.851H253.471Z" stroke="#263238" stroke-linecap="round" stroke-linejoin="round"/>
<path d="M232.909 225.851V208.455H226.754V225.851H223.687V258.783H235.976V225.851H232.909Z" stroke="#263238" stroke-linecap="round" stroke-linejoin="round"/>
<path d="M212.337 225.851V208.455H206.192V225.851H203.115V258.783H215.414V225.851H212.337Z" stroke="#263238" stroke-linecap="round" stroke-linejoin="round"/>
<path d="M191.775 225.851V208.455H185.62V225.851H182.553V258.783H194.842V225.851H191.775Z" stroke="#263238" stroke-linecap="round" stroke-linejoin="round"/>
<path d="M171.203 225.851V208.455H165.058V225.851H161.981V258.783H174.281V225.851H171.203Z" stroke="#263238" stroke-linecap="round" stroke-linejoin="round"/>
<path d="M150.641 225.851V208.455H144.486V225.851H141.419V258.783H153.709V225.851H150.641Z" stroke="#263238" stroke-linecap="round" stroke-linejoin="round"/>
<path d="M130.069 225.851V208.455H123.925V225.851H120.847V258.783H133.147V225.851H130.069Z" stroke="#263238" stroke-linecap="round" stroke-linejoin="round"/>
<path d="M109.507 225.851V208.455H103.353V225.851H100.285V258.783H112.575V225.851H109.507Z" stroke="#263238" stroke-linecap="round" stroke-linejoin="round"/>
<path d="M88.9356 225.851V208.455H82.7907V225.851H79.7134V258.783H92.0129V225.851H88.9356Z" stroke="#263238" stroke-linecap="round" stroke-linejoin="round"/>
<path d="M68.3736 225.851V208.455H62.2188V225.851H59.1514V258.783H71.441V225.851H68.3736Z" stroke="#263238" stroke-linecap="round" stroke-linejoin="round"/>
<path d="M47.8018 225.851V208.455H41.657V225.851H38.5796V258.783H50.8792V225.851H47.8018Z" stroke="#263238" stroke-linecap="round" stroke-linejoin="round"/>
<path d="M32.4644 258.901H316.75" stroke="#263238" stroke-linecap="round" stroke-linejoin="round"/>
<path d="M32.4644 277.82H316.75" stroke="#263238" stroke-linecap="round" stroke-linejoin="round"/>
<path d="M62.5454 29.3988V1" stroke="#263238" stroke-linecap="round" stroke-linejoin="round"/>
<path d="M286.402 29.3988V1" stroke="#263238" stroke-linecap="round" stroke-linejoin="round"/>
<path d="M100.325 28.9174H27.1904V77.5238H100.325V28.9174Z" stroke="#263238" stroke-linecap="round" stroke-linejoin="round"/>
<path d="M43.9227 41.6611C46.634 42.0446 47.8807 44.1391 47.8807 47.1186V47.7086H45.5455V46.9416C45.5455 44.975 44.7539 43.7654 42.9629 43.7654C41.1719 43.7654 40.41 44.975 40.41 46.9416C40.41 51.9272 47.9104 51.9567 47.9104 58.2107C47.9104 61.1607 46.634 63.3142 43.9524 63.6977V65.4087H41.9041V63.7272C39.1236 63.3437 37.8867 61.2492 37.8867 58.2402V56.8734H40.2121V58.3975C40.2121 60.3642 41.0432 61.5344 42.8343 61.5344C44.6253 61.5344 45.4466 60.3937 45.4466 58.3975C45.4466 53.4808 37.9758 53.3825 37.9758 47.1285C37.9758 44.0801 39.2225 42.0839 41.9338 41.6709V39.8419H43.9821L43.9227 41.6611Z" fill="#263238"/>
<path d="M59.4089 59.312V63.7862H56.9846V59.312H49.7612V57.0503L56.6878 41.5627H59.399V57.0503H61.19V59.312H59.4089ZM52.0668 57.0503H57.0143V46.2336L52.0668 57.0503Z" fill="#263238"/>
<path d="M73.1434 46.9316V58.2596C73.1434 61.78 71.5404 64.0023 67.9682 64.0023C64.5545 64.0023 62.9218 61.8095 62.9218 58.417V58.004H65.257V58.5743C65.257 60.541 66.1179 61.7505 67.9089 61.7505C69.6999 61.7505 70.6498 60.541 70.6498 58.2006V53.2151C70.3883 53.9448 69.8937 54.5694 69.2416 54.9937C68.5896 55.4181 67.8157 55.6188 67.0381 55.5653C64.1685 55.5653 62.8921 53.5298 62.8921 50.3241V46.9316C62.8921 43.539 64.5544 41.3462 67.9979 41.3462C71.4414 41.3462 73.1434 43.539 73.1434 46.9316ZM65.3461 46.8037V50.1372C65.3461 52.1039 66.2168 53.3429 67.9979 53.3429C69.779 53.3429 70.6498 52.1334 70.6498 50.1372V46.8037C70.6498 44.7682 69.8186 43.598 67.9979 43.598C66.1772 43.598 65.3461 44.7584 65.3461 46.8037Z" fill="#263238"/>
<path d="M77.9322 60.7086V63.7865H75.5376V60.7086H77.9322Z" fill="#263238"/>
<path d="M90.5089 46.9317V58.2598C90.5089 61.7802 88.9158 64.0025 85.3437 64.0025C81.92 64.0025 80.2973 61.8097 80.2973 58.4171V58.0041H82.6226V58.5745C82.6226 60.5412 83.4934 61.7507 85.2745 61.7507C87.0556 61.7507 88.0253 60.5412 88.0253 58.2008V53.2153C87.7641 53.9459 87.2699 54.5717 86.618 54.9977C85.9661 55.4237 85.1921 55.6265 84.4136 55.5753C81.544 55.5753 80.2676 53.5398 80.2676 50.3341V46.9416C80.2676 43.549 81.9201 41.3562 85.3734 41.3562C88.8268 41.3562 90.5089 43.5392 90.5089 46.9317ZM82.7215 46.8039V50.1374C82.7215 52.1041 83.5824 53.3431 85.3734 53.3431C87.1644 53.3431 88.0253 52.1336 88.0253 50.1374V46.8039C88.0253 44.7684 87.1941 43.5982 85.3734 43.5982C83.5527 43.5982 82.7215 44.7586 82.7215 46.8039Z" fill="#263238"/>
<path d="M324.181 28.9174H251.046V77.5238H324.181V28.9174Z" stroke="#263238" stroke-linecap="round" stroke-linejoin="round"/>
<path d="M267.552 41.6611C270.263 42.0446 271.51 44.1391 271.51 47.1186V47.7086H269.174V46.9416C269.174 44.975 268.383 43.7654 266.592 43.7654C264.801 43.7654 264.039 44.975 264.039 46.9416C264.039 51.9272 271.539 51.9567 271.539 58.2107C271.539 61.1607 270.263 63.3142 267.581 63.6977V65.4087H265.533V63.7272C262.762 63.3437 261.516 61.2492 261.516 58.2402V56.8734H263.841V58.3975C263.841 60.3642 264.672 61.5344 266.463 61.5344C268.254 61.5344 269.075 60.3937 269.075 58.3975C269.075 53.4808 261.605 53.3825 261.605 47.1285C261.605 44.0801 262.851 42.0839 265.563 41.6709V39.8419H267.611L267.552 41.6611Z" fill="#263238"/>
<path d="M284.027 46.9611C284.027 53.6576 276.457 56.0668 276.427 61.1801V61.5243H283.769V63.786H273.963V61.8783C273.963 54.7098 281.533 53.3134 281.533 47.0594C281.533 44.7682 280.771 43.5685 278.921 43.5685C277.07 43.5685 276.299 44.8665 276.299 46.8332V48.7999H273.963V46.9906C273.963 43.598 275.537 41.3462 278.98 41.3462C282.424 41.3462 284.027 43.5685 284.027 46.9611Z" fill="#263238"/>
<path d="M290.894 45.5944C289.96 46.1733 288.896 46.5113 287.797 46.5777V44.5521C290.221 44.4537 291.052 43.1557 291.626 41.6021H293.348V63.8255H290.894V45.5944Z" fill="#263238"/>
<path d="M299.513 60.7086V63.7865H297.118V60.7086H299.513Z" fill="#263238"/>
<path d="M312.099 46.9317V58.2598C312.099 61.7802 310.506 64.0025 306.924 64.0025C303.51 64.0025 301.877 61.8097 301.877 58.4171V58.0041H304.213V58.5745C304.213 60.5412 305.073 61.7507 306.865 61.7507C308.656 61.7507 309.605 60.5412 309.605 58.2008V53.2153C309.344 53.952 308.846 54.5825 308.188 55.0092C307.529 55.4358 306.748 55.6348 305.964 55.5753C303.085 55.5753 301.808 53.5398 301.808 50.3341V46.9416C301.808 43.549 303.47 41.3562 306.914 41.3562C310.357 41.3562 312.099 43.5392 312.099 46.9317ZM304.302 46.8039V50.1374C304.302 52.1041 305.172 53.3431 306.954 53.3431C308.735 53.3431 309.605 52.1336 309.605 50.1374V46.8039C309.605 44.7684 308.774 43.5982 306.954 43.5982C305.133 43.5982 304.302 44.7586 304.302 46.8039Z" fill="#263238"/>
<path d="M166.681 351C212.302 351 249.285 342.917 249.285 332.946C249.285 322.975 212.302 314.892 166.681 314.892C121.06 314.892 84.0771 322.975 84.0771 332.946C84.0771 342.917 121.06 351 166.681 351Z" fill="#BA68C8"/>
<path opacity="0.5" d="M166.681 351C212.302 351 249.285 342.917 249.285 332.946C249.285 322.975 212.302 314.892 166.681 314.892C121.06 314.892 84.0771 322.975 84.0771 332.946C84.0771 342.917 121.06 351 166.681 351Z" fill="white"/>
<path d="M44.7056 321.076C44.7056 321.076 44.3296 325.934 45.6951 327.37C47.0607 328.805 58.8358 329.336 60.1716 327.547C61.5075 325.757 60.7455 319.1 60.7455 319.1C60.7455 319.1 55.9464 320.673 44.7056 321.076Z" fill="#BA68C8" stroke="#263238" stroke-linecap="round" stroke-linejoin="round"/>
<path d="M56.7084 326.613C50.2865 326.78 46.8134 326.367 44.9927 325.875C45.0927 326.408 45.3238 326.908 45.6655 327.331C46.9915 328.766 58.8062 329.297 60.142 327.508C60.3534 327.19 60.5044 326.837 60.5873 326.465C59.3999 326.524 58.1234 326.574 56.7084 326.613Z" fill="white" stroke="#263238" stroke-linecap="round" stroke-linejoin="round"/>
<path d="M79.764 327.134C82.7242 329.693 86.1644 331.645 89.8866 332.877C95.4081 334.499 96.9319 335.394 96.358 337.194C95.7841 338.993 91.0246 339.534 79.5957 339.898C68.1669 340.262 59.5681 338.787 58.0443 337.705C56.5204 336.623 57.4704 334.647 58.0443 334.116C58.6182 333.585 77.6662 325.699 79.764 327.134Z" fill="#BA68C8" stroke="#263238" stroke-linecap="round" stroke-linejoin="round"/>
<path d="M96.3581 337.233C96.4695 336.964 96.5044 336.669 96.4591 336.381C96.4137 336.093 96.2898 335.823 96.1008 335.601C93.4391 336.682 88.6795 337.007 77.696 336.879C68.0384 336.761 62.141 335.355 57.3122 335.542C57.1835 335.939 57.1851 336.366 57.3167 336.762C57.4483 337.158 57.7031 337.502 58.0444 337.744C59.5682 338.826 68.167 340.291 79.5958 339.937C91.0246 339.583 95.7941 339.033 96.3581 337.233Z" fill="white" stroke="#263238" stroke-linecap="round" stroke-linejoin="round"/>
<path d="M56.3322 222.114C56.3322 222.114 55.9463 243.698 51.7607 262.224C47.5751 280.75 44.9034 289.384 44.1415 301.076C43.6801 308.086 43.743 315.119 44.3295 322.12C44.3295 322.12 46.4272 323.191 51.5727 322.837C54.3915 322.727 57.1387 321.922 59.5679 320.497C59.5679 320.497 60.1418 300.348 60.1418 289.197C60.1418 278.046 65.0893 247.474 65.4752 236.146C65.8611 224.818 62.4276 219.056 59.9538 217.256C57.48 215.457 56.3322 222.114 56.3322 222.114Z" fill="#263238" stroke="#263238" stroke-linecap="round" stroke-linejoin="round"/>
<path d="M81.476 196.93C81.476 196.93 81.288 207.747 81.288 221.396C81.288 235.045 78.2403 267.082 75.7666 282.363C73.2928 297.644 75.0046 318.501 75.3807 320.123C75.7567 321.746 76.5285 321.205 77.8544 322.818C78.9247 324.239 79.8809 325.741 80.7141 327.311C80.7141 327.311 73.2829 332.356 67.5735 334.195C61.864 336.034 59.7563 336.712 58.4304 336.712C57.1045 336.712 57.0946 335.454 56.1446 332.395C55.1947 329.337 55.1551 316.564 55.1551 316.564C55.1551 316.564 52.4934 298.411 52.4934 287.26C52.4934 276.109 57.6388 269.275 57.6388 258.488C57.6388 247.7 54.3932 218.554 52.4934 214.237C50.5935 209.92 46.962 203.991 46.5563 200.933C46.1506 197.874 45.9824 195.888 45.9824 195.888L81.476 196.93Z" fill="#263238" stroke="#263238" stroke-linecap="round" stroke-linejoin="round"/>
<path d="M76.5283 146.387C76.5283 146.387 83.7616 139.553 85.0975 137.222C86.4333 134.892 85.4834 130.388 87.0072 129.129C88.531 127.871 93.6666 125.884 94.4285 124.272C95.1904 122.659 96.1502 122.108 96.7142 124.813C97.2783 127.517 95.3883 128.746 94.2405 130.024L93.1026 131.293L100.722 129.493C100.722 129.493 99.3859 123.918 101.098 122.659C102.81 121.4 103.957 129.493 104.145 131.834C104.333 134.174 102.058 135.973 97.8621 137.586C95.2486 138.589 92.5751 139.429 89.857 140.104L81.2878 160.606L76.5283 146.387Z" fill="white" stroke="#263238" stroke-linecap="round" stroke-linejoin="round"/>
<path d="M102.246 130.918C102.622 129.129 102.058 123.189 103.581 122.294C105.105 121.4 105.293 125.707 105.293 125.707C105.293 125.707 106.055 130.024 105.105 131.823C104.155 133.623 102.82 133.977 102.82 132.718" fill="white"/>
<path d="M102.246 130.918C102.622 129.129 102.058 123.189 103.581 122.294C105.105 121.4 105.293 125.707 105.293 125.707C105.293 125.707 106.055 130.024 105.105 131.823C104.155 133.623 102.82 133.977 102.82 132.718" stroke="#263238" stroke-linecap="round" stroke-linejoin="round"/>
<path d="M91.0643 137.497C91.0643 137.497 90.619 135.599 93.6667 134.705C96.7143 133.81 101.86 132.738 101.86 132.738C101.86 132.738 105.669 122.315 107.005 125.55C108.341 128.785 105.293 135.442 104.146 136.366C102.998 137.291 94.4286 138.884 94.4286 138.884" fill="white"/>
<path d="M91.0643 137.497C91.0643 137.497 90.619 135.599 93.6667 134.705C96.7143 133.81 101.86 132.738 101.86 132.738C101.86 132.738 105.669 122.315 107.005 125.55C108.341 128.785 105.293 135.442 104.146 136.366C102.998 137.291 94.4286 138.884 94.4286 138.884" stroke="#263238" stroke-linecap="round" stroke-linejoin="round"/>
<path d="M57.4706 101.969C57.4706 101.969 49.8514 114.575 47.1896 125.392C44.5278 136.209 42.0442 157.597 41.2526 169.819C40.461 182.042 38.7788 198.956 38.7788 198.956C46.3621 200.911 54.1798 201.821 62.0124 201.66C70.5937 201.489 79.1404 200.525 87.5417 198.779C87.5417 198.779 83.3759 163.477 79.4179 142.974C75.4598 122.472 71.6107 109.541 71.6107 109.541C71.6107 109.541 61.2802 101.241 57.4706 101.969Z" fill="#BA68C8" stroke="#263238" stroke-linecap="round" stroke-linejoin="round"/>
<path d="M62.4278 78.4086C63.3418 81.8163 63.4063 85.394 62.6158 88.832C61.28 94.4075 60.5181 98.3704 60.5181 98.3704C60.5181 98.3704 71.5709 110.062 71.5709 109.521C71.5709 108.981 71.9568 102.864 73.6686 99.0882C75.3805 95.3122 76.5283 93.1882 76.5283 93.1882C73.9032 91.6383 71.8283 89.3151 70.5913 86.5408C68.4935 81.8601 68.3055 74.4851 65.4458 74.3081C62.5861 74.1311 62.4278 78.4086 62.4278 78.4086Z" fill="white" stroke="#263238" stroke-linecap="round" stroke-linejoin="round"/>
<path d="M88.719 62.3999C88.719 62.3999 88.719 73.0101 89.4809 75.3504C90.2428 77.6908 92.9046 78.2218 92.5286 79.4805C92.1526 80.7391 88.5706 81.4471 88.5706 81.4471C88.5706 81.4471 87.5811 90.4447 86.8488 92.9621C86.1166 95.4794 84.187 96.0202 79.9915 95.6564C75.796 95.2926 71.086 94.0437 69.107 91.3395C67.128 88.6353 66.0593 83.7875 66.0593 83.7875C65.491 79.4919 65.1607 75.1685 65.0698 70.8369C65.0698 65.0844 64.3079 61.9869 72.313 58.968C80.3181 55.9491 88.3232 59.8825 88.719 62.3999Z" fill="white" stroke="#263238" stroke-linecap="round" stroke-linejoin="round"/>
<path d="M79.9522 83.6202L83.7618 85.9606C83.7618 85.9606 81.8619 89.3728 80.5261 88.4779C79.1903 87.5831 79.9522 83.6202 79.9522 83.6202Z" stroke="#263238" stroke-linecap="round" stroke-linejoin="round"/>
<path d="M85.6713 75.9791C85.6713 77.0214 85.3744 77.8671 84.9984 77.8671C84.6224 77.8671 84.3354 77.0214 84.3354 75.9791C84.3354 74.9367 84.6323 74.0911 84.9984 74.0911C85.3645 74.0911 85.6713 74.9367 85.6713 75.9791Z" fill="#263238"/>
<path d="M81.6636 72.1054C81.6636 72.1054 82.6531 68.6932 85.4831 68.8702" stroke="#263238" stroke-linecap="round" stroke-linejoin="round"/>
<path d="M68.1471 80.1586L72.1051 79.0868C72.1051 79.0868 69.8194 75.6647 72.2931 74.0521C74.7669 72.4394 78.3885 71.1709 77.4386 69.5484C76.4887 67.9259 70.1954 67.031 73.2431 65.0545C76.2907 63.078 80.4863 61.9963 81.2482 62.7142C82.0101 63.432 81.2482 64.3367 86.1957 64.3367C91.1433 64.3367 93.8149 62.5372 92.2911 56.7846C90.7672 51.0321 82.5741 48.8688 77.4485 50.8846C72.3228 52.9005 70.7792 54.3066 70.7792 54.3066C70.7792 54.3066 59.8946 54.6606 56.6787 62.1733C53.4628 69.6861 54.7789 74.4061 57.0646 76.9234C59.3504 79.4408 62.7741 82.145 64.1099 82.145C65.4458 82.145 68.1471 80.1586 68.1471 80.1586Z" fill="#263238" stroke="#263238" stroke-linecap="round" stroke-linejoin="round"/>
<path d="M58.2617 72.784C62.0218 71.545 64.1196 67.7984 69.1463 64.4748C72.2448 62.4548 75.8911 61.4254 79.5955 61.5247C79.5955 61.5247 77.4977 55.2904 82.564 55.7034C87.6303 56.1164 89.2531 59.4401 84.6618 59.027" stroke="white" stroke-width="0.75" stroke-linecap="round" stroke-linejoin="round"/>
<path d="M69.859 82.3613C69.859 81.8205 68.3351 74.2684 65.4755 74.2684C62.6158 74.2684 61.0919 76.2351 62.2398 80.7388C63.3876 85.2425 66.8113 86.6388 69.473 84.3378" fill="white"/>
<path d="M69.859 82.3613C69.859 81.8205 68.3351 74.2684 65.4755 74.2684C62.6158 74.2684 61.0919 76.2351 62.2398 80.7388C63.3876 85.2425 66.8113 86.6388 69.473 84.3378" stroke="#263238" stroke-linecap="round" stroke-linejoin="round"/>
<path d="M58.2324 94.0531L73.2829 107.358L74.8067 115.814L54.4229 102.323L58.2324 94.0531Z" fill="#BA68C8" stroke="#263238" stroke-linecap="round" stroke-linejoin="round"/>
<path d="M38.6895 239.007C38.1349 239.02 37.5958 238.824 37.1795 238.46C36.7632 238.095 36.5004 237.589 36.4433 237.04L34.9789 219.409C34.9006 218.001 35.3882 216.619 36.3345 215.568C37.2808 214.517 38.6084 213.883 40.0254 213.804L70.1558 211.434C71.564 211.307 72.9672 211.725 74.0731 212.601C75.179 213.476 75.9025 214.742 76.0929 216.134L77.8839 233.972C77.9068 234.259 77.8719 234.547 77.7814 234.82C77.6909 235.093 77.5466 235.345 77.3568 235.562C77.167 235.779 76.9356 235.957 76.6761 236.084C76.4166 236.211 76.1343 236.285 75.8455 236.303C75.2569 236.363 74.668 236.191 74.2067 235.823C73.7453 235.455 73.4488 234.92 73.3816 234.336L71.5906 216.498C71.556 216.246 71.4243 216.017 71.2231 215.859C71.0219 215.701 70.767 215.627 70.5121 215.653L40.3816 218.022C40.1331 218.042 39.9013 218.154 39.7325 218.337C39.5637 218.519 39.4704 218.758 39.4712 219.006L40.9258 236.637C40.9432 236.924 40.903 237.212 40.8077 237.483C40.7123 237.755 40.5637 238.005 40.3704 238.219C40.1772 238.433 39.943 238.607 39.6817 238.73C39.4203 238.854 39.1369 238.924 38.8478 238.938L38.6895 239.007Z" fill="#263238" stroke="white" stroke-miterlimit="10"/>
<path d="M22.501 237.208L26.558 266.246C26.687 267.251 27.2015 268.168 27.9942 268.806C28.7869 269.443 29.7966 269.752 30.8128 269.668L88.7485 265.105C89.7477 265.033 90.6822 264.587 91.3635 263.857C92.0448 263.127 92.4222 262.168 92.4195 261.172V231.121L57.7868 238.162L22.501 237.208Z" fill="#BA68C8" stroke="#263238" stroke-linecap="round" stroke-linejoin="round"/>
<path d="M34.6624 266.187L33.8708 266.246C33.6549 266.265 33.4399 266.2 33.2716 266.064C33.1034 265.928 32.9953 265.732 32.9704 265.518L31.1892 243.973C31.1812 243.866 31.195 243.759 31.2298 243.657C31.2646 243.556 31.3197 243.462 31.3918 243.382C31.4638 243.302 31.5514 243.238 31.6492 243.192C31.7471 243.147 31.8531 243.121 31.9611 243.118L32.7527 243.059C32.9691 243.037 33.1856 243.101 33.3544 243.238C33.5232 243.374 33.6307 243.571 33.6531 243.786L35.4342 265.331C35.4423 265.438 35.4285 265.546 35.3937 265.648C35.3589 265.749 35.3038 265.843 35.2318 265.923C35.1597 266.003 35.0721 266.067 34.9742 266.113C34.8764 266.158 34.7703 266.183 34.6624 266.187Z" fill="white" stroke="#263238" stroke-linecap="round" stroke-linejoin="round"/>
<path d="M41.6876 265.675L40.9059 265.734C40.6874 265.753 40.4698 265.687 40.2998 265.549C40.1297 265.411 40.0205 265.213 39.9956 264.996L38.2145 243.451C38.2078 243.345 38.2225 243.238 38.2578 243.137C38.2931 243.036 38.3483 242.943 38.4201 242.863C38.492 242.784 38.579 242.719 38.6762 242.673C38.7734 242.627 38.8788 242.601 38.9863 242.596L39.7779 242.537C39.8858 242.526 39.9949 242.537 40.0987 242.568C40.2025 242.599 40.2991 242.651 40.3828 242.719C40.4665 242.788 40.5358 242.872 40.5865 242.967C40.6372 243.063 40.6684 243.167 40.6783 243.274L42.4693 264.819C42.4775 265.035 42.4002 265.246 42.2541 265.406C42.108 265.566 41.9046 265.662 41.6876 265.675Z" fill="white" stroke="#263238" stroke-linecap="round" stroke-linejoin="round"/>
<path d="M48.7428 265.154L47.9611 265.213C47.7425 265.233 47.525 265.166 47.3549 265.029C47.1848 264.891 47.0757 264.692 47.0507 264.476L45.2696 242.931C45.263 242.824 45.2777 242.717 45.313 242.616C45.3483 242.515 45.4035 242.422 45.4753 242.342C45.5471 242.263 45.6342 242.198 45.7314 242.152C45.8286 242.106 45.934 242.08 46.0414 242.075L46.8331 242.026C47.0506 242.004 47.2682 242.068 47.4386 242.204C47.609 242.34 47.7185 242.538 47.7434 242.754L49.5245 264.299C49.5326 264.515 49.4554 264.725 49.3093 264.885C49.1631 265.045 48.9598 265.142 48.7428 265.154Z" fill="white" stroke="#263238" stroke-linecap="round" stroke-linejoin="round"/>
<path d="M55.7487 264.633L54.9571 264.692C54.7396 264.714 54.522 264.65 54.3516 264.514C54.1812 264.378 54.0717 264.18 54.0468 263.964L52.2656 242.41C52.2603 242.302 52.2763 242.195 52.3128 242.094C52.3492 241.993 52.4053 241.9 52.4779 241.821C52.5505 241.741 52.6382 241.677 52.7359 241.631C52.8336 241.585 52.9395 241.559 53.0474 241.554L53.8291 241.495C54.0466 241.473 54.2642 241.537 54.4346 241.673C54.605 241.809 54.7145 242.007 54.7394 242.223L56.5205 263.768C56.53 263.876 56.5173 263.984 56.4831 264.087C56.449 264.19 56.3941 264.284 56.3219 264.365C56.2496 264.446 56.1616 264.512 56.063 264.558C55.9645 264.604 55.8575 264.629 55.7487 264.633Z" fill="white" stroke="#263238" stroke-linecap="round" stroke-linejoin="round"/>
<path d="M62.7741 264.112L61.9825 264.171C61.8751 264.184 61.7663 264.174 61.6625 264.144C61.5587 264.114 61.462 264.064 61.3781 263.996C61.2943 263.928 61.2249 263.844 61.174 263.749C61.1232 263.655 61.0919 263.551 61.082 263.444L59.291 241.899C59.2857 241.791 59.3017 241.684 59.3381 241.583C59.3746 241.482 59.4307 241.389 59.5033 241.31C59.5759 241.23 59.6636 241.166 59.7613 241.12C59.859 241.074 59.9648 241.048 60.0727 241.043L60.8545 240.984C61.0715 240.965 61.2877 241.03 61.4575 241.165C61.6273 241.301 61.7375 241.497 61.7648 241.712L63.5855 263.257C63.5938 263.367 63.5788 263.478 63.5416 263.582C63.5044 263.686 63.4458 263.782 63.3695 263.862C63.2931 263.943 63.2008 264.006 63.0983 264.05C62.9958 264.093 62.8854 264.114 62.7741 264.112Z" fill="white" stroke="#263238" stroke-linecap="round" stroke-linejoin="round"/>
<path d="M69.7994 263.601L69.0078 263.66C68.8999 263.67 68.7908 263.66 68.687 263.629C68.5832 263.597 68.4866 263.546 68.4029 263.477C68.3192 263.409 68.25 263.324 68.1992 263.229C68.1485 263.134 68.1173 263.029 68.1074 262.922L66.3263 241.426C66.3196 241.32 66.3343 241.213 66.3697 241.112C66.405 241.011 66.4601 240.918 66.532 240.838C66.6038 240.758 66.6908 240.694 66.788 240.648C66.8852 240.602 66.9906 240.576 67.0981 240.571L67.8798 240.512C68.0984 240.492 68.3159 240.559 68.486 240.696C68.656 240.834 68.7652 241.033 68.7901 241.249L70.5713 262.794C70.5715 263.001 70.4915 263.201 70.3478 263.351C70.2041 263.501 70.0077 263.59 69.7994 263.601Z" fill="white" stroke="#263238" stroke-linecap="round" stroke-linejoin="round"/>
<path d="M76.825 263.059L76.0433 263.118C75.8247 263.138 75.6072 263.072 75.4371 262.934C75.2671 262.796 75.1579 262.598 75.133 262.381L73.3518 240.846C73.3438 240.739 73.3576 240.631 73.3924 240.53C73.4272 240.428 73.4822 240.335 73.5543 240.255C73.6264 240.175 73.714 240.11 73.8118 240.065C73.9097 240.019 74.0157 239.994 74.1237 239.99L74.9153 239.931C75.0227 239.919 75.1315 239.928 75.2353 239.958C75.3391 239.989 75.4357 240.039 75.5196 240.107C75.6035 240.175 75.6729 240.258 75.7238 240.353C75.7746 240.448 75.8059 240.552 75.8157 240.659L77.5968 262.204C77.6049 262.311 77.5911 262.419 77.5563 262.52C77.5215 262.622 77.4664 262.715 77.3944 262.795C77.3223 262.875 77.2347 262.94 77.1368 262.985C77.039 263.03 76.933 263.056 76.825 263.059Z" fill="white" stroke="#263238" stroke-linecap="round" stroke-linejoin="round"/>
<path d="M83.8505 262.558L83.0688 262.617C82.8512 262.639 82.6337 262.575 82.4633 262.439C82.2929 262.303 82.1834 262.105 82.1585 261.889L80.407 240.344C80.399 240.237 80.4127 240.13 80.4475 240.028C80.4823 239.927 80.5374 239.833 80.6095 239.753C80.6816 239.673 80.7692 239.609 80.867 239.563C80.9649 239.518 81.0709 239.492 81.1788 239.489L81.9704 239.43C82.1869 239.408 82.4033 239.472 82.5722 239.608C82.741 239.745 82.8484 239.942 82.8709 240.157L84.6619 261.702C84.6672 261.812 84.6503 261.922 84.612 262.025C84.5737 262.127 84.515 262.222 84.4392 262.302C84.3635 262.381 84.2723 262.445 84.1712 262.489C84.07 262.533 83.9609 262.557 83.8505 262.558Z" fill="white" stroke="#263238" stroke-linecap="round" stroke-linejoin="round"/>
<path d="M18.3057 233.098L57.1735 235.438L96.4173 226.086L97.3672 231.839L57.3615 240.473L19.2655 238.309L18.3057 233.098Z" fill="#BA68C8" stroke="#263238" stroke-linecap="round" stroke-linejoin="round"/>
<path d="M48.3273 153.909C48.3273 153.909 46.0415 159.661 46.8034 171.353C47.5654 183.045 54.2346 203.184 54.2346 204.266C54.2346 205.347 49.6631 209.841 49.8511 211.818C50.1965 213.48 50.8437 215.066 51.7609 216.498C51.7609 216.498 49.6631 217.216 49.8511 218.121C50.0391 219.026 50.613 219.38 52.1369 219.38C53.6607 219.38 56.0949 220.638 57.6682 219.016C59.2416 217.393 59.954 216.498 60.33 213.981C60.706 211.464 59.954 207.501 59.954 201.03C59.954 194.56 57.0943 165.06 58.0442 162.002C58.6175 160.156 59.3184 158.353 60.142 156.603L48.3273 153.909Z" fill="white" stroke="#263238" stroke-linecap="round" stroke-linejoin="round"/>
<path d="M57.8561 115.992C55.1016 117.126 52.6296 118.844 50.6129 121.027C47.9511 124.272 48.9011 128.225 49.0891 130.742C49.1784 132.783 49.1155 134.827 48.9011 136.858L44.7056 153.231C44.7056 153.231 46.0414 155.384 54.9964 157.164C63.9515 158.944 66.8111 158.964 66.8111 158.964C66.8111 158.964 66.0492 140.28 66.8111 132.699C67.5731 125.117 68.523 121.548 65.8216 118.853" fill="#BA68C8"/>
<path d="M57.8561 115.992C55.1016 117.126 52.6296 118.844 50.6129 121.027C47.9511 124.272 48.9011 128.225 49.0891 130.742C49.1784 132.783 49.1155 134.827 48.9011 136.858L44.7056 153.231C44.7056 153.231 46.0414 155.384 54.9964 157.164C63.9515 158.944 66.8111 158.964 66.8111 158.964C66.8111 158.964 66.0492 140.28 66.8111 132.699C67.5731 125.117 68.523 121.548 65.8216 118.853" stroke="#263238" stroke-linecap="round" stroke-linejoin="round"/>
<path d="M198.306 317.596C198.306 317.596 187.659 323.25 185.443 325.463C183.226 327.675 188.747 329.839 192.785 329.839C196.822 329.839 198.652 330.389 204.896 328.02C211.14 325.65 210.22 324.185 215.721 325.64C221.223 327.095 223.44 325.099 223.44 325.099L216.464 317.232L198.306 317.596Z" fill="#BA68C8" stroke="#263238" stroke-linecap="round" stroke-linejoin="round"/>
<path d="M219.956 321.146C216.631 321.369 213.357 322.078 210.239 323.25C205.47 325.079 202.531 326.898 195.397 327.449C191.937 327.768 188.455 327.146 185.324 325.649C183.651 327.763 188.916 329.819 192.834 329.819C196.752 329.819 198.702 330.369 204.946 327.999C211.189 325.63 210.269 324.164 215.771 325.62C221.272 327.075 223.489 325.079 223.489 325.079L219.956 321.146Z" fill="white" stroke="#263238" stroke-linecap="round" stroke-linejoin="round"/>
<path d="M220.174 322.709C220.174 322.709 206.648 332.257 204.431 334.785C202.215 337.312 205.638 339.849 211.902 339.849C218.165 339.849 232.296 334.588 233.909 331.284C235.521 327.98 220.174 322.709 220.174 322.709Z" fill="#BA68C8" stroke="#263238" stroke-linecap="round" stroke-linejoin="round"/>
<path d="M211.902 339.849C218.155 339.849 232.295 334.588 233.908 331.284C234.225 330.625 233.908 329.898 233.126 329.15C227.96 332.46 222.275 334.893 216.305 336.348C210.012 337.863 206.034 337.391 203.748 336.673C204.134 338.443 207.221 339.849 211.902 339.849Z" fill="white" stroke="#263238" stroke-linecap="round" stroke-linejoin="round"/>
<path d="M194.635 167.843C194.635 167.843 183.988 193.41 186.719 211.435C189.45 229.459 194.793 252.479 195.526 256.668C196.258 260.857 195.338 269.452 196.624 277.456C197.91 285.46 199.197 305.914 198.603 310.113C198.009 314.312 196.951 319.228 196.951 319.228C196.951 319.228 203.748 322.178 206.311 322.877C209.279 323.457 212.285 323.825 215.306 323.978C215.306 323.978 213.475 322.877 217.7 325.797C221.517 328.312 225.737 330.164 230.178 331.274C232.751 331.815 234.037 333.241 234.215 331.815C234.393 330.389 234.403 325.797 234.403 323.948C235.142 314.603 235.324 305.222 234.948 295.854C234.215 281.104 229.08 271.595 230.178 256.452C231.277 241.309 238.441 224.169 236.966 203.922C235.492 183.675 229.881 169.643 229.881 169.643C229.881 169.643 201.433 169.112 194.635 167.843Z" fill="#263238" stroke="#263238" stroke-linecap="round" stroke-linejoin="round"/>
<path d="M205.47 195.927L210.971 201.581C210.971 201.581 209.873 223.657 209.873 238.427C209.873 253.197 209.685 263.6 211.159 272.362C212.634 281.123 216.661 309.385 217.027 315.049C217.393 320.713 217.581 320.339 216.483 321.794C215.91 322.405 215.525 323.166 215.375 323.987" stroke="white" stroke-linecap="round" stroke-linejoin="round"/>
<path d="M253.006 116.394C252.086 117.309 248.058 116.03 248.79 112.933C249.523 109.835 254.658 101.261 249.889 91.0438C245.119 80.8269 233.918 80.6499 233.918 80.6499L232.869 83.3344C232.869 81.4956 232.79 80.0698 232.79 80.0698C231.801 77.6016 220.382 73.4125 219.927 76.8641C219.471 80.3156 217.7 90.916 221.906 93.8758C224.755 95.8425 227.605 94.8592 229.614 93.099C228.459 98.1662 228.062 103.375 228.436 108.557C229.357 120.78 238.539 122.049 245.327 121.341C252.115 120.633 253.926 115.49 253.006 116.394Z" fill="#263238" stroke="#263238" stroke-linecap="round" stroke-linejoin="round"/>
<path d="M234.611 83.4131C234.611 83.4131 246.534 89.3131 247.277 98.2222C248.019 107.131 242.062 112.54 244.545 116.001C247.029 119.462 249.76 118.213 249.76 118.213" stroke="white" stroke-width="0.75" stroke-linecap="round" stroke-linejoin="round"/>
<path d="M232.375 85.3899C232.375 85.3899 237.846 95.0168 234.858 103.66C231.87 112.304 234.116 118.961 241.567 120.682" stroke="white" stroke-width="0.75" stroke-linecap="round" stroke-linejoin="round"/>
<path d="M210.428 112.019C207.028 113.674 203.458 114.959 199.781 115.854C193.715 117.309 192.617 118.224 192.073 119.502C191.528 120.78 183.622 133.544 178.121 141.391C172.619 149.238 169.67 154.519 170.778 157.99C171.887 161.461 174.628 162.729 177.388 160.36C180.149 157.99 191.697 139.385 191.697 139.385C191.697 139.385 193.903 153.427 193.903 159.809C193.903 166.191 193.537 170.026 193.537 170.026C193.537 170.026 199.415 171.668 212.813 171.668C226.211 171.668 229.882 169.701 229.882 169.701C229.882 169.701 226.913 162.405 228.041 156.023C228.662 152.327 229.656 148.703 231.01 145.206C231.01 145.206 238.174 162.356 240.004 163.811C241.835 165.267 251.572 168.561 251.572 160.861C251.572 153.162 242.023 132.039 239.638 124.92C237.253 117.801 237.065 118.725 233.028 117.26C228.991 115.795 216.513 113.248 216.513 113.248L210.428 112.019Z" fill="#BA68C8" stroke="#263238" stroke-linecap="round" stroke-linejoin="round"/>
<path d="M170.778 157.99C171.876 161.452 174.627 162.73 177.388 160.36C179.367 158.669 185.828 148.668 189.361 143.102C189.03 142.57 188.646 142.072 188.213 141.618C187.1 140.595 185.78 139.822 184.341 139.351C182.902 138.879 181.378 138.72 179.871 138.884C179.278 139.759 178.704 140.605 178.15 141.391C172.608 149.229 169.67 154.519 170.778 157.99Z" fill="white" stroke="#263238" stroke-linecap="round" stroke-linejoin="round"/>
<path d="M251.541 160.91C251.541 158.649 250.71 155.217 249.473 151.313C244.427 150.761 239.334 151.792 234.908 154.263C236.887 158.649 239.074 163.113 239.974 163.841C241.814 165.286 251.541 168.57 251.541 160.91Z" fill="white" stroke="#263238" stroke-linecap="round" stroke-linejoin="round"/>
<path d="M181.286 145.02L175.814 147.764" stroke="#263238" stroke-linecap="round" stroke-linejoin="round"/>
<path d="M211.526 108.735C211.526 108.735 206.935 108.921 204.916 112.747C202.897 116.572 200.513 130.988 200.513 130.988C200.513 130.988 209.319 129.021 210.052 129.168C210.784 129.316 220.867 134.636 220.867 134.636C220.867 134.636 225.636 120.23 223.984 113.12C222.331 106.011 215.009 107.83 211.526 108.735Z" fill="white" stroke="#263238" stroke-linecap="round" stroke-linejoin="round"/>
<path d="M210.427 104.546C210.427 104.546 210.793 107.092 208.775 115.126C206.756 123.16 207.667 130.624 210.972 128.254C214.276 125.884 219.046 116.031 219.412 112.206C219.778 108.381 220.867 101.625 220.867 101.625C220.867 101.625 218.136 104.546 210.427 104.546Z" fill="white" stroke="#263238" stroke-linecap="round" stroke-linejoin="round"/>
<path d="M202.709 80.0996C202.709 80.0996 201.245 91.9587 202.531 98.8912C203.817 105.824 208.587 108.557 216.117 106.365C223.647 104.172 227.496 96.3345 227.496 96.3345C227.496 96.3345 232.82 96.8852 234.106 93.6009C235.392 90.3165 233.918 87.0321 231.345 87.2091C228.773 87.3861 226.022 93.237 224.191 92.3225C222.361 91.408 222.568 84.6525 223.301 82.2826C224.033 79.9128 220.055 77.8478 213.406 76.5694C206.756 75.2911 203.896 75.5861 203.352 75.9597C202.808 76.3334 202.709 80.0996 202.709 80.0996Z" fill="white" stroke="#263238" stroke-linecap="round" stroke-linejoin="round"/>
<path d="M210.418 85.8322C210.418 85.8322 210.051 89.3033 209.141 90.031C208.231 90.7587 206.568 91.3093 207.667 91.9977C208.459 92.4596 209.332 92.7698 210.239 92.9122" stroke="#263238" stroke-linecap="round" stroke-linejoin="round"/>
<path d="M206.568 95.509C207.399 95.9697 208.316 96.2554 209.263 96.3485C210.209 96.4415 211.165 96.3399 212.07 96.0498C213.726 95.4949 215.148 94.4043 216.107 92.9523" stroke="#263238" stroke-linecap="round" stroke-linejoin="round"/>
<path d="M215.375 86.7476C215.329 86.9365 215.229 87.1085 215.089 87.2437C214.948 87.3789 214.772 87.4719 214.58 87.512C214.389 87.552 214.19 87.5376 214.006 87.4702C213.823 87.4028 213.662 87.2853 213.543 87.1312C213.423 86.977 213.35 86.7925 213.332 86.5989C213.313 86.4053 213.35 86.2105 213.438 86.0368C213.526 85.8632 213.662 85.7178 213.83 85.6174C213.997 85.517 214.19 85.4656 214.386 85.4693C214.685 85.5133 214.956 85.6712 215.14 85.9097C215.325 86.1482 215.409 86.4486 215.375 86.7476Z" fill="#263238"/>
<path d="M207.578 85.0752C207.531 85.264 207.432 85.436 207.291 85.5712C207.151 85.7064 206.974 85.7994 206.783 85.8395C206.591 85.8796 206.392 85.8651 206.209 85.7977C206.025 85.7303 205.865 85.6128 205.745 85.4587C205.626 85.3045 205.553 85.12 205.534 84.9264C205.516 84.7328 205.553 84.538 205.641 84.3643C205.729 84.1907 205.865 84.0453 206.032 83.9449C206.2 83.8445 206.393 83.7932 206.588 83.7968C206.887 83.8431 207.156 84.0016 207.34 84.2395C207.524 84.4775 207.609 84.7766 207.578 85.0752Z" fill="#263238"/>
<path d="M204.322 81.0042C204.322 81.0042 205.242 77.0708 208.607 79.4898" stroke="#263238" stroke-linecap="round" stroke-linejoin="round"/>
<path d="M213.604 81.0047C214.004 80.8944 214.426 80.8877 214.83 80.9855C215.234 81.0832 215.605 81.282 215.91 81.5629C216.214 81.8439 216.442 82.1976 216.57 82.5904C216.698 82.9833 216.722 83.4022 216.641 83.8072" stroke="#263238" stroke-linecap="round" stroke-linejoin="round"/>
<path d="M203.263 76.6384C203.263 76.6384 204.362 68.9684 206.568 65.8709C208.775 62.7733 216.661 60.9542 225.478 64.4155C234.294 67.8769 236.491 72.8034 235.749 77.3661C234.999 80.991 233.895 84.5346 232.454 87.9468C232.454 87.9468 226.942 81.3781 221.619 79.1853C216.295 76.9924 203.263 76.6384 203.263 76.6384Z" fill="#BA68C8" stroke="#263238" stroke-linecap="round" stroke-linejoin="round"/>
<path d="M229.456 84.7313C229.456 84.7313 226.794 79.4311 218.373 75.7534C211.978 72.9656 204.844 72.3236 198.049 73.9244C194.15 74.9077 189.836 77.1891 193.329 79.2246C196.822 81.2601 197.435 78.2412 205.44 79.6376C213.445 81.0339 230.079 86.1571 230.079 86.1571L229.456 84.7313Z" fill="#BA68C8" stroke="#263238" stroke-linecap="round" stroke-linejoin="round"/>
<path d="M203.59 79.2246C203.59 79.2246 192.705 76.5696 192.3 78.0053C191.894 79.441 197.227 81.27 203.59 79.2246Z" fill="white" stroke="#263238" stroke-linecap="round" stroke-linejoin="round"/>
<path d="M216.483 151.608L212.446 139.199L182.523 136.829L193.903 172.947L223.271 178.237L216.483 151.608Z" fill="white" stroke="#263238" stroke-linecap="round" stroke-linejoin="round"/>
<path d="M183.582 152.552C183.582 152.552 184.72 155.816 186.432 156.81C188.144 157.803 188.579 156.524 187.58 155.108C186.962 154.317 186.434 153.459 186.006 152.552C185.877 152.349 185.698 152.181 185.486 152.065C185.274 151.95 185.036 151.889 184.794 151.889C184.552 151.889 184.314 151.95 184.102 152.065C183.89 152.181 183.711 152.349 183.582 152.552Z" fill="white" stroke="#263238" stroke-linecap="round" stroke-linejoin="round"/>
<path d="M183.008 150.133C183.008 150.133 182.86 152.405 183.859 153.26C184.859 154.116 189.153 155.109 189.292 153.968C189.43 152.827 189.579 152.837 186.867 152.001C185.474 151.625 184.165 150.991 183.008 150.133Z" fill="white" stroke="#263238" stroke-linecap="round" stroke-linejoin="round"/>
<path d="M182.86 145.305C182.86 145.305 180.881 149.002 181.573 149.996C182.266 150.989 188.727 152.405 189.291 151.697C189.855 150.989 188.302 148.855 186.867 147.999C185.432 147.144 182.86 145.305 182.86 145.305Z" fill="white" stroke="#263238" stroke-linecap="round" stroke-linejoin="round"/>
<path d="M184.433 143.033C184.433 143.033 181.287 143.318 181.287 145C181.287 146.681 186.867 150.261 187.718 149.405C188.569 148.55 188.154 147.979 186.867 146.455C185.991 145.362 185.178 144.219 184.433 143.033Z" fill="white" stroke="#263238" stroke-linecap="round" stroke-linejoin="round"/>
<path d="M203.817 139.022L200.285 138.471L199.879 134.331L194.377 133.387L195.842 137.783L192.062 137.193L194.269 143.034L204.916 144.489L203.817 139.022Z" fill="white" stroke="#263238" stroke-linecap="round" stroke-linejoin="round"/>
<path d="M219.788 149.573C217.088 148.938 214.329 148.579 211.555 148.501C209.804 148.501 202.511 151.028 203.768 151.53C205.025 152.031 210.051 151.53 210.803 151.53C211.576 151.614 212.336 151.786 213.069 152.041C213.069 152.041 208.547 152.542 207.538 152.798C206.529 153.054 202.511 154.313 203.521 155.07C204.53 155.827 208.547 155.325 208.547 155.325L212.812 155.581C210.906 156.017 208.977 156.345 207.033 156.564C205.777 156.564 206.529 158.079 208.023 158.079C209.517 158.079 214.049 158.59 214.049 158.59C214.049 158.59 209.527 159.573 209.28 160.606C209.032 161.638 213.05 161.117 214.306 160.606C215.563 160.095 220.085 157.577 221.084 157.322C222.084 157.066 224.607 156.338 224.607 156.338C224.607 156.338 233.899 160.38 236.659 162.396C239.42 164.411 241.686 166.693 246.208 166.693C250.73 166.693 251.492 162.907 251.492 159.868C251.492 156.83 246.713 154.814 242.695 154.313C238.678 153.811 229.634 151.028 226.863 150.772C224.485 150.501 222.123 150.101 219.788 149.573Z" fill="white" stroke="#263238" stroke-linecap="round" stroke-linejoin="round"/>
<path d="M104.336 126.402L97.6099 126.385C97.4762 126.384 97.3481 126.327 97.2538 126.225C97.1594 126.124 97.1064 125.986 97.1064 125.843C97.107 125.7 97.1606 125.562 97.2554 125.461C97.3501 125.36 97.4784 125.303 97.6122 125.303L104.329 125.32C104.463 125.321 104.591 125.378 104.685 125.48C104.78 125.581 104.832 125.719 104.832 125.862C104.832 126.004 104.78 126.14 104.687 126.241C104.594 126.341 104.468 126.399 104.336 126.402Z" fill="#263238"/>
<path d="M104.336 126.873L97.6099 126.856C97.4818 126.865 97.3618 126.926 97.2741 127.027C97.1865 127.127 97.1377 127.26 97.1377 127.397C97.1377 127.535 97.1865 127.667 97.2741 127.767C97.3618 127.868 97.4818 127.929 97.6099 127.938H98.3473L99.323 129.937C99.3782 130.048 99.4605 130.142 99.5614 130.208C99.6622 130.273 99.7777 130.308 99.8956 130.309H102.295C102.414 130.31 102.531 130.275 102.633 130.209C102.734 130.142 102.817 130.048 102.872 129.934L103.828 127.945H104.329C104.398 127.95 104.467 127.94 104.533 127.915C104.598 127.89 104.657 127.851 104.708 127.8C104.759 127.749 104.799 127.688 104.826 127.62C104.854 127.552 104.868 127.478 104.868 127.404C104.868 127.33 104.854 127.257 104.826 127.189C104.799 127.12 104.759 127.059 104.708 127.008C104.657 126.958 104.598 126.919 104.533 126.894C104.467 126.869 104.398 126.858 104.329 126.863L104.336 126.873Z" fill="#263238"/>
<path d="M102.752 130.11C102.752 130.127 102.573 130.043 102.29 129.957C101.92 129.842 101.535 129.789 101.15 129.8C100.765 129.812 100.384 129.887 100.02 130.022C99.7418 130.124 99.5747 130.217 99.5747 130.201C99.7001 130.087 99.8445 129.999 100 129.943C100.74 129.619 101.564 129.595 102.319 129.876C102.475 129.926 102.622 130.005 102.752 130.11Z" fill="#455A64"/>
<path d="M103.848 127.978C103.848 128.009 102.634 128.033 101.137 128.028C99.6397 128.024 98.4233 127.997 98.4233 127.964C98.4233 127.931 99.6375 127.909 101.137 127.911C102.636 127.914 103.848 127.945 103.848 127.978Z" fill="#455A64"/>
<path d="M103.424 128.831C103.204 128.875 102.98 128.898 102.756 128.9C102.346 128.929 101.78 128.95 101.152 128.96C100.524 128.969 99.9601 128.96 99.5502 128.941C99.3264 128.945 99.1026 128.928 98.8818 128.888C99.1036 128.86 99.327 128.85 99.5502 128.86L101.152 128.843L102.752 128.819C102.976 128.803 103.201 128.807 103.424 128.831Z" fill="#455A64"/>
<path d="M100.818 123.372C105.855 123.372 109.939 118.965 109.939 113.528C109.939 108.092 105.855 103.685 100.818 103.685C95.7807 103.685 91.6973 108.092 91.6973 113.528C91.6973 118.965 95.7807 123.372 100.818 123.372Z" fill="#F5F5F5"/>
<path d="M97.4408 117.918C97.4876 117.488 97.7995 117.054 97.6213 116.667C97.4208 116.234 96.8349 116.306 96.425 116.113C95.8502 115.84 95.672 115.076 95.2977 114.537C94.9613 114.059 94.1838 113.524 93.5778 113.67C93.4128 113.694 93.2606 113.779 93.1467 113.909C93.0327 114.04 92.964 114.208 92.9518 114.386H92.8961C92.7379 114.369 92.5486 114.36 92.4505 114.217C92.3525 114.073 92.4505 113.806 92.3436 113.643C92.2791 113.57 92.2039 113.508 92.1208 113.46C92.0429 113.402 91.976 113.29 92.0228 113.202C92.0696 113.113 92.1632 113.109 92.2144 113.039C92.2344 113.012 92.2453 112.978 92.2453 112.943C92.2453 112.908 92.2344 112.874 92.2144 112.846C92.0518 112.638 91.8669 113.063 91.7688 113.163C91.7466 113.191 91.722 113.215 91.6953 113.238C91.6953 113.257 91.6953 113.273 91.6953 113.29C91.6953 113.35 91.6953 113.409 91.6953 113.467C91.6953 113.524 91.6953 113.586 91.6953 113.643C91.6953 113.701 91.6953 113.739 91.6953 113.787C91.6953 113.835 91.6953 113.882 91.6953 113.93C91.7933 113.969 91.8873 114.019 91.976 114.078C92.152 114.188 92.3503 114.334 92.3614 114.556C92.3588 114.591 92.3658 114.627 92.3815 114.658C92.4031 114.685 92.4333 114.702 92.4661 114.706C92.6182 114.745 92.7734 114.768 92.9295 114.775C92.9295 114.971 92.9451 115.177 92.9429 115.372C92.9057 115.652 92.8849 115.933 92.8805 116.215C92.9228 116.612 93.179 116.932 93.4018 117.254C94.2551 118.474 94.714 119.881 95.2108 121.314C95.3044 121.393 95.4336 121.498 95.5294 121.572L95.7522 121.734C95.8279 121.791 95.897 121.837 95.9749 121.889L96.0975 121.973C96.0975 121.956 96.0975 121.985 96.0975 121.973C95.897 121.495 95.897 120.848 96.3203 120.614C96.4078 120.581 96.4904 120.534 96.5653 120.476C96.7569 120.282 96.601 119.879 96.7881 119.685C96.895 119.575 97.0643 119.582 97.198 119.518C97.3106 119.442 97.3993 119.331 97.4529 119.201C97.5065 119.07 97.5224 118.925 97.4988 118.785C97.4531 118.499 97.4337 118.208 97.4408 117.918Z" fill="#E0E0E0"/>
<path d="M92.2631 110.709C92.3447 110.628 92.4532 110.584 92.5647 110.588C92.6762 110.592 92.7817 110.644 92.858 110.731C92.9337 110.884 92.9512 111.063 92.907 111.23C92.8736 111.469 92.8401 111.688 92.8045 111.918C92.7867 111.985 92.7867 112.056 92.8045 112.123C92.8691 112.269 93.0897 112.24 93.1765 112.123C93.2518 111.977 93.271 111.806 93.23 111.645C93.1883 111.489 93.1883 111.324 93.23 111.168C93.3726 110.8 93.885 110.855 94.1835 110.614C94.3488 110.441 94.4773 110.231 94.56 110C94.6024 109.885 94.6737 109.784 94.7661 109.709C94.8584 109.634 94.9683 109.588 95.0835 109.575C95.1615 109.575 95.2373 109.609 95.3063 109.604C95.3608 109.596 95.4124 109.573 95.4558 109.537C95.4992 109.501 95.5328 109.453 95.5532 109.398C95.5736 109.343 95.5801 109.284 95.5719 109.225C95.5638 109.167 95.5413 109.112 95.5068 109.066C95.4683 109.034 95.4339 108.996 95.4044 108.954C95.3898 108.911 95.3891 108.864 95.4025 108.821C95.4158 108.778 95.4424 108.741 95.4779 108.715C95.5513 108.667 95.6346 108.638 95.7207 108.632L96.3044 108.532C96.5272 108.496 96.7945 108.379 96.7656 108.147C96.7366 107.915 96.4848 107.858 96.4492 107.669C96.4456 107.62 96.4374 107.571 96.4247 107.524C96.3645 107.397 96.1863 107.447 96.0727 107.524C96.0582 107.48 96.0344 107.44 96.0032 107.408C95.9721 107.375 95.9343 107.351 95.893 107.336C95.8516 107.322 95.8077 107.318 95.7647 107.325C95.7217 107.332 95.6807 107.349 95.645 107.376C95.5291 107.478 95.5157 107.658 95.4734 107.81C95.3463 108.173 95.1271 108.489 94.8407 108.725C94.761 108.823 94.6525 108.888 94.5333 108.911C94.413 108.911 94.2882 108.78 94.3439 108.672C94.3996 108.565 94.4843 108.548 94.4731 108.462C94.462 108.376 94.2838 108.362 94.2503 108.259C94.3216 107.951 94.6491 107.825 94.8986 107.662C95.2093 107.463 95.4456 107.154 95.567 106.788C95.5785 106.76 95.5844 106.73 95.5844 106.699C95.5844 106.668 95.5785 106.637 95.567 106.609C95.5291 106.533 95.4311 106.518 95.3442 106.518C95.1526 106.518 94.9098 106.545 94.8407 106.738C94.8215 106.847 94.8104 106.957 94.8073 107.068C94.7382 107.39 94.3283 107.423 94.0766 107.617C93.9884 107.705 93.8938 107.784 93.7936 107.856C93.6709 107.903 93.541 107.926 93.4105 107.923H93.3057C93.2255 108.042 93.1632 108.161 93.083 108.271C93.0028 108.381 92.9337 108.532 92.8602 108.658C92.5388 109.258 92.2789 109.894 92.0849 110.554C92.0136 110.793 91.9535 111.032 91.8978 111.271C91.8421 111.509 91.8064 111.748 91.7686 111.987C91.8448 111.789 91.9001 111.582 91.9334 111.371C91.9695 111.116 92.0859 110.883 92.2631 110.709Z" fill="#E0E0E0"/>
<path d="M99.9269 106.289C100.014 106.169 99.9893 105.995 100.045 105.854C100.139 105.615 100.426 105.539 100.526 105.31C100.564 105.221 100.573 105.111 100.642 105.047C100.711 104.982 100.78 104.982 100.84 104.932C100.868 104.899 100.889 104.86 100.901 104.818C100.913 104.775 100.916 104.73 100.91 104.686C100.904 104.643 100.889 104.601 100.865 104.564C100.842 104.527 100.811 104.496 100.776 104.474C100.419 104.235 99.7599 104.512 99.4524 104.751C99.0536 105.059 98.666 105.429 98.1358 105.393C97.9933 105.361 97.8461 105.361 97.7036 105.393C97.5655 105.448 97.4808 105.668 97.5989 105.761C97.6657 105.813 97.757 105.799 97.8217 105.835C97.8838 105.88 97.9273 105.949 97.9431 106.028C97.9588 106.107 97.9457 106.189 97.9063 106.258C97.8395 106.403 97.7192 106.511 97.6412 106.649C97.5647 106.783 97.5303 106.939 97.5432 107.096C97.5472 107.206 97.5912 107.309 97.6657 107.385C97.8306 107.523 98.0823 107.404 98.2204 107.234C98.3351 107.045 98.4755 106.875 98.637 106.73C98.73 106.678 98.8299 106.641 98.9333 106.621L99.6217 106.446C99.7377 106.434 99.8458 106.378 99.9269 106.289Z" fill="#E0E0E0"/>
<path d="M109.939 113.456C109.939 113.315 109.939 113.174 109.925 113.035C109.912 112.897 109.914 112.756 109.901 112.62C109.887 112.484 109.881 112.395 109.867 112.286C109.854 112.176 109.838 112.047 109.821 111.923C109.771 111.591 109.704 111.262 109.62 110.939C109.587 110.812 109.529 110.676 109.491 110.55C109.453 110.423 109.411 110.311 109.368 110.177C109.321 110.084 109.272 109.993 109.219 109.902C108.713 109.043 107.976 108.369 107.419 107.545C107.238 107.278 107.096 107.068 106.775 107.003C106.298 106.925 106.058 107.216 105.719 106.731C105.628 106.602 105.47 106.492 105.336 106.559C105.369 106.662 105.407 106.767 105.441 106.872C105.446 106.894 105.446 106.917 105.441 106.939C105.441 107.013 105.334 107.032 105.276 106.991C105.224 106.942 105.181 106.883 105.149 106.817C105.109 106.762 105.059 106.717 105.002 106.683C104.945 106.65 104.883 106.63 104.818 106.625C104.753 106.619 104.688 106.628 104.627 106.651C104.566 106.674 104.51 106.71 104.463 106.757C104.46 106.707 104.445 106.657 104.418 106.615C104.391 106.573 104.354 106.54 104.311 106.519C104.304 106.565 104.288 106.61 104.264 106.649C104.24 106.689 104.209 106.722 104.172 106.748C104.135 106.773 104.093 106.79 104.049 106.797C104.006 106.804 103.961 106.801 103.919 106.788C103.892 106.695 104.048 106.679 104.104 106.597C104.16 106.516 104.104 106.416 104.028 106.359C103.853 106.196 103.631 106.103 103.4 106.096C103.255 106.118 103.106 106.099 102.97 106.041C102.896 105.996 102.845 105.919 102.769 105.874C102.683 105.841 102.589 105.832 102.498 105.847C102.407 105.863 102.321 105.902 102.248 105.962C102.014 106.07 101.826 106.267 101.72 106.516C101.642 106.774 101.816 107.123 102.068 107.089C102.129 107.067 102.195 107.059 102.259 107.065C102.302 107.085 102.339 107.118 102.363 107.161C102.388 107.204 102.399 107.254 102.395 107.304C102.391 107.403 102.405 107.501 102.438 107.593C102.482 107.682 102.614 107.725 102.66 107.643C102.709 107.573 102.742 107.491 102.754 107.405C102.767 107.318 102.76 107.23 102.734 107.147C102.708 107.064 102.698 106.977 102.703 106.89C102.709 106.803 102.731 106.718 102.767 106.64C102.865 106.502 103.139 106.545 103.119 106.719C103.119 106.822 103.001 106.896 103.003 106.999C103.006 107.101 103.128 107.159 103.226 107.156C103.323 107.135 103.422 107.13 103.52 107.139C103.616 107.163 103.692 107.299 103.623 107.378C103.505 107.524 103.193 107.276 103.13 107.457C103.113 107.502 103.13 107.555 103.13 107.605C103.13 107.758 102.941 107.813 102.801 107.832C102.66 107.862 102.515 107.85 102.38 107.799C102.347 107.784 102.318 107.763 102.293 107.736C102.268 107.71 102.248 107.678 102.235 107.643C102.222 107.608 102.215 107.571 102.216 107.533C102.216 107.495 102.223 107.458 102.237 107.424C102.217 107.412 102.196 107.406 102.173 107.404C102.151 107.403 102.129 107.406 102.108 107.414C102.087 107.422 102.068 107.435 102.052 107.451C102.036 107.468 102.023 107.488 102.014 107.51C101.983 107.6 101.977 107.698 101.999 107.791C101.847 107.756 101.713 107.892 101.629 108.03C101.544 108.169 101.46 108.324 101.315 108.372C101.17 108.419 100.965 108.355 100.889 108.498C100.789 108.684 101.076 108.919 100.976 109.102C100.918 109.207 100.78 109.203 100.671 109.236C100.602 109.265 100.541 109.312 100.493 109.371C100.444 109.43 100.409 109.5 100.39 109.577C100.371 109.653 100.369 109.733 100.384 109.81C100.399 109.888 100.431 109.96 100.477 110.022C100.53 110.078 100.592 110.123 100.661 110.154C100.73 110.185 100.804 110.2 100.878 110.2C100.953 110.2 101.026 110.185 101.095 110.154C101.164 110.123 101.226 110.078 101.279 110.022C101.404 109.844 101.508 109.651 101.589 109.446C101.696 109.255 101.894 109.081 102.092 109.143C102.169 109.175 102.24 109.223 102.299 109.284L102.6 109.542C102.663 109.597 102.732 109.668 102.725 109.754C102.706 109.82 102.68 109.884 102.647 109.943C102.587 110.129 102.839 110.308 102.997 110.206C103.033 110.176 103.064 110.139 103.088 110.096C103.111 110.054 103.126 110.007 103.133 109.958C103.139 109.91 103.137 109.86 103.125 109.812C103.114 109.764 103.093 109.72 103.066 109.68C102.914 109.458 102.576 109.348 102.585 109.071C102.758 108.921 103.03 109.071 103.133 109.293C103.235 109.516 103.235 109.771 103.322 109.984C103.409 110.196 103.645 110.401 103.843 110.294L103.69 109.721C103.817 109.621 103.961 109.917 104.113 109.867C104.206 109.836 104.218 109.695 104.177 109.597C104.123 109.505 104.079 109.406 104.048 109.303C104.047 109.256 104.055 109.209 104.072 109.166C104.09 109.122 104.116 109.084 104.149 109.053C104.182 109.022 104.221 108.999 104.263 108.986C104.306 108.973 104.35 108.97 104.394 108.978C104.483 108.999 104.564 109.049 104.626 109.122C104.687 109.194 104.727 109.285 104.739 109.382C104.745 109.457 104.761 109.531 104.786 109.601C104.852 109.75 105.024 109.795 105.164 109.857C105.305 109.919 105.456 110.072 105.387 110.225C105.36 110.292 105.296 110.354 105.318 110.423C105.34 110.492 105.423 110.509 105.423 110.573C105.423 110.638 105.38 110.647 105.343 110.664C105.247 110.705 105.144 110.719 105.051 110.767C105.003 110.787 104.962 110.821 104.932 110.866C104.902 110.91 104.884 110.963 104.881 111.018C104.895 111.173 105.066 111.256 105.147 111.376C105.2 111.511 105.239 111.653 105.262 111.798C105.321 111.923 105.396 112.037 105.485 112.138C105.724 112.486 105.779 112.938 105.897 113.351C105.949 113.539 106.044 113.747 106.223 113.783C106.322 113.791 106.422 113.771 106.512 113.723C106.778 113.636 107.02 113.481 107.218 113.272C107.316 113.165 107.374 113.024 107.384 112.876C107.395 112.727 107.356 112.579 107.274 112.458C107.252 112.431 107.222 112.413 107.189 112.407C107.141 112.41 107.093 112.427 107.054 112.458C106.985 112.484 106.911 112.49 106.839 112.473C106.768 112.457 106.703 112.419 106.65 112.364C106.549 112.254 106.468 112.123 106.412 111.98L106.189 111.517C106.237 111.485 106.293 111.47 106.349 111.476C106.405 111.482 106.458 111.507 106.499 111.548C106.576 111.634 106.646 111.727 106.708 111.827C106.946 112.099 107.272 112.263 107.619 112.286C107.707 112.289 107.794 112.308 107.876 112.343C108.132 112.467 108.205 112.871 108.475 112.957C108.55 112.971 108.625 112.99 108.698 113.014C108.748 113.047 108.791 113.092 108.824 113.145C108.857 113.197 108.879 113.257 108.889 113.32C108.931 113.551 108.987 113.779 109.059 114.003C109.095 114.114 109.161 114.212 109.247 114.286C109.333 114.36 109.437 114.407 109.546 114.42C109.683 114.417 109.813 114.356 109.907 114.251C109.907 114.036 109.932 113.816 109.932 113.599C109.941 113.544 109.941 113.501 109.939 113.456Z" fill="#E0E0E0"/>
<path d="M106.247 117.51C106.111 117.539 106.085 117.625 106.009 117.733C105.933 117.84 105.786 118.014 105.688 118.153C105.541 118.392 105.675 118.752 105.479 118.95C105.434 118.985 105.392 119.023 105.352 119.063C105.333 119.088 105.32 119.117 105.312 119.148C105.304 119.18 105.303 119.212 105.307 119.244C105.311 119.276 105.322 119.307 105.337 119.334C105.353 119.362 105.374 119.385 105.399 119.404C105.449 119.439 105.508 119.458 105.569 119.458C105.629 119.458 105.689 119.439 105.739 119.404C105.841 119.334 105.914 119.226 105.947 119.101C105.962 119.013 105.999 118.93 106.053 118.862C106.165 118.757 106.339 118.836 106.486 118.814C107.109 118.712 106.842 117.384 106.247 117.51Z" fill="#E0E0E0"/>
<path d="M106.459 115.667C106.818 115.333 106.965 114.578 106.517 114.404C106.347 114.339 106.151 114.404 105.984 114.322C105.883 114.259 105.795 114.173 105.726 114.072C105.657 113.97 105.608 113.853 105.583 113.73L104.962 111.863C104.835 111.488 104.645 111.053 104.278 110.998C104.068 111.002 103.859 111.042 103.661 111.115C102.948 111.254 101.749 109.405 101.21 110.638C101.134 110.299 100.622 110.425 100.459 110.726C100.297 111.027 100.261 111.426 100 111.633C99.8021 111.791 99.5125 111.801 99.3499 112.004C99.2502 112.158 99.1988 112.342 99.2028 112.529C99.1739 112.885 99.1471 113.245 99.1204 113.596C99.0724 113.881 99.1042 114.174 99.2117 114.439C99.3432 114.678 99.6907 114.829 99.8801 114.635C99.9573 114.533 100.025 114.422 100.083 114.306C100.145 114.222 100.228 114.158 100.322 114.124C100.417 114.089 100.518 114.084 100.615 114.11C100.775 114.169 100.915 114.275 101.021 114.416C101.95 115.485 102.282 117.009 102.322 118.475C102.313 118.743 102.347 119.01 102.422 119.266C102.529 119.557 102.756 119.793 102.823 120.099C102.874 120.338 102.823 120.591 102.919 120.815C103.093 121.219 103.67 121.236 103.984 120.947C104.298 120.658 104.407 120.195 104.469 119.753C104.532 119.311 104.574 118.852 104.804 118.485C104.971 118.278 105.12 118.055 105.249 117.818C105.387 117.463 105.285 117.045 105.414 116.684C105.594 116.211 106.098 116.001 106.459 115.667Z" fill="#E0E0E0"/>
<path d="M97.2446 122.219V124.831L104.968 124.946V121.256L97.2446 122.219Z" fill="#F5F5F5"/>
<path d="M102.112 124.801C102.112 124.801 102.112 124.763 102.112 124.684C102.112 124.605 102.135 124.486 102.15 124.34C102.186 124.037 102.237 123.588 102.317 123.015C102.397 122.442 102.504 121.74 102.676 120.935C102.866 120.022 103.139 119.131 103.491 118.275C103.697 117.775 103.944 117.295 104.229 116.842C104.384 116.595 104.595 116.394 104.841 116.257C104.974 116.189 105.121 116.156 105.268 116.161C105.416 116.167 105.56 116.21 105.688 116.288C105.825 116.372 105.927 116.509 105.972 116.672C106.017 116.834 106.003 117.009 105.931 117.16C105.781 117.455 105.535 117.681 105.24 117.795C104.634 118.007 103.975 117.958 103.402 117.659C103.103 117.497 102.837 117.272 102.621 116.997C102.405 116.722 102.243 116.403 102.146 116.059C102.033 115.703 102.015 115.321 102.094 114.955C102.137 114.761 102.241 114.588 102.39 114.467C102.538 114.345 102.721 114.284 102.908 114.292C103.002 114.304 103.093 114.341 103.171 114.4C103.248 114.46 103.311 114.539 103.353 114.631C103.441 114.812 103.466 115.021 103.422 115.22C103.314 115.603 103.094 115.938 102.794 116.176C102.509 116.434 102.176 116.625 101.817 116.735C101.458 116.846 101.081 116.874 100.711 116.818C100.341 116.755 99.9906 116.596 99.6906 116.355C99.3906 116.114 99.1498 115.798 98.9889 115.435C98.9041 115.257 98.8552 115.062 98.8452 114.862C98.8352 114.662 98.8645 114.462 98.931 114.275C98.9645 114.179 99.0168 114.092 99.0844 114.019C99.1521 113.946 99.2335 113.89 99.3231 113.855C99.4127 113.82 99.5081 113.808 99.6027 113.817C99.6974 113.827 99.7889 113.858 99.8711 113.909C100.035 114.003 100.167 114.15 100.248 114.33C100.325 114.503 100.371 114.69 100.384 114.881C100.406 115.252 100.359 115.624 100.245 115.975C100.028 116.661 99.5771 117.234 98.9822 117.577C98.4155 117.898 97.7611 117.993 97.1354 117.845C96.828 117.79 96.546 117.628 96.3333 117.384C96.2289 117.259 96.1673 117.1 96.1583 116.932C96.1494 116.765 96.1939 116.599 96.2843 116.462C96.3355 116.401 96.3974 116.351 96.4666 116.315C96.5358 116.28 96.6109 116.259 96.6876 116.254C96.8341 116.244 96.9808 116.274 97.1131 116.343C97.3567 116.493 97.5477 116.724 97.6567 117.002C97.8794 117.522 98.0599 118.026 98.2403 118.509C98.951 120.438 99.4545 122.029 99.7998 123.132C99.9669 123.681 100.092 124.113 100.176 124.405C100.214 124.548 100.245 124.658 100.268 124.737C100.29 124.815 100.297 124.851 100.297 124.851C100.297 124.851 100.281 124.815 100.257 124.741L100.154 124.412L99.7597 123.146C99.41 122.048 98.8953 120.462 98.178 118.54C97.9953 118.062 97.8104 117.551 97.5898 117.042C97.4882 116.784 97.3096 116.568 97.0819 116.429C96.9707 116.342 96.8328 116.305 96.6966 116.324C96.5604 116.344 96.4365 116.419 96.3505 116.534C96.2646 116.649 96.2231 116.795 96.2349 116.941C96.2466 117.088 96.3106 117.224 96.4135 117.322C96.614 117.547 96.8778 117.694 97.1643 117.742C97.7686 117.885 98.4006 117.792 98.9466 117.479C99.5179 117.15 99.9505 116.599 100.156 115.939C100.266 115.603 100.311 115.246 100.288 114.891C100.289 114.716 100.249 114.543 100.171 114.389C100.093 114.235 99.9797 114.104 99.8421 114.01C99.7725 113.967 99.6951 113.941 99.6152 113.932C99.5354 113.924 99.4547 113.934 99.3788 113.962C99.3035 113.994 99.2353 114.042 99.1785 114.104C99.1217 114.165 99.0776 114.239 99.049 114.32C98.9901 114.493 98.9648 114.677 98.9747 114.86C98.9847 115.044 99.0297 115.223 99.107 115.388C99.2624 115.732 99.4926 116.031 99.7783 116.26C100.064 116.489 100.397 116.641 100.749 116.703C101.105 116.757 101.467 116.731 101.813 116.624C102.158 116.518 102.479 116.335 102.754 116.087C103.033 115.865 103.24 115.556 103.347 115.201C103.383 115.029 103.362 114.848 103.286 114.69C103.251 114.614 103.199 114.549 103.135 114.501C103.07 114.452 102.995 114.422 102.917 114.413C102.755 114.401 102.595 114.455 102.471 114.566C102.345 114.676 102.256 114.826 102.215 114.994C102.141 115.338 102.158 115.698 102.264 116.032C102.354 116.354 102.503 116.653 102.703 116.911C102.902 117.17 103.148 117.384 103.425 117.539C103.703 117.695 104.006 117.79 104.318 117.818C104.63 117.846 104.945 117.808 105.242 117.704C105.515 117.601 105.742 117.395 105.882 117.124C105.943 116.995 105.955 116.846 105.917 116.708C105.879 116.569 105.793 116.451 105.677 116.379C105.561 116.308 105.431 116.269 105.298 116.264C105.165 116.259 105.033 116.289 104.913 116.35C104.679 116.479 104.479 116.669 104.333 116.904C104.05 117.35 103.804 117.822 103.598 118.315C103.243 119.165 102.966 120.049 102.772 120.956C102.593 121.756 102.482 122.456 102.395 123.027C102.308 123.598 102.25 124.039 102.208 124.347C102.186 124.495 102.17 124.608 102.159 124.691C102.148 124.775 102.112 124.801 102.112 124.801Z" fill="#263238"/>
<path d="M96.1263 106.082C96.1263 106.096 95.9035 106.206 95.556 106.466C95.0535 106.837 94.6034 107.284 94.2193 107.792C93.6516 108.548 93.2264 109.415 92.9672 110.344C92.6639 111.487 92.588 112.686 92.7445 113.862C92.897 115.039 93.2353 116.18 93.7447 117.236C94.1622 118.098 94.6657 118.909 95.2463 119.655C95.6377 120.158 96.0557 120.637 96.4983 121.088L96.8615 121.456C96.9056 121.497 96.9466 121.541 96.984 121.59C96.9348 121.556 96.8886 121.518 96.8459 121.475C96.7567 121.398 96.6231 121.279 96.4671 121.124C96.0111 120.683 95.5824 120.211 95.1839 119.71C94.5898 118.966 94.0757 118.153 93.6512 117.286C93.1298 116.221 92.7845 115.066 92.6308 113.874C92.4737 112.68 92.5573 111.465 92.8759 110.309C93.144 109.367 93.5823 108.492 94.1658 107.732C94.5582 107.23 95.0185 106.794 95.5315 106.438C95.6745 106.339 95.8234 106.251 95.977 106.173C96.025 106.139 96.0749 106.109 96.1263 106.082Z" fill="white"/>
<path d="M109.938 113.528C109.938 113.528 109.938 113.593 109.938 113.719C109.938 113.846 109.938 114.032 109.925 114.278C109.874 114.995 109.755 115.704 109.569 116.394C109.216 117.663 108.628 118.842 107.841 119.862C107.054 120.883 106.084 121.723 104.988 122.333L105.01 122.292C105.01 123.128 105.01 124.019 105.01 124.945V124.996H104.961L97.2376 124.888H97.1842V124.824C97.1842 124.122 97.1842 123.357 97.1842 122.581L97.2176 122.636C96.5909 122.341 95.9937 121.979 95.4353 121.554C94.8643 121.109 94.3412 120.596 93.8759 120.026C92.9107 118.838 92.2234 117.42 91.8708 115.89C91.6198 114.786 91.5445 113.644 91.6481 112.513C91.7592 111.417 92.0353 110.347 92.4657 109.345C92.6764 108.858 92.9214 108.389 93.1986 107.943C93.3457 107.728 93.4927 107.518 93.6442 107.305C93.7957 107.093 93.9694 106.914 94.1276 106.718C94.7787 105.978 95.5297 105.347 96.3554 104.846C97.1524 104.386 98.0048 104.046 98.8885 103.835C99.1112 103.79 99.3207 103.761 99.5345 103.726C99.6415 103.709 99.7573 103.687 99.8531 103.675L100.174 103.656C100.397 103.656 100.597 103.63 100.807 103.628L101.43 103.666C101.635 103.677 101.838 103.705 102.039 103.749C102.237 103.79 102.44 103.812 102.631 103.869C103.01 103.969 103.382 104.096 103.745 104.249C103.923 104.327 104.102 104.394 104.271 104.487L104.812 104.764L105.055 104.898L105.278 105.053L105.723 105.359C106.764 106.129 107.661 107.101 108.368 108.225C108.905 109.068 109.318 109.995 109.593 110.973C109.644 111.176 109.693 111.367 109.738 111.546C109.782 111.725 109.796 111.9 109.825 112.057C109.854 112.215 109.872 112.363 109.892 112.499C109.906 112.621 109.914 112.744 109.916 112.867C109.925 113.083 109.932 113.251 109.936 113.368C109.936 113.481 109.936 113.538 109.936 113.538C109.936 113.538 109.936 113.481 109.923 113.368C109.909 113.256 109.905 113.084 109.889 112.869C109.887 112.746 109.877 112.623 109.86 112.502C109.838 112.368 109.814 112.222 109.789 112.065C109.765 111.907 109.745 111.733 109.698 111.556C109.651 111.379 109.6 111.188 109.546 110.988C109.27 110.017 108.856 109.097 108.321 108.26C107.614 107.151 106.719 106.193 105.683 105.435L105.238 105.132L105.015 104.979L104.772 104.848L104.282 104.581C104.113 104.497 103.934 104.432 103.761 104.356C103.398 104.204 103.026 104.079 102.647 103.983C102.457 103.926 102.259 103.907 102.061 103.866C101.863 103.823 101.663 103.795 101.462 103.785L100.844 103.749C100.637 103.749 100.43 103.771 100.218 103.781L99.9021 103.797C99.7952 103.812 99.6905 103.831 99.5858 103.847C99.363 103.886 99.1603 103.914 98.9464 103.957C98.0736 104.169 97.2318 104.507 96.4445 104.963C95.6265 105.459 94.8823 106.083 94.2368 106.816C94.0786 107.009 93.9071 107.191 93.7578 107.398L93.3234 108.026C93.0503 108.468 92.809 108.931 92.6016 109.411C91.7242 111.429 91.5182 113.708 92.0179 115.869C92.365 117.377 93.0398 118.776 93.9873 119.952C94.4443 120.514 94.9576 121.021 95.5178 121.464C96.0657 121.882 96.6516 122.241 97.2666 122.534L97.3 122.548V122.588C97.3 123.365 97.3 124.129 97.3 124.831L97.2466 124.773L104.97 124.895L104.924 124.945C104.924 124.019 104.924 123.128 104.924 122.292V122.266L104.946 122.252C106.035 121.649 107.001 120.819 107.786 119.811C108.572 118.802 109.161 117.636 109.52 116.38C109.712 115.694 109.839 114.989 109.898 114.276C109.909 114.037 109.918 113.848 109.925 113.719C109.932 113.59 109.938 113.528 109.938 113.528Z" fill="#263238"/>
<path d="M109.195 112.227C109.177 112.227 109.11 111.878 108.945 111.329C108.729 110.613 108.439 109.925 108.081 109.277C107.72 108.632 107.294 108.032 106.811 107.486C106.439 107.068 106.18 106.839 106.194 106.823C106.264 106.861 106.33 106.91 106.388 106.968C106.556 107.11 106.717 107.262 106.869 107.424C107.889 108.494 108.63 109.831 109.019 111.302C109.079 111.524 109.128 111.748 109.164 111.976C109.184 112.058 109.195 112.142 109.195 112.227Z" fill="white"/>
<path d="M84.8088 106.6C84.8088 106.708 84.7791 106.812 84.7236 106.902C84.668 106.991 84.589 107.06 84.4966 107.101C84.4042 107.142 84.3025 107.153 84.2044 107.132C84.1063 107.111 84.0162 107.06 83.9455 106.984C83.8748 106.908 83.8266 106.811 83.8071 106.706C83.7876 106.601 83.7976 106.492 83.8359 106.393C83.8741 106.294 83.939 106.209 84.0221 106.15C84.1053 106.09 84.2031 106.058 84.3031 106.058C84.4372 106.058 84.5658 106.115 84.6607 106.217C84.7555 106.319 84.8088 106.457 84.8088 106.6Z" fill="#BA68C8"/>
<path d="M99.4055 106.6C99.4055 106.708 99.3758 106.812 99.3203 106.902C99.2647 106.991 99.1857 107.06 99.0933 107.101C99.0009 107.142 98.8992 107.153 98.8011 107.132C98.703 107.111 98.6129 107.06 98.5422 106.984C98.4714 106.908 98.4233 106.811 98.4038 106.706C98.3842 106.601 98.3943 106.492 98.4325 106.393C98.4708 106.294 98.5356 106.209 98.6188 106.15C98.702 106.09 98.7997 106.058 98.8998 106.058C99.0339 106.058 99.1625 106.115 99.2574 106.217C99.3522 106.319 99.4055 106.457 99.4055 106.6Z" fill="#BA68C8"/>
<path d="M118.741 103.809C118.741 103.917 118.711 104.021 118.656 104.111C118.6 104.2 118.521 104.269 118.429 104.31C118.336 104.351 118.235 104.362 118.137 104.341C118.038 104.32 117.948 104.269 117.878 104.193C117.807 104.117 117.759 104.02 117.739 103.915C117.72 103.81 117.73 103.701 117.768 103.602C117.806 103.503 117.871 103.418 117.954 103.359C118.037 103.299 118.135 103.267 118.235 103.267C118.302 103.267 118.367 103.281 118.429 103.309C118.49 103.336 118.546 103.376 118.593 103.426C118.64 103.476 118.677 103.536 118.702 103.602C118.728 103.668 118.741 103.738 118.741 103.809Z" fill="#BA68C8"/>
<path d="M102.233 110.596C102.233 110.703 102.203 110.808 102.147 110.897C102.092 110.986 102.013 111.056 101.92 111.097C101.828 111.138 101.726 111.148 101.628 111.127C101.53 111.107 101.44 111.055 101.369 110.979C101.299 110.903 101.25 110.807 101.231 110.702C101.211 110.596 101.221 110.487 101.26 110.388C101.298 110.289 101.363 110.205 101.446 110.145C101.529 110.086 101.627 110.054 101.727 110.054C101.793 110.054 101.859 110.068 101.92 110.095C101.982 110.122 102.038 110.162 102.084 110.212C102.131 110.263 102.169 110.323 102.194 110.388C102.22 110.454 102.233 110.525 102.233 110.596Z" fill="#BA68C8"/>
<path d="M108.279 116.437C108.45 116.437 108.589 116.288 108.589 116.105C108.589 115.922 108.45 115.773 108.279 115.773C108.108 115.773 107.969 115.922 107.969 116.105C107.969 116.288 108.108 116.437 108.279 116.437Z" fill="#BA68C8"/>
<path d="M94.8228 110.929C94.9939 110.929 95.1325 110.78 95.1325 110.597C95.1325 110.413 94.9939 110.265 94.8228 110.265C94.6518 110.265 94.5132 110.413 94.5132 110.597C94.5132 110.78 94.6518 110.929 94.8228 110.929Z" fill="#BA68C8"/>
<path d="M98.0133 115.795C98.2065 115.795 98.3631 115.627 98.3631 115.42C98.3631 115.213 98.2065 115.045 98.0133 115.045C97.8202 115.045 97.6636 115.213 97.6636 115.42C97.6636 115.627 97.8202 115.795 98.0133 115.795Z" fill="#BA68C8"/>
<path d="M112.634 108.399C112.805 108.399 112.944 108.251 112.944 108.068C112.944 107.884 112.805 107.736 112.634 107.736C112.463 107.736 112.325 107.884 112.325 108.068C112.325 108.251 112.463 108.399 112.634 108.399Z" fill="#BA68C8"/>
<path d="M116.065 113.364C116.363 113.364 116.604 113.105 116.604 112.786C116.604 112.467 116.363 112.208 116.065 112.208C115.767 112.208 115.526 112.467 115.526 112.786C115.526 113.105 115.767 113.364 116.065 113.364Z" fill="#BA68C8"/>
<path d="M88.6852 114.109C88.8562 114.109 88.9948 113.961 88.9948 113.777C88.9948 113.594 88.8562 113.445 88.6852 113.445C88.5141 113.445 88.3755 113.594 88.3755 113.777C88.3755 113.961 88.5141 114.109 88.6852 114.109Z" fill="#BA68C8"/>
<path d="M91.4698 104.959C91.6409 104.959 91.7795 104.811 91.7795 104.627C91.7795 104.444 91.6409 104.295 91.4698 104.295C91.2988 104.295 91.1602 104.444 91.1602 104.627C91.1602 104.811 91.2988 104.959 91.4698 104.959Z" fill="#BA68C8"/>
<path d="M85.4038 116.057C85.5502 116.057 85.6689 115.93 85.6689 115.773C85.6689 115.616 85.5502 115.489 85.4038 115.489C85.2574 115.489 85.1387 115.616 85.1387 115.773C85.1387 115.93 85.2574 116.057 85.4038 116.057Z" fill="#BA68C8"/>
<path d="M89.1064 108.78C89.2528 108.78 89.3715 108.653 89.3715 108.496C89.3715 108.339 89.2528 108.212 89.1064 108.212C88.96 108.212 88.8413 108.339 88.8413 108.496C88.8413 108.653 88.96 108.78 89.1064 108.78Z" fill="#BA68C8"/>
<path d="M101.486 117.793C101.486 117.849 101.471 117.904 101.442 117.951C101.412 117.998 101.371 118.034 101.323 118.056C101.274 118.077 101.221 118.083 101.169 118.072C101.118 118.061 101.071 118.034 101.034 117.994C100.997 117.954 100.971 117.904 100.961 117.849C100.951 117.793 100.956 117.736 100.976 117.684C100.996 117.632 101.03 117.588 101.074 117.557C101.117 117.526 101.169 117.509 101.221 117.509C101.291 117.509 101.359 117.539 101.409 117.592C101.458 117.645 101.486 117.718 101.486 117.793Z" fill="#BA68C8"/>
<path d="M111.881 114.494C112.028 114.494 112.146 114.367 112.146 114.21C112.146 114.053 112.028 113.926 111.881 113.926C111.735 113.926 111.616 114.053 111.616 114.21C111.616 114.367 111.735 114.494 111.881 114.494Z" fill="#BA68C8"/>
<path d="M117.132 108.868C117.279 108.868 117.397 108.741 117.397 108.584C117.397 108.427 117.279 108.3 117.132 108.3C116.986 108.3 116.867 108.427 116.867 108.584C116.867 108.741 116.986 108.868 117.132 108.868Z" fill="#BA68C8"/>
<path d="M81.8994 112.089C82.0458 112.089 82.1645 111.962 82.1645 111.805C82.1645 111.648 82.0458 111.521 81.8994 111.521C81.753 111.521 81.6343 111.648 81.6343 111.805C81.6343 111.962 81.753 112.089 81.8994 112.089Z" fill="#BA68C8"/>
<path d="M94.1968 118.542C94.3432 118.542 94.4619 118.415 94.4619 118.258C94.4619 118.101 94.3432 117.974 94.1968 117.974C94.0503 117.974 93.9316 118.101 93.9316 118.258C93.9316 118.415 94.0503 118.542 94.1968 118.542Z" fill="#BA68C8"/>
<path d="M108.853 111.204C109 111.204 109.119 111.077 109.119 110.92C109.119 110.763 109 110.636 108.853 110.636C108.707 110.636 108.588 110.763 108.588 110.92C108.588 111.077 108.707 111.204 108.853 111.204Z" fill="#BA68C8"/>
<path d="M110.03 104.959C110.201 104.959 110.34 104.811 110.34 104.627C110.34 104.444 110.201 104.295 110.03 104.295C109.859 104.295 109.72 104.444 109.72 104.627C109.72 104.811 109.859 104.959 110.03 104.959Z" fill="#BA68C8"/>
<path d="M94.8228 110.595C94.8433 110.564 94.8673 110.536 94.894 110.511L95.1168 110.287L95.9456 109.456L98.8707 106.559L98.913 106.518L98.9487 106.566L101.261 109.671C101.484 109.983 101.722 110.294 101.929 110.585C103.62 112.257 105.213 113.608 106.385 114.547C106.971 115.025 107.446 115.383 107.775 115.636L108.152 115.927C108.198 115.957 108.241 115.994 108.279 116.035C108.231 116.008 108.185 115.979 108.141 115.946L107.751 115.674C107.414 115.435 106.931 115.075 106.341 114.611C104.774 113.388 103.272 112.072 101.843 110.669L101.174 109.749L98.8707 106.645H98.9464L95.9946 109.511L95.1458 110.32L94.923 110.53C94.8925 110.557 94.8588 110.578 94.8228 110.595Z" fill="#BA68C8"/>
<path d="M91.4209 104.72C91.4829 104.782 91.5383 104.851 91.5858 104.926C91.686 105.064 91.8264 105.265 91.9957 105.52C92.3321 106.027 92.7776 106.743 93.2321 107.56C93.6866 108.377 94.0586 109.138 94.3126 109.709C94.4396 109.988 94.5354 110.218 94.6022 110.378C94.6425 110.457 94.6725 110.542 94.6913 110.631C94.6396 110.557 94.5963 110.477 94.5621 110.392C94.473 110.215 94.3661 109.998 94.2391 109.742C93.9673 109.193 93.5707 108.441 93.1252 107.627C92.6796 106.812 92.2341 106.091 91.9222 105.571L91.5501 104.954C91.4985 104.882 91.4552 104.804 91.4209 104.72Z" fill="#BA68C8"/>
<path d="M84.3034 106.601C84.3324 106.618 83.8178 107.826 83.1539 109.304C82.49 110.782 81.9286 111.967 81.8996 111.95C81.8706 111.933 82.3853 110.734 83.0492 109.249C83.713 107.764 84.2745 106.587 84.3034 106.601Z" fill="#BA68C8"/>
<path d="M94.2236 118.357C94.2183 118.309 94.2183 118.26 94.2236 118.212C94.2236 118.104 94.2236 117.973 94.2414 117.796C94.2615 117.419 94.2927 116.903 94.3283 116.27C94.413 114.969 94.5288 113.197 94.6558 111.239C94.6736 110.983 94.6915 110.73 94.7071 110.491L94.7472 110.556L90.7371 109.123L89.5452 108.681L89.2244 108.557C89.1865 108.544 89.1499 108.528 89.1152 108.507C89.155 108.509 89.1942 108.519 89.2311 108.535L89.5586 108.638L90.7616 109.044L94.7895 110.446L94.834 110.462V110.51C94.8184 110.749 94.8006 110.988 94.7828 111.258C94.6424 113.213 94.5155 114.983 94.4197 116.273C94.3707 116.905 94.3283 117.421 94.2971 117.796C94.2815 117.966 94.2682 118.102 94.257 118.212C94.2517 118.261 94.2404 118.31 94.2236 118.357Z" fill="#BA68C8"/>
<path d="M84.3032 106.6C84.3032 106.6 84.3322 106.641 84.3857 106.724C84.4391 106.808 84.5171 106.932 84.6084 107.092L85.4996 108.51L88.7232 113.764L88.6697 113.747L94.8029 110.557L94.843 110.535L94.8697 110.574L98.0132 115.457H97.9218L101.201 111.199L101.685 110.571L109.992 104.601L110.032 104.573L110.061 104.613L112.663 108.057L112.694 108.1L112.654 108.131C111.231 109.198 109.963 110.151 108.867 110.977L108.789 111.034L108.809 110.937C109.186 108.959 109.478 107.386 109.7 106.304C109.805 105.771 109.885 105.349 109.941 105.072C109.968 104.935 109.99 104.833 110.005 104.756C110.012 104.72 110.02 104.684 110.03 104.649C110.03 104.649 110.03 104.685 110.014 104.759L109.961 105.076C109.91 105.363 109.836 105.775 109.738 106.313C109.54 107.398 109.252 108.971 108.889 110.951L108.831 110.91C109.925 110.082 111.191 109.124 112.608 108.045V108.119L109.99 104.661H110.059L101.758 110.631H101.771L101.288 111.259C100.174 112.718 99.0603 114.141 98.0065 115.514L97.9597 115.576L97.9174 115.512L94.7806 110.626L94.8475 110.645L88.6987 113.816L88.6653 113.833L88.6452 113.802L85.455 108.549C85.083 107.928 84.7867 107.445 84.5928 107.116L84.3701 106.741C84.3255 106.645 84.3032 106.6 84.3032 106.6Z" fill="#BA68C8"/>
<path d="M116.065 112.723C116.041 112.745 115.252 111.704 114.305 110.397C113.358 109.091 112.61 108.009 112.634 107.995C112.659 107.981 113.45 109.017 114.397 110.321C115.343 111.625 116.101 112.702 116.065 112.723Z" fill="#BA68C8"/>
<path d="M118.177 103.792C118.11 103.866 118.035 103.932 117.954 103.988L117.342 104.485C116.823 104.898 116.099 105.461 115.297 106.08C114.495 106.698 113.764 107.252 113.231 107.646L112.608 108.107C112.532 108.169 112.451 108.222 112.365 108.265C112.432 108.191 112.507 108.126 112.588 108.069L113.198 107.575C113.719 107.159 114.441 106.596 115.245 105.977C116.05 105.359 116.778 104.805 117.31 104.41L117.943 103.947C118.016 103.887 118.095 103.835 118.177 103.792Z" fill="#BA68C8"/>
<path d="M101.727 110.597C101.638 110.617 101.548 110.626 101.457 110.625C101.284 110.625 101.03 110.647 100.72 110.656C100.096 110.678 99.2363 110.695 98.285 110.702C97.3337 110.709 96.4716 110.702 95.8478 110.683C95.5359 110.683 95.2842 110.664 95.1104 110.652C95.0198 110.654 94.9293 110.644 94.8408 110.623C94.9304 110.606 95.0216 110.599 95.1126 110.604H95.85L98.2783 110.578H100.713H101.451C101.543 110.572 101.636 110.579 101.727 110.597Z" fill="#BA68C8"/>
<path d="M210.253 184.033C209.566 181.651 209.26 179.697 209.337 178.172C209.414 176.646 209.963 174.815 210.985 172.676L213.665 167.456C214.76 165.056 214.974 162.771 214.307 160.6C213.666 158.509 212.616 157.042 211.159 156.199C209.696 155.336 207.917 155.222 205.824 155.857C203.79 156.473 202.32 157.506 201.414 158.956C200.508 160.406 200.333 162.037 200.889 163.85L195.356 165.527C194.406 162.288 194.755 159.341 196.403 156.687C198.065 154.006 200.71 152.116 204.339 151.017C208.107 149.875 211.35 150.003 214.067 151.4C216.797 152.771 218.704 155.219 219.785 158.744C220.855 162.23 220.294 166.155 218.103 170.519L215.833 174.734C214.873 176.788 214.857 179.329 215.786 182.356L210.253 184.033ZM212.92 193.576C212.645 192.68 212.685 191.851 213.04 191.09C213.408 190.304 214.131 189.747 215.208 189.421C216.284 189.095 217.197 189.156 217.944 189.604C218.686 190.033 219.194 190.695 219.469 191.591C219.744 192.487 219.694 193.319 219.319 194.085C218.938 194.832 218.209 195.369 217.133 195.695C216.056 196.021 215.15 195.98 214.415 195.572C213.693 195.137 213.195 194.472 212.92 193.576Z" fill="black"/>
</svg>
